STARTFONT 2.3
FONT -FontForge-Source Code Pro-Book-R-Normal--18-180-72-72-M-110-ISO10646-1
SIZE 18 72 72  4
FONTBOUNDINGBOX 20 31 -5 -8
COMMENT "Generated by fontforge, http://fontforge.sourceforge.net"
COMMENT "Copyright 2010, 2012 Adobe Systems Incorporated (http://www.adobe.com/), with Reserved Font Name `Source'."
STARTPROPERTIES 42
FOUNDRY "FontForge"
FAMILY_NAME "Source Code Pro"
WEIGHT_NAME "Book"
SLANT "R"
SETWIDTH_NAME "Normal"
ADD_STYLE_NAME ""
PIXEL_SIZE 18
POINT_SIZE 180
RESOLUTION_X 72
RESOLUTION_Y 72
SPACING "M"
AVERAGE_WIDTH 110
CHARSET_REGISTRY "ISO10646"
CHARSET_ENCODING "1"
FONTNAME_REGISTRY ""
CHARSET_COLLECTIONS "ASCII ISOLatin1Encoding ISO8859-2 ISO8859-9 ISO8859-4 ISO10646-1"
BITS_PER_PIXEL 4
FONT_NAME "SourceCodePro-It"
FACE_NAME "Source Code Pro Italic"
COPYRIGHT "Copyright 2010, 2012 Adobe Systems Incorporated (http://www.adobe.com/), with Reserved Font Name `Source'."
FONT_VERSION "1.050;PS 1.000;hotconv 16.6.51;makeotf.lib2.5.65220"
FONT_ASCENT 13
FONT_DESCENT 5
UNDERLINE_POSITION -2
UNDERLINE_THICKNESS 1
X_HEIGHT 8
CAP_HEIGHT 11
RAW_ASCENT 750
RAW_DESCENT 250
ITALIC_ANGLE 5056
NORM_SPACE 11
RELATIVE_WEIGHT 40
RELATIVE_SETWIDTH 50
SUPERSCRIPT_X 1
SUPERSCRIPT_Y 6
SUPERSCRIPT_SIZE 10
SUBSCRIPT_X 0
SUBSCRIPT_Y 1
SUBSCRIPT_SIZE 10
FIGURE_WIDTH 11
AVG_LOWERCASE_WIDTH 110
AVG_UPPERCASE_WIDTH 110
ENDPROPERTIES
CHARS 1269
STARTCHAR space
ENCODING 32
SWIDTH 600 0
DWIDTH 11 0
BBX 1 1 0 0
BITMAP
00
ENDCHAR
STARTCHAR exclam
ENCODING 33
SWIDTH 600 0
DWIDTH 11 0
BBX 5 12 3 0
BITMAP
002F50
005F10
008C00
00A800
00D400
01F100
04B000
000000
000000
3E8000
AFC000
7E5000
ENDCHAR
STARTCHAR quotedbl
ENCODING 34
SWIDTH 600 0
DWIDTH 11 0
BBX 7 6 3 6
BITMAP
4F902FA0
7F605F70
9F207F30
AC008E00
B700A900
D300B400
ENDCHAR
STARTCHAR numbersign
ENCODING 35
SWIDTH 600 0
DWIDTH 11 0
BBX 9 11 1 0
BITMAP
0002C00A40
0007701D00
000C205900
0AFFFFFFB0
008601D000
00D1077000
BFFFFFFA00
09501C0000
0D10680000
2B00A40000
7700D00000
ENDCHAR
STARTCHAR dollar
ENCODING 36
SWIDTH 600 0
DWIDTH 11 0
BBX 9 15 1 -2
BITMAP
00000B4000
00000E1000
004BEFA300
02E7118F20
06E0000200
05F4000000
00BF810000
0007EE6000
000017F600
310000B900
AD5115E600
07DFFD6000
002D100000
004B000000
0078000000
ENDCHAR
STARTCHAR percent
ENCODING 37
SWIDTH 600 0
DWIDTH 11 0
BBX 12 12 -1 0
BITMAP
007EE5000000
07B24E00003A
0E200F1003D4
1E003D004C20
0E42C602B100
05EE70000000
00000019ED30
000010A917B0
000692E003D0
008A04B006A0
0AA003E23D30
4900008ED500
ENDCHAR
STARTCHAR ampersand
ENCODING 38
SWIDTH 600 0
DWIDTH 11 0
BBX 11 12 0 0
BITMAP
00008EE50000
0008C25D0000
000E404D0000
001F21C60000
000E8D800000
001DE4000620
03EBE2006D00
2E70CA01D500
8D003F69A000
9B0006FD1000
5F503BDF9100
07DFD714C400
ENDCHAR
STARTCHAR quotesingle
ENCODING 39
SWIDTH 600 0
DWIDTH 11 0
BBX 3 6 5 6
BITMAP
3FA0
6F60
8F30
9D00
B800
C300
ENDCHAR
STARTCHAR parenleft
ENCODING 40
SWIDTH 600 0
DWIDTH 11 0
BBX 7 16 3 -3
BITMAP
000006B0
00009D40
000AD200
007D2000
02F40000
09B00000
0E500000
3F100000
6D000000
7C000000
6D000000
4F000000
0E400000
09B00000
02E70000
004B0000
ENDCHAR
STARTCHAR parenright
ENCODING 41
SWIDTH 600 0
DWIDTH 11 0
BBX 8 17 0 -4
BITMAP
0002B100
0000BA00
00002F40
000009A0
000005E0
000003F1
000002F2
000002F1
000005E0
000008B0
00000D60
00006E10
0002E600
001CA000
02DA0000
2E800000
02000000
ENDCHAR
STARTCHAR asterisk
ENCODING 42
SWIDTH 600 0
DWIDTH 11 0
BBX 9 8 1 2
BITMAP
0000360000
0000870000
0410C50320
19EAFADB30
002DFB2000
007EAC0000
04D31E3000
0A30069000
ENDCHAR
STARTCHAR plus
ENCODING 43
SWIDTH 600 0
DWIDTH 11 0
BBX 9 9 1 1
BITMAP
0001700000
0002E00000
0002E00000
0002E00000
7FFFFFFF40
0002E00000
0002E00000
0002E00000
0001800000
ENDCHAR
STARTCHAR comma
ENCODING 44
SWIDTH 600 0
DWIDTH 11 0
BBX 6 7 1 -4
BITMAP
003DB0
009FF2
006FF1
0008C0
002E50
05E700
3B4000
ENDCHAR
STARTCHAR hyphen
ENCODING 45
SWIDTH 600 0
DWIDTH 11 0
BBX 9 1 1 5
BITMAP
7FFFFFFF40
ENDCHAR
STARTCHAR period
ENCODING 46
SWIDTH 600 0
DWIDTH 11 0
BBX 3 3 3 0
BITMAP
4E90
CFD0
8E50
ENDCHAR
STARTCHAR slash
ENCODING 47
SWIDTH 600 0
DWIDTH 11 0
BBX 11 16 0 -3
BITMAP
000000001E40
000000009A00
00000003F200
0000000B8000
0000005E1000
000000D60000
000006D00000
00001E500000
00008B000000
0002F3000000
000A90000000
004E10000000
00C700000000
06D100000000
1D5000000000
8C0000000000
ENDCHAR
STARTCHAR zero
ENCODING 48
SWIDTH 600 0
DWIDTH 11 0
BBX 9 11 1 0
BITMAP
0019DFC300
01D9218E10
0BA0000C80
4F200009A0
9B04E508B0
C806E30AA0
E600000D70
D600004F20
AA0000C900
3F612BC100
04DFD80000
ENDCHAR
STARTCHAR one
ENCODING 49
SWIDTH 600 0
DWIDTH 11 0
BBX 9 11 0 0
BITMAP
000158E900
0005BBF600
000003F300
000006E000
000009B000
00000C8000
00001F5000
00003F2000
00007E0000
0000AB0000
3FFFFFFF90
ENDCHAR
STARTCHAR two
ENCODING 50
SWIDTH 600 0
DWIDTH 11 0
BBX 9 11 0 0
BITMAP
0005BEEA10
009D512CA0
00310006E0
00000007D0
0000001D80
000000AC10
000009D200
0001AD2000
002CB10000
03E9000000
3FFEFFFFC0
ENDCHAR
STARTCHAR three
ENCODING 51
SWIDTH 600 0
DWIDTH 11 0
BBX 10 11 0 0
BITMAP
0005BEEB30
004D511AE1
00000002F3
00000005F1
0000027E60
0003FFC300
0000139E30
0000000CA0
0400000C90
3E92029E30
02AEFD9300
ENDCHAR
STARTCHAR four
ENCODING 52
SWIDTH 600 0
DWIDTH 11 0
BBX 10 11 0 0
BITMAP
0000000AF3
000000ADE0
00000AB8C0
0000AB0B90
000BB00E60
00BB002F20
0BA0005E00
8FFFFFFFF8
000000B800
000000E500
000003F200
ENDCHAR
STARTCHAR five
ENCODING 53
SWIDTH 600 0
DWIDTH 11 0
BBX 10 11 0 0
BITMAP
000BFFFFF9
000F400000
004E000000
008B000000
00CCCEE910
0096214E90
00000008E0
00000007E0
1400000C90
4F8213BD10
03AEFD8100
ENDCHAR
STARTCHAR six
ENCODING 54
SWIDTH 600 0
DWIDTH 11 0
BBX 9 11 1 0
BITMAP
0005BEEB30
00AD5128B0
08C1000000
2F30000000
7C2AEEA200
ADB412CC00
CA00004F10
C800003F10
9C00008C00
2E8127E300
02BEEA2000
ENDCHAR
STARTCHAR seven
ENCODING 55
SWIDTH 600 0
DWIDTH 11 0
BBX 9 11 2 0
BITMAP
DFFFFFFF40
000002D600
00001D6000
0000C80000
0007C00000
002F400000
009C000000
02F5000000
07E0000000
0CA0000000
1F60000000
ENDCHAR
STARTCHAR eight
ENCODING 56
SWIDTH 600 0
DWIDTH 11 0
BBX 9 11 1 0
BITMAP
0029DEC500
01DA215E40
03F1000B80
01D4000D60
005E61AE10
09FAEFC300
7E4018B100
C800009A00
C700008C00
6E5116E700
06CEEB5000
ENDCHAR
STARTCHAR nine
ENCODING 57
SWIDTH 600 0
DWIDTH 11 0
BBX 10 11 0 0
BITMAP
0003BEEA10
005E612AD1
01E60001E6
04F10000B9
04F10001D9
01EA115BD7
003CED82F4
00000007D0
0000002E50
1D6116E800
04CFEB4000
ENDCHAR
STARTCHAR colon
ENCODING 58
SWIDTH 600 0
DWIDTH 11 0
BBX 5 9 3 0
BITMAP
02CD10
08FF20
05E900
000000
000000
000000
4E9000
CFD000
8E5000
ENDCHAR
STARTCHAR semicolon
ENCODING 59
SWIDTH 600 0
DWIDTH 11 0
BBX 7 13 1 -4
BITMAP
0002CD10
0008FF20
0005E900
00000000
00000000
00000000
003DB000
009FF200
006FF100
0008C000
002E5000
05E70000
3B400000
ENDCHAR
STARTCHAR less
ENCODING 60
SWIDTH 600 0
DWIDTH 11 0
BBX 7 9 2 1
BITMAP
000003A0
00019C40
006D8000
3CB20000
CB000000
3CB20000
006D8000
00019C40
000003A0
ENDCHAR
STARTCHAR equal
ENCODING 61
SWIDTH 600 0
DWIDTH 11 0
BBX 9 5 1 3
BITMAP
7FFFFFFF40
0000000000
0000000000
0000000000
7FFFFFFF40
ENDCHAR
STARTCHAR greater
ENCODING 62
SWIDTH 600 0
DWIDTH 11 0
BBX 8 9 1 1
BITMAP
1A200000
06D70000
0019D400
00004DA2
000001D9
00004DA2
0019D400
05D70000
1A200000
ENDCHAR
STARTCHAR question
ENCODING 63
SWIDTH 600 0
DWIDTH 11 0
BBX 7 12 3 0
BITMAP
07DFD700
9B206F30
10002F30
0001C900
005D7000
05D30000
0C600000
00000000
00000000
8E400000
FF600000
CD100000
ENDCHAR
STARTCHAR at
ENCODING 64
SWIDTH 600 0
DWIDTH 11 0
BBX 11 14 0 -3
BITMAP
00005BEEC300
000AD5116E10
009B10000B30
04D100000C30
0B60038BEF10
1E108D734C00
5B02E1007900
7904E217E600
8800AED6A300
7A0000000000
5D0000000000
1E5000000000
06E611580000
005CEEA30000
ENDCHAR
STARTCHAR A
ENCODING 65
SWIDTH 600 0
DWIDTH 11 0
BBX 10 12 -1 0
BITMAP
0000004FA0
000000CBC0
000005D4D0
00000D53F0
00006D01F2
0001D500F4
0007C000E6
001EFFFFF8
008B0000B9
02E400009B
09C000008D
2F5000007F
ENDCHAR
STARTCHAR B
ENCODING 66
SWIDTH 600 0
DWIDTH 11 0
BBX 10 12 0 0
BITMAP
000FFFED70
003F3015E8
006F0000AC
009C0000BA
00C90006E3
00EDBBDB20
03F7457E70
06F10004F3
09D00001F5
0CA00005F2
0E70026E80
3FFFFDB500
ENDCHAR
STARTCHAR C
ENCODING 67
SWIDTH 600 0
DWIDTH 11 0
BBX 10 12 1 0
BITMAP
00018DFD60
003E9215E2
02E8000010
0AC0000000
2F50000000
6F10000000
8D00000000
9D00000000
7F00000000
3F50000000
09E5118A00
007DFE9200
ENDCHAR
STARTCHAR D
ENCODING 68
SWIDTH 600 0
DWIDTH 11 0
BBX 10 12 0 0
BITMAP
005FFFD910
008C014DD2
00BA0001E9
00E700009E
02F400007F
05F100007F
08D000009D
0BA00000C9
0E700004F3
2F40001DA0
5F2016EB10
8FFFEB5000
ENDCHAR
STARTCHAR E
ENCODING 69
SWIDTH 600 0
DWIDTH 11 0
BBX 10 12 1 0
BITMAP
00AFFFFFF9
00D7000000
01F5000000
04F2000000
07E0000000
0AFFFFFA00
0D80000000
1F50000000
3F20000000
6F00000000
9C00000000
CFFFFFFA00
ENDCHAR
STARTCHAR F
ENCODING 70
SWIDTH 600 0
DWIDTH 11 0
BBX 10 12 1 0
BITMAP
005FFFFFFD
008D000000
00BA000000
00E8000000
02F6000000
05F3000000
07FFFFFC00
0AC0000000
0D90000000
1F50000000
4F20000000
7E00000000
ENDCHAR
STARTCHAR G
ENCODING 71
SWIDTH 600 0
DWIDTH 11 0
BBX 10 12 1 0
BITMAP
0003AEFC40
007E7217E1
05F4000010
1E80000000
6F10000000
AB00000000
D9001FFFA0
D800000D70
CA00001F40
7F10004F10
1DC303BC00
029EFD8100
ENDCHAR
STARTCHAR H
ENCODING 72
SWIDTH 600 0
DWIDTH 11 0
BBX 11 12 0 0
BITMAP
006F00000E70
009C00002F40
00C900005F10
00F600008D00
03F30000BA00
06FFFFFFF700
09B00002F400
0C800005F200
0F600008E000
3F30000BB000
6F00000D8000
9C00001F5000
ENDCHAR
STARTCHAR I
ENCODING 73
SWIDTH 600 0
DWIDTH 11 0
BBX 11 12 0 0
BITMAP
002FFFFFFF30
000006F00000
000009C00000
00000C900000
00000E600000
00002F400000
00005F100000
00008D000000
0000BA000000
0000E7000000
0002F4000000
4FFFFFFF1000
ENDCHAR
STARTCHAR J
ENCODING 74
SWIDTH 600 0
DWIDTH 11 0
BBX 10 12 0 0
BITMAP
000BFFFFF9
00000000F6
00000003F3
00000006F1
00000009C0
0000000C90
0000000E60
0000002F30
0000006E00
030000C900
5E5129E100
06CFEA2000
ENDCHAR
STARTCHAR K
ENCODING 75
SWIDTH 600 0
DWIDTH 11 0
BBX 11 12 0 0
BITMAP
000F60002D90
003F3002D900
006F002D9000
009C02D90000
00C92D900000
00E8DF800000
03FF88E00000
06F802F60000
08D000BC0000
0BA0004F4000
0E70000DA000
2F400006F200
ENDCHAR
STARTCHAR L
ENCODING 76
SWIDTH 600 0
DWIDTH 11 0
BBX 9 12 1 0
BITMAP
000E700000
002F400000
005F100000
008D000000
00BA000000
00E7000000
02F4000000
05F1000000
08E0000000
0BB0000000
0E80000000
2FFFFFFF20
ENDCHAR
STARTCHAR M
ENCODING 77
SWIDTH 600 0
DWIDTH 11 0
BBX 11 12 0 0
BITMAP
007F60005F80
00AE8000DE50
00DB9007CF20
01F8B01E8E00
04F4D08A8B00
07D2F1E3B800
0AA0F8A0E500
0D70DE22F200
1F408705E000
4F100008B000
7D00000B8000
AA00000E5000
ENDCHAR
STARTCHAR N
ENCODING 78
SWIDTH 600 0
DWIDTH 11 0
BBX 11 12 0 0
BITMAP
004F60000E60
007FB0002F30
00AAF1005F10
00D5D5007C00
01F39A00A900
04F15E00D700
07D00E41F400
0AA00A94F100
0D7005D6D000
1F4001FAA000
4F1000BF7000
7D00006F4000
ENDCHAR
STARTCHAR O
ENCODING 79
SWIDTH 600 0
DWIDTH 11 0
BBX 11 12 0 0
BITMAP
00018DFC5000
002DA216F500
00CA00009C00
06F200005F20
0CB000004F30
1F6000004F20
3F3000007E00
4F300000CB00
2F400002F500
0D80000BC000
05E512AD2000
006DFD810000
ENDCHAR
STARTCHAR P
ENCODING 80
SWIDTH 600 0
DWIDTH 11 0
BBX 10 12 1 0
BITMAP
00CFFFDA20
00F5003BD1
03F30003F4
06F00003F4
09C00008E1
0C90128F60
0FFFEDA300
3F30000000
6F00000000
9C00000000
C900000000
E600000000
ENDCHAR
STARTCHAR Q
ENCODING 81
SWIDTH 600 0
DWIDTH 11 0
BBX 11 15 0 -3
BITMAP
00018DFC5000
002DA216F500
00CA00009D00
06F200005F10
0CB000004F30
1F6000004F20
3F3000007F00
4F300000CB00
2F400002F500
0E80000BC000
07E512AD2000
007DFE910000
0002F4000000
0000AD302000
000018EFC000
ENDCHAR
STARTCHAR R
ENCODING 82
SWIDTH 600 0
DWIDTH 11 0
BBX 10 12 0 0
BITMAP
002FFFED70
005F1015E8
008D00009D
00BB00009D
00E80001D8
01F5014CC1
04FFFFD710
07E00CA000
0AB006F100
0D8001E700
1F50009D00
4F20003F50
ENDCHAR
STARTCHAR S
ENCODING 83
SWIDTH 600 0
DWIDTH 11 0
BBX 10 12 0 0
BITMAP
00029DEC60
001DA215E6
005F100020
006F200000
001EC20000
0003DE8000
000018FC10
0000004F70
0000000BA0
0700000D80
1DB302AD10
019DFD9200
ENDCHAR
STARTCHAR T
ENCODING 84
SWIDTH 600 0
DWIDTH 11 0
BBX 11 12 1 0
BITMAP
2FFFFFFFFF20
00006F000000
00009C000000
0000C9000000
0000F6000000
0003F3000000
0006F1000000
0009C0000000
000BA0000000
000E70000000
002F40000000
005F10000000
ENDCHAR
STARTCHAR U
ENCODING 85
SWIDTH 600 0
DWIDTH 11 0
BBX 10 12 1 0
BITMAP
06F00000D7
09C00001F4
0C900004F1
0F600007D0
3F30000AA0
6F00000D70
9C00001F40
B900004F10
C800008C00
AB0001E600
4F612BC000
05CED91000
ENDCHAR
STARTCHAR V
ENCODING 86
SWIDTH 600 0
DWIDTH 11 0
BBX 10 12 2 0
BITMAP
BA000006F2
AB00000D90
8D00006E10
7E0000D800
5F0006E100
4F100D7000
2F306E1000
1F40D60000
0E56D00000
0D6D600000
0BDD000000
0AF5000000
ENDCHAR
STARTCHAR W
ENCODING 87
SWIDTH 600 0
DWIDTH 11 0
BBX 11 12 1 0
BITMAP
5F0000000E60
6E0000003F20
7D0000008C00
8C008600C700
9A02FA02F300
A909AB06D000
B81E4C0A9000
B77A2D0E4000
C6D41E4E0000
D9C00F9A0000
ED600ED50000
FE100DF10000
ENDCHAR
STARTCHAR X
ENCODING 88
SWIDTH 600 0
DWIDTH 11 0
BBX 11 12 0 0
BITMAP
007F10002E70
001F7000CA00
000AC009D100
0004F35F3000
0000D9E60000
00008FA00000
0001DF800000
000BB7E00000
007E22F50000
03F500BB0000
1D90005F2000
BC00000E8000
ENDCHAR
STARTCHAR Y
ENCODING 89
SWIDTH 600 0
DWIDTH 11 0
BBX 10 12 2 0
BITMAP
D8000008D1
8D00004F30
4F2001D800
0E7009C000
09B04E2000
04F1D60000
00EBB00000
00AE100000
00BA000000
00E7000000
02F4000000
05F1000000
ENDCHAR
STARTCHAR Z
ENCODING 90
SWIDTH 600 0
DWIDTH 11 0
BBX 11 12 0 0
BITMAP
009FFFFFFF60
00000001DB00
0000000BD100
0000007F3000
000004F60000
00002EA00000
0000CC100000
0009E2000000
005F50000000
02E800000000
1DB000000000
8FFFFFFFD000
ENDCHAR
STARTCHAR bracketleft
ENCODING 91
SWIDTH 600 0
DWIDTH 11 0
BBX 9 16 2 -3
BITMAP
000AFFFF30
000D300000
001F000000
004C000000
0079000000
00A6000000
00D3000000
01F0000000
04C0000000
0790000000
0A60000000
0D30000000
1F10000000
3C00000000
6900000000
9FFFF40000
ENDCHAR
STARTCHAR backslash
ENCODING 92
SWIDTH 600 0
DWIDTH 11 0
BBX 5 16 3 -3
BITMAP
7A0000
5D0000
2F0000
0E3000
0C5000
098000
07A000
04D000
02F100
00E300
00B600
009800
006B00
004E00
001F10
000E40
ENDCHAR
STARTCHAR bracketright
ENCODING 93
SWIDTH 600 0
DWIDTH 11 0
BBX 9 16 0 -3
BITMAP
000BFFFF30
0000001E00
0000004C00
0000007900
000000A600
000000D300
000001F000
000004C000
0000079000
00000A6000
00000D4000
00001F1000
00004D0000
00007A0000
0000A70000
AFFFF40000
ENDCHAR
STARTCHAR asciicircum
ENCODING 94
SWIDTH 600 0
DWIDTH 11 0
BBX 7 7 2 5
BITMAP
006F3000
00CC9000
03E2E100
0990C600
1E306C00
6C001E30
C7000A90
ENDCHAR
STARTCHAR underscore
ENCODING 95
SWIDTH 600 0
DWIDTH 11 0
BBX 10 1 -1 -2
BITMAP
6FFFFFFFF4
ENDCHAR
STARTCHAR grave
ENCODING 96
SWIDTH 600 0
DWIDTH 11 0
BBX 4 4 4 10
BITMAP
1B20
1DB0
03F5
0068
ENDCHAR
STARTCHAR a
ENCODING 97
SWIDTH 600 0
DWIDTH 11 0
BBX 10 9 0 0
BITMAP
0004CEE85D
007F6129EA
03F50000E7
0AC00001F4
0E700004F1
1F600007D0
0E70000BA0
0AE314AE70
01AEE92D40
ENDCHAR
STARTCHAR b
ENCODING 98
SWIDTH 600 0
DWIDTH 11 0
BBX 10 13 0 0
BITMAP
000D700000
001F400000
004F100000
007D000000
00AA4BED50
00DD8218F3
01F50000E8
04F10000CA
07D00000D8
0AA00002F5
0D80000AD0
1FD512AE30
4E2BEEA200
ENDCHAR
STARTCHAR c
ENCODING 99
SWIDTH 600 0
DWIDTH 11 0
BBX 9 9 1 0
BITMAP
0029DFD810
04EA203C80
1E80000100
7E10000000
BA00000000
CA00000000
9D10000100
2EA203B800
02ADFC7000
ENDCHAR
STARTCHAR d
ENCODING 100
SWIDTH 600 0
DWIDTH 11 0
BBX 11 13 0 0
BITMAP
000000000AA0
000000000D70
000000001F40
000000004F10
0004CEE87D00
007F6119EA00
03F50000E700
0AC00001F400
0E700004F100
1F600007E000
0E70000BB000
0AE314AE8000
01AEE92D5000
ENDCHAR
STARTCHAR e
ENCODING 101
SWIDTH 600 0
DWIDTH 11 0
BBX 9 9 1 0
BITMAP
003AEEB200
05F821AD00
2F80001F50
8E10000D60
CFFFFFFF50
C800000000
AB00000000
3F8114C600
04CEEC6000
ENDCHAR
STARTCHAR f
ENCODING 102
SWIDTH 600 0
DWIDTH 11 0
BBX 10 13 2 0
BITMAP
00005CED91
0005F61270
000C900000
001F400000
CEFFFFFB00
008D000000
00AA000000
00D7000000
01F4000000
04F1000000
07E0000000
0AB0000000
0D80000000
ENDCHAR
STARTCHAR g
ENCODING 103
SWIDTH 600 0
DWIDTH 11 0
BBX 10 13 0 -4
BITMAP
0004CED84D
006F612AEA
03F60000E7
09D00001F4
0D800004F1
0F600007D0
0E80000BA0
09E413AE80
019DEA2E50
0000003F10
0000009B00
593128E300
29EFDA2000
ENDCHAR
STARTCHAR h
ENCODING 104
SWIDTH 600 0
DWIDTH 11 0
BBX 10 13 0 0
BITMAP
000D700000
001F400000
004F100000
007E000000
00AB18DEB1
00DAA414F6
01FA0000E8
04F10001F6
07D00003F3
0AA00006F0
0D700009C0
1F40000C90
4F20000F60
ENDCHAR
STARTCHAR i
ENCODING 105
SWIDTH 600 0
DWIDTH 11 0
BBX 7 13 2 0
BITMAP
0008E400
000AE300
00000000
00000000
FFFF8000
001F5000
004F2000
007E0000
00AA0000
00E70000
01F50000
00E91320
005DFD50
ENDCHAR
STARTCHAR j
ENCODING 106
SWIDTH 600 0
DWIDTH 11 0
BBX 10 17 -1 -4
BITMAP
00000004E8
00000006E6
0000000000
0000000000
0008FFFFD0
0000000BA0
0000000D70
0000001F50
0000004F20
0000007E00
000000AB00
000000D800
000001F500
000004F200
000009C000
07216F4000
1AEEC40000
ENDCHAR
STARTCHAR k
ENCODING 107
SWIDTH 600 0
DWIDTH 11 0
BBX 11 13 0 0
BITMAP
000AB0000000
000D80000000
001F50000000
004F20000000
007E0001AD20
00AB002CC100
00D803DA1000
01F55EA00000
04F9FCD00000
06FE41E50000
09D2008D0000
0C80001E6000
1F500008D000
ENDCHAR
STARTCHAR l
ENCODING 108
SWIDTH 600 0
DWIDTH 11 0
BBX 7 13 2 0
BITMAP
5FFFE000
000AB000
000D8000
001F5000
004F1000
007D0000
00AA0000
00E70000
02F40000
05F10000
07E00000
05F31400
009EEB20
ENDCHAR
STARTCHAR m
ENCODING 109
SWIDTH 600 0
DWIDTH 11 0
BBX 11 9 0 0
BITMAP
05C5DE28EC00
08E71ED45F30
0BA00E604F20
0E602F207E00
2F305E00AB00
5F108B00D800
8D00B801F500
BA00E604F200
E702F307E000
ENDCHAR
STARTCHAR n
ENCODING 110
SWIDTH 600 0
DWIDTH 11 0
BBX 10 9 0 0
BITMAP
00B718DEB1
00E8B414F6
01FA0000E8
04F10001F6
07D00003F3
0AA00006F0
0D700009C0
1F40000C90
4F20000F60
ENDCHAR
STARTCHAR o
ENCODING 111
SWIDTH 600 0
DWIDTH 11 0
BBX 10 9 0 0
BITMAP
0005CEE910
009E512BC0
06F30002F4
0D900000E7
2F400000E7
2F400003F3
0E70000CB0
07E513BD20
007DFD8100
ENDCHAR
STARTCHAR p
ENCODING 112
SWIDTH 600 0
DWIDTH 11 0
BBX 10 13 0 -4
BITMAP
00B73BED50
00DC8218F3
01F60000E8
04F10000CA
07D00000D8
0AB00002F5
0D80000AD0
1FD512AE30
4F3BEEA200
6D00000000
9B00000000
C800000000
F600000000
ENDCHAR
STARTCHAR q
ENCODING 113
SWIDTH 600 0
DWIDTH 11 0
BBX 10 13 0 -4
BITMAP
0004CEE84D
007F6129EA
03F50000E7
0AC00001F4
0E700004F1
1F600007E0
0E70000BB0
0AE314BE80
01AEE92F50
0000003F20
0000006E00
0000009B00
000000C800
ENDCHAR
STARTCHAR r
ENCODING 114
SWIDTH 600 0
DWIDTH 11 0
BBX 9 9 1 0
BITMAP
009807DFA0
00C6971120
00FB300000
03F4000000
06D0000000
09B0000000
0C80000000
0E60000000
2F30000000
ENDCHAR
STARTCHAR s
ENCODING 115
SWIDTH 600 0
DWIDTH 11 0
BBX 9 9 1 0
BITMAP
007DFEA300
07D3029E10
0AB0000100
05FA300000
004BFC5000
000029F400
200000D800
BC4115E400
18CFEC5000
ENDCHAR
STARTCHAR t
ENCODING 116
SWIDTH 600 0
DWIDTH 11 0
BBX 9 12 1 0
BITMAP
0003E00000
0007B00000
000B800000
8EFFFFFFA0
003F200000
007E000000
00AB000000
00D8000000
01F5000000
02F5000000
00EA115300
004CFDB400
ENDCHAR
STARTCHAR u
ENCODING 117
SWIDTH 600 0
DWIDTH 11 0
BBX 9 9 1 0
BITMAP
0D800009C0
1F50000C90
4F20000E60
7E00002F30
AB00005F00
D800008C00
F60003E900
DB1288D600
4DEB40E400
ENDCHAR
STARTCHAR v
ENCODING 118
SWIDTH 600 0
DWIDTH 11 0
BBX 10 9 1 0
BITMAP
5F100003F3
2F40000C90
0D70006E10
0AA001D600
07D008C000
03F12F3000
00F4AA0000
00CAE20000
008F700000
ENDCHAR
STARTCHAR w
ENCODING 119
SWIDTH 600 0
DWIDTH 11 0
BBX 12 9 0 0
BITMAP
2F30075005E1
2F303FA00B90
2F309BA02F30
1F31E6B08C00
1F47A5C0D600
1F4D44C4E100
0F7D04CA8000
0FD704DE2000
0FF103FB0000
ENDCHAR
STARTCHAR x
ENCODING 120
SWIDTH 600 0
DWIDTH 11 0
BBX 10 9 0 0
BITMAP
009C0002E8
002F501D90
0008C0BA00
0001EBC100
0000CF2000
000ABD8000
009D15E200
07E300C900
6F40004F30
ENDCHAR
STARTCHAR y
ENCODING 121
SWIDTH 600 0
DWIDTH 11 0
BBX 12 13 -1 -4
BITMAP
005F000004F3
001F30000C90
000C70006E10
0009A001E600
0005E008C000
0001F22F4000
0000D5AA0000
00009AE20000
00005F700000
00009D000000
0003F4000000
113D80000000
8FD700000000
ENDCHAR
STARTCHAR z
ENCODING 122
SWIDTH 600 0
DWIDTH 11 0
BBX 10 9 0 0
BITMAP
00DFFFFFF8
0000001CB0
000001CC10
00000BC100
0000AD2000
0009D20000
009E300000
08E3000000
4FFFFFFF70
ENDCHAR
STARTCHAR braceleft
ENCODING 123
SWIDTH 600 0
DWIDTH 11 0
BBX 9 16 2 -3
BITMAP
00004CFF60
0001E71000
0005C00000
0008900000
000B600000
000D300000
028D000000
DFC1000000
03D5000000
00A6000000
00C4000000
01F0000000
05B0000000
0890000000
08C1000000
02CFF70000
ENDCHAR
STARTCHAR bar
ENCODING 124
SWIDTH 600 0
DWIDTH 11 0
BBX 2 18 4 -5
BITMAP
4F
4F
4F
4F
4F
4F
4F
4F
4F
4F
4F
4F
4F
4F
4F
4F
4F
4F
ENDCHAR
STARTCHAR braceright
ENCODING 125
SWIDTH 600 0
DWIDTH 11 0
BBX 9 16 0 -3
BITMAP
000CFEA000
000003F300
000000E100
000003D000
0000078000
00000B5000
00000B9200
000004EF80
00002E6100
0000790000
0000A60000
0000D40000
0000F20000
0003E00000
002C900000
BFEA100000
ENDCHAR
STARTCHAR asciitilde
ENCODING 126
SWIDTH 600 0
DWIDTH 11 0
BBX 9 2 1 5
BITMAP
09ED822C20
5A139EE700
ENDCHAR
STARTCHAR uni00A0
ENCODING 160
SWIDTH 600 0
DWIDTH 11 0
BBX 1 1 0 0
BITMAP
00
ENDCHAR
STARTCHAR exclamdown
ENCODING 161
SWIDTH 600 0
DWIDTH 11 0
BBX 4 13 3 -4
BITMAP
01DC
07FF
04E8
0000
0000
0690
0970
0D40
1F20
5E00
8C00
C900
E700
ENDCHAR
STARTCHAR cent
ENCODING 162
SWIDTH 600 0
DWIDTH 11 0
BBX 9 13 1 -1
BITMAP
0000067000
0000094000
0006CFE810
00BD4D2910
07E13A0000
0E80670000
2F40850000
3F30B20000
1F50D00000
0AD4C3A200
019EFC7000
0008500000
000B200000
ENDCHAR
STARTCHAR sterling
ENCODING 163
SWIDTH 600 0
DWIDTH 11 0
BBX 10 11 0 0
BITMAP
00004BEEA2
0003F711AB
000AB00000
000B800000
000A900000
08EFFFFF00
0008B00000
000A900000
002E300000
03D5000000
6FFFFFFF50
ENDCHAR
STARTCHAR currency
ENCODING 164
SWIDTH 600 0
DWIDTH 11 0
BBX 11 9 0 1
BITMAP
009200000930
00AC9EE9BB10
003F822CC000
00B90006E000
00F40006E000
01F4000B9000
00EB129F1000
1BBAED9D7000
49000003B000
ENDCHAR
STARTCHAR yen
ENCODING 165
SWIDTH 600 0
DWIDTH 11 0
BBX 10 11 1 0
BITMAP
08C00001D8
02F2000A90
00A8006B00
004D03B100
000C3A1000
9FFFDFFF50
0008C00000
FFFFFFFE00
000E700000
001F400000
004F200000
ENDCHAR
STARTCHAR brokenbar
ENCODING 166
SWIDTH 600 0
DWIDTH 11 0
BBX 2 18 4 -5
BITMAP
4F
4F
4F
4F
4F
4F
4F
3E
00
00
3E
4F
4F
4F
4F
4F
4F
4F
ENDCHAR
STARTCHAR section
ENCODING 167
SWIDTH 600 0
DWIDTH 11 0
BBX 8 13 1 -1
BITMAP
0006DFB2
003F417B
004E0000
008F9100
09D6CD40
0F4007E4
0E60009B
06E7007C
004DC7E7
0001AF60
10002F20
9B218E00
19EEB300
ENDCHAR
STARTCHAR dieresis
ENCODING 168
SWIDTH 600 0
DWIDTH 11 0
BBX 6 2 4 11
BITMAP
B906E1
C807D1
ENDCHAR
STARTCHAR copyright
ENCODING 169
SWIDTH 600 0
DWIDTH 11 0
BBX 11 12 0 0
BITMAP
00018DFD8000
004D7203B900
02D200000D20
0A406CE90850
2B07C3170670
571F30000660
753E00000940
851F41610C00
7706EE916800
2C000004D100
0A92028D2000
018EFD810000
ENDCHAR
STARTCHAR ordfeminine
ENCODING 170
SWIDTH 600 0
DWIDTH 11 0
BBX 7 6 3 7
BITMAP
03CEAC20
2E515E00
98005B00
C5008800
B914D500
3DE89200
ENDCHAR
STARTCHAR guillemotleft
ENCODING 171
SWIDTH 600 0
DWIDTH 11 0
BBX 9 7 1 1
BITMAP
001A200930
02C801B900
3D902DB000
9C008E1000
5F204F4000
0AA008C000
01B100B200
ENDCHAR
STARTCHAR logicalnot
ENCODING 172
SWIDTH 600 0
DWIDTH 11 0
BBX 9 5 1 1
BITMAP
7FFFFFFF40
0000000D40
0000000D40
0000000D40
0000000D40
ENDCHAR
STARTCHAR uni00AD
ENCODING 173
SWIDTH 600 0
DWIDTH 11 0
BBX 9 1 1 5
BITMAP
7FFFFFFF40
ENDCHAR
STARTCHAR registered
ENCODING 174
SWIDTH 600 0
DWIDTH 11 0
BBX 8 7 2 6
BITMAP
002BEE80
03C512A6
0B1BFA1A
190FF71A
19477466
0C5127B0
02BED810
ENDCHAR
STARTCHAR macron
ENCODING 175
SWIDTH 600 0
DWIDTH 11 0
BBX 5 1 4 11
BITMAP
BFFFD0
ENDCHAR
STARTCHAR degree
ENCODING 176
SWIDTH 600 0
DWIDTH 11 0
BBX 5 4 4 8
BITMAP
2BEC20
B50870
E21B40
7ED700
ENDCHAR
STARTCHAR plusminus
ENCODING 177
SWIDTH 600 0
DWIDTH 11 0
BBX 9 10 1 0
BITMAP
0002E00000
0002E00000
0002E00000
7FFFFFFF40
0002E00000
0002E00000
0002E00000
0002E00000
0000000000
7FFFFFFF40
ENDCHAR
STARTCHAR two.sups
ENCODING 178
SWIDTH 600 0
DWIDTH 11 0
BBX 6 7 3 7
BITMAP
01AEC2
0561A9
000087
0002D1
004C20
08B100
9FFFF0
ENDCHAR
STARTCHAR three.sups
ENCODING 179
SWIDTH 600 0
DWIDTH 11 0
BBX 6 7 3 7
BITMAP
02BEC2
0241A9
0003C6
00AF70
0004E1
7813E1
1AED60
ENDCHAR
STARTCHAR acute
ENCODING 180
SWIDTH 600 0
DWIDTH 11 0
BBX 4 4 5 10
BITMAP
0049
03EB
3E90
6700
ENDCHAR
STARTCHAR uni00B5
ENCODING 181
SWIDTH 600 0
DWIDTH 11 0
BBX 11 12 -1 -3
BITMAP
000D800009B0
001F50000C80
004F20000F50
007E00003F20
00AB00006E00
00D800008B00
01F70003E700
04FB1279C600
07CAED60AF00
0A9000000000
0D6000000000
1F4000000000
ENDCHAR
STARTCHAR paragraph
ENCODING 182
SWIDTH 600 0
DWIDTH 11 0
BBX 9 13 1 -1
BITMAP
0029DF6AA0
04EFFF3D70
0DFFFF2F40
4FFFFC4F10
5FFFF97D00
3FFFF6AA00
08FFF3E700
0049A2F400
000005F100
000008D000
00000BA000
00000E7000
00002F4000
ENDCHAR
STARTCHAR periodcentered
ENCODING 183
SWIDTH 600 0
DWIDTH 11 0
BBX 4 3 3 5
BITMAP
09E4
2FF8
1DC2
ENDCHAR
STARTCHAR cedilla
ENCODING 184
SWIDTH 600 0
DWIDTH 11 0
BBX 5 5 1 -5
BITMAP
006700
01EB00
004F20
017D00
2EA200
ENDCHAR
STARTCHAR one.sups
ENCODING 185
SWIDTH 600 0
DWIDTH 11 0
BBX 6 7 3 7
BITMAP
029DB0
000980
000C50
000F20
003E00
005B00
BFFFF9
ENDCHAR
STARTCHAR ordmasculine
ENCODING 186
SWIDTH 600 0
DWIDTH 11 0
BBX 7 6 3 7
BITMAP
02BED400
1E616E00
8A001F10
A6004E00
8B13D600
1BED6000
ENDCHAR
STARTCHAR guillemotright
ENCODING 187
SWIDTH 600 0
DWIDTH 11 0
BBX 9 7 0 1
BITMAP
00B100B200
009A008C00
002F601E80
000CA00AC0
009E307E40
07D206D300
2B101B2000
ENDCHAR
STARTCHAR onequarter
ENCODING 188
SWIDTH 600 0
DWIDTH 11 0
BBX 12 11 -1 0
BITMAP
009DA000003A
000A600003D4
000D30004C20
001E0002B100
005C00000000
000000009200
000010059000
0006902C1600
008A00B32C00
0AA004FFFF70
490000008600
ENDCHAR
STARTCHAR onehalf
ENCODING 189
SWIDTH 600 0
DWIDTH 11 0
BBX 12 11 -1 0
BITMAP
009DA000003A
000A600003D4
000D30004C20
001E0002B100
005C00000000
0000001AEC10
000010461C50
000690001D20
008A0001B600
0AA0003C5000
490002FFFF40
ENDCHAR
STARTCHAR threequarters
ENCODING 190
SWIDTH 600 0
DWIDTH 11 0
BBX 12 12 -1 0
BITMAP
008ED3000000
0161A800003A
0002C40003D4
004F90004C20
0822E302B100
06EE90000000
000000009200
000010059000
0006902C1600
008A00B32C00
0AA004FFFF70
490000008600
ENDCHAR
STARTCHAR questiondown
ENCODING 191
SWIDTH 600 0
DWIDTH 11 0
BBX 7 13 1 -4
BITMAP
00009E30
0001FF50
0000DC10
00000000
00000000
0000F300
0008C000
009E2000
1CC10000
9C000000
E7000100
CB117D10
3BEEA200
ENDCHAR
STARTCHAR Agrave
ENCODING 192
SWIDTH 600 0
DWIDTH 11 0
BBX 10 16 -1 0
BITMAP
000000B400
0000007E30
00000005A0
0000000000
0000004FA0
000000CBC0
000005D4D0
00000D53F0
00006D01F2
0001D500F4
0007C000E6
001EFFFFF8
008B0000B9
02E400009B
09C000008D
2F5000007F
ENDCHAR
STARTCHAR Aacute
ENCODING 193
SWIDTH 600 0
DWIDTH 11 0
BBX 11 16 -1 0
BITMAP
000000001B20
00000004EB20
0000000B5000
000000000000
0000004FA000
000000CBC000
000005D4D000
00000D53F000
00006D01F200
0001D500F400
0007C000E600
001EFFFFF800
008B0000B900
02E400009B00
09C000008D00
2F5000007F00
ENDCHAR
STARTCHAR Acircumflex
ENCODING 194
SWIDTH 600 0
DWIDTH 11 0
BBX 11 15 -1 0
BITMAP
0000002EF500
000002D86E10
000009500850
0000004FA000
000000CBC000
000005D4D000
00000D53F000
00006D01F200
0001D500F400
0007C000E600
001EFFFFF800
008B0000B900
02E400009B00
09C000008D00
2F5000007F00
ENDCHAR
STARTCHAR Atilde
ENCODING 195
SWIDTH 600 0
DWIDTH 11 0
BBX 12 16 -1 0
BITMAP
000000210010
000008DE71D3
00001C12CE70
000000000000
0000004FA000
000000CBC000
000005D4D000
00000D53F000
00006D01F200
0001D500F400
0007C000E600
001EFFFFF800
008B0000B900
02E400009B00
09C000008D00
2F5000007F00
ENDCHAR
STARTCHAR Adieresis
ENCODING 196
SWIDTH 600 0
DWIDTH 11 0
BBX 11 15 -1 0
BITMAP
000004E10C50
000005D10D40
000000000000
0000004FA000
000000CBC000
000005D4D000
00000D53F000
00006D01F200
0001D500F400
0007C000E600
001EFFFFF800
008B0000B900
02E400009B00
09C000008D00
2F5000007F00
ENDCHAR
STARTCHAR Aring
ENCODING 197
SWIDTH 600 0
DWIDTH 11 0
BBX 10 16 -1 0
BITMAP
0000001BE6
000000782C
000000863B
0000003DD3
0000004FA0
000000CBC0
000005D4D0
00000D53F0
00006D01F2
0001D500F4
0007C000E6
001EFFFFF8
008B0000B9
02E400009B
09C000008D
2F5000007F
ENDCHAR
STARTCHAR AE
ENCODING 198
SWIDTH 600 0
DWIDTH 11 0
BBX 13 12 -1 0
BITMAP
0000004FFFFF90
000000CBE00000
000006C8B00000
00001E3B800000
0000990E500000
0003E12FFFD000
000C605E000000
006FFFFB000000
01E300B8000000
09A000E6000000
3F2002F3000000
C90004FFFF9000
ENDCHAR
STARTCHAR Ccedilla
ENCODING 199
SWIDTH 600 0
DWIDTH 11 0
BBX 10 17 1 -5
BITMAP
00018DFD60
003E9215E2
02E8000010
0AC0000000
2F50000000
6F10000000
8D00000000
9D00000000
7F00000000
3F50000000
09E5118A00
007DFE9200
0006600000
001EB00000
0004F10000
0017C00000
02EA200000
ENDCHAR
STARTCHAR Egrave
ENCODING 200
SWIDTH 600 0
DWIDTH 11 0
BBX 10 16 1 0
BITMAP
00003B1000
00001CB000
000001A500
0000000000
00AFFFFFF9
00D7000000
01F5000000
04F2000000
07E0000000
0AFFFFFA00
0D80000000
1F50000000
3F20000000
6F00000000
9C00000000
CFFFFFFA00
ENDCHAR
STARTCHAR Eacute
ENCODING 201
SWIDTH 600 0
DWIDTH 11 0
BBX 10 16 1 0
BITMAP
00000004A0
0000008F80
000004B200
0000000000
00AFFFFFF9
00D7000000
01F5000000
04F2000000
07E0000000
0AFFFFFA00
0D80000000
1F50000000
3F20000000
6F00000000
9C00000000
CFFFFFFA00
ENDCHAR
STARTCHAR Ecircumflex
ENCODING 202
SWIDTH 600 0
DWIDTH 11 0
BBX 10 15 1 0
BITMAP
000007FD10
00006E4B90
0001B201B1
00AFFFFFF9
00D7000000
01F5000000
04F2000000
07E0000000
0AFFFFFA00
0D80000000
1F50000000
3F20000000
6F00000000
9C00000000
CFFFFFFA00
ENDCHAR
STARTCHAR Edieresis
ENCODING 203
SWIDTH 600 0
DWIDTH 11 0
BBX 10 15 1 0
BITMAP
00009904D1
0000A805D0
0000000000
00AFFFFFF9
00D7000000
01F5000000
04F2000000
07E0000000
0AFFFFFA00
0D80000000
1F50000000
3F20000000
6F00000000
9C00000000
CFFFFFFA00
ENDCHAR
STARTCHAR Igrave
ENCODING 204
SWIDTH 600 0
DWIDTH 11 0
BBX 11 16 0 0
BITMAP
00000B400000
000007E30000
0000005A0000
000000000000
002FFFFFFF30
000006F00000
000009C00000
00000C900000
00000E600000
00002F400000
00005F100000
00008D000000
0000BA000000
0000E7000000
0002F4000000
4FFFFFFF1000
ENDCHAR
STARTCHAR Iacute
ENCODING 205
SWIDTH 600 0
DWIDTH 11 0
BBX 11 16 0 0
BITMAP
00000001B200
0000004EB200
000000B50000
000000000000
002FFFFFFF30
000006F00000
000009C00000
00000C900000
00000E600000
00002F400000
00005F100000
00008D000000
0000BA000000
0000E7000000
0002F4000000
4FFFFFFF1000
ENDCHAR
STARTCHAR Icircumflex
ENCODING 206
SWIDTH 600 0
DWIDTH 11 0
BBX 11 15 0 0
BITMAP
000002EF5000
00002D86E100
000095008500
002FFFFFFF30
000006F00000
000009C00000
00000C900000
00000E600000
00002F400000
00005F100000
00008D000000
0000BA000000
0000E7000000
0002F4000000
4FFFFFFF1000
ENDCHAR
STARTCHAR Idieresis
ENCODING 207
SWIDTH 600 0
DWIDTH 11 0
BBX 11 15 0 0
BITMAP
00004E10C500
00005D10D400
000000000000
002FFFFFFF30
000006F00000
000009C00000
00000C900000
00000E600000
00002F400000
00005F100000
00008D000000
0000BA000000
0000E7000000
0002F4000000
4FFFFFFF1000
ENDCHAR
STARTCHAR Eth
ENCODING 208
SWIDTH 600 0
DWIDTH 11 0
BBX 11 12 0 0
BITMAP
001FFFEA3000
004F113AF400
007D0000BD00
00AB00005F30
00D800003F40
6FFFFD003F40
04F200005F20
07E000008D00
0AB00001E700
0D80000AD100
1F6014CD2000
4FFFEC710000
ENDCHAR
STARTCHAR Ntilde
ENCODING 209
SWIDTH 600 0
DWIDTH 11 0
BBX 11 16 0 0
BITMAP
000002100100
00008DE71D30
0001C12CE700
000000000000
004F60000E60
007FB0002F30
00AAF1005F10
00D5D5007C00
01F39A00A900
04F15E00D700
07D00E41F400
0AA00A94F100
0D7005D6D000
1F4001FAA000
4F1000BF7000
7D00006F4000
ENDCHAR
STARTCHAR Ograve
ENCODING 210
SWIDTH 600 0
DWIDTH 11 0
BBX 11 16 0 0
BITMAP
00000B400000
000007E30000
0000005A0000
000000000000
00018DFC5000
002DA216F500
00CA00009C00
06F200005F20
0CB000004F30
1F6000004F20
3F3000007E00
4F300000CB00
2F400002F500
0D80000BC000
05E512AD2000
006DFD810000
ENDCHAR
STARTCHAR Oacute
ENCODING 211
SWIDTH 600 0
DWIDTH 11 0
BBX 11 16 0 0
BITMAP
00000001B200
0000004EB200
000000B50000
000000000000
00018DFC5000
002DA216F500
00CA00009C00
06F200005F20
0CB000004F30
1F6000004F20
3F3000007E00
4F300000CB00
2F400002F500
0D80000BC000
05E512AD2000
006DFD810000
ENDCHAR
STARTCHAR Ocircumflex
ENCODING 212
SWIDTH 600 0
DWIDTH 11 0
BBX 11 15 0 0
BITMAP
000002EF5000
00002D86E100
000095008500
00018DFC5000
002DA216F500
00CA00009C00
06F200005F20
0CB000004F30
1F6000004F20
3F3000007E00
4F300000CB00
2F400002F500
0D80000BC000
05E512AD2000
006DFD810000
ENDCHAR
STARTCHAR Otilde
ENCODING 213
SWIDTH 600 0
DWIDTH 11 0
BBX 11 16 0 0
BITMAP
000002100100
00008DE71D30
0001C12CE700
000000000000
00018DFC5000
002DA216F500
00CA00009C00
06F200005F20
0CB000004F30
1F6000004F20
3F3000007E00
4F300000CB00
2F400002F500
0D80000BC000
05E512AD2000
006DFD810000
ENDCHAR
STARTCHAR Odieresis
ENCODING 214
SWIDTH 600 0
DWIDTH 11 0
BBX 11 15 0 0
BITMAP
00004E10C500
00005D10D400
000000000000
00018DFC5000
002DA216F500
00CA00009C00
06F200005F20
0CB000004F30
1F6000004F20
3F3000007E00
4F300000CB00
2F400002F500
0D80000BC000
05E512AD2000
006DFD810000
ENDCHAR
STARTCHAR multiply
ENCODING 215
SWIDTH 600 0
DWIDTH 11 0
BBX 7 7 2 2
BITMAP
D4000590
4E405E30
05E8E300
009F6000
05E7E400
5E305E40
C4000590
ENDCHAR
STARTCHAR Oslash
ENCODING 216
SWIDTH 600 0
DWIDTH 11 0
BBX 13 14 -1 -1
BITMAP
00000000000300
000018DFD56E10
0002DA216FE300
000CA0003FD000
006F1002EAF100
00CA001D93F300
01F501CA04F200
03F30AC006E000
04F29D100AB000
02FAE2001F5000
00DE3000AC0000
04EF512AD20000
1E65DFD8100000
03000000000000
ENDCHAR
STARTCHAR Ugrave
ENCODING 217
SWIDTH 600 0
DWIDTH 11 0
BBX 10 16 1 0
BITMAP
0000B40000
00007E3000
000005A000
0000000000
06F00000D7
09C00001F4
0C900004F1
0F600007D0
3F30000AA0
6F00000D70
9C00001F40
B900004F10
C800008C00
AB0001E600
4F612BC000
05CED91000
ENDCHAR
STARTCHAR Uacute
ENCODING 218
SWIDTH 600 0
DWIDTH 11 0
BBX 10 16 1 0
BITMAP
0000001B20
000004EB20
00000B5000
0000000000
06F00000D7
09C00001F4
0C900004F1
0F600007D0
3F30000AA0
6F00000D70
9C00001F40
B900004F10
C800008C00
AB0001E600
4F612BC000
05CED91000
ENDCHAR
STARTCHAR Ucircumflex
ENCODING 219
SWIDTH 600 0
DWIDTH 11 0
BBX 10 15 1 0
BITMAP
00002EF500
0002D86E10
0009500850
06F00000D7
09C00001F4
0C900004F1
0F600007D0
3F30000AA0
6F00000D70
9C00001F40
B900004F10
C800008C00
AB0001E600
4F612BC000
05CED91000
ENDCHAR
STARTCHAR Udieresis
ENCODING 220
SWIDTH 600 0
DWIDTH 11 0
BBX 10 15 1 0
BITMAP
0004E10C50
0005D10D40
0000000000
06F00000D7
09C00001F4
0C900004F1
0F600007D0
3F30000AA0
6F00000D70
9C00001F40
B900004F10
C800008C00
AB0001E600
4F612BC000
05CED91000
ENDCHAR
STARTCHAR Yacute
ENCODING 221
SWIDTH 600 0
DWIDTH 11 0
BBX 10 16 2 0
BITMAP
000003B100
00006F9100
0002C30000
0000000000
D8000008D1
8D00004F30
4F2001D800
0E7009C000
09B04E2000
04F1D60000
00EBB00000
00AE100000
00BA000000
00E7000000
02F4000000
05F1000000
ENDCHAR
STARTCHAR Thorn
ENCODING 222
SWIDTH 600 0
DWIDTH 11 0
BBX 10 12 0 0
BITMAP
000E700000
002F400000
005FFFFD80
008C0015E9
00B900008D
00E700008D
02F40000C9
05F1014BD1
08FFFEC810
0BA0000000
0E70000000
2F40000000
ENDCHAR
STARTCHAR germandbls
ENCODING 223
SWIDTH 600 0
DWIDTH 11 0
BBX 10 13 0 0
BITMAP
00007DFC40
0008D417E1
002F4003F2
007D0008D0
00BA006E30
00E704E300
02F408D000
05F104F800
08D0005EB0
0BA00003F6
0E700000C8
2F409315F3
5F118DEC50
ENDCHAR
STARTCHAR agrave
ENCODING 224
SWIDTH 600 0
DWIDTH 11 0
BBX 10 14 0 0
BITMAP
0000086000
00000AE100
000001D900
0000002B00
0000000000
0004CEE85D
007F6129EA
03F50000E7
0AC00001F4
0E700004F1
1F600007D0
0E70000BA0
0AE314AE70
01AEE92D40
ENDCHAR
STARTCHAR aacute
ENCODING 225
SWIDTH 600 0
DWIDTH 11 0
BBX 10 14 0 0
BITMAP
00000001A1
0000001CD2
000001CC20
000003A100
0000000000
0004CEE85D
007F6129EA
03F50000E7
0AC00001F4
0E700004F1
1F600007D0
0E70000BA0
0AE314AE70
01AEE92D40
ENDCHAR
STARTCHAR acircumflex
ENCODING 226
SWIDTH 600 0
DWIDTH 11 0
BBX 10 13 0 0
BITMAP
000003EF30
00003E68C0
0000B300A3
0000000000
0004CEE85D
007F6129EA
03F50000E7
0AC00001F4
0E700004F1
1F600007D0
0E70000BA0
0AE314AE70
01AEE92D40
ENDCHAR
STARTCHAR atilde
ENCODING 227
SWIDTH 600 0
DWIDTH 11 0
BBX 11 13 0 0
BITMAP
000017400510
0000BAD63E00
0002C02CE500
000000000000
0004CEE85D00
007F6129EA00
03F50000E700
0AC00001F400
0E700004F100
1F600007D000
0E70000BA000
0AE314AE7000
01AEE92D4000
ENDCHAR
STARTCHAR adieresis
ENCODING 228
SWIDTH 600 0
DWIDTH 11 0
BBX 10 13 0 0
BITMAP
00007D02E4
00008C03E3
0000000000
0000000000
0004CEE85D
007F6129EA
03F50000E7
0AC00001F4
0E700004F1
1F600007D0
0E70000BA0
0AE314AE70
01AEE92D40
ENDCHAR
STARTCHAR aring
ENCODING 229
SWIDTH 600 0
DWIDTH 11 0
BBX 10 14 0 0
BITMAP
000004DE50
00000D35C0
00000E26A0
000007EC20
0000000000
0004CEE85D
007F6129EA
03F50000E7
0AC00001F4
0E700004F1
1F600007D0
0E70000BA0
0AE314AE70
01AEE92D40
ENDCHAR
STARTCHAR ae
ENCODING 230
SWIDTH 600 0
DWIDTH 11 0
BBX 12 9 -1 0
BITMAP
005CED42BEC2
008417DD51A9
000002F7006B
000159F3338B
02AEABECCCC6
1D9108900000
5F0009A00000
5F228BE41440
0BFD607EEB40
ENDCHAR
STARTCHAR ccedilla
ENCODING 231
SWIDTH 600 0
DWIDTH 11 0
BBX 9 14 1 -5
BITMAP
0029DFD810
04EA203C80
1E80000100
7E10000000
BA00000000
CA00000000
9D10000100
2EA203B800
02ADFC7000
000B200000
005F600000
0019B00000
002B700000
07D7000000
ENDCHAR
STARTCHAR egrave
ENCODING 232
SWIDTH 600 0
DWIDTH 11 0
BBX 9 14 1 0
BITMAP
0001A40000
0000CD0000
00002E7000
000004A000
0000000000
003AEEB200
05F821AD00
2F80001F50
8E10000D60
CFFFFFFF50
C800000000
AB00000000
3F8114C600
04CEEC6000
ENDCHAR
STARTCHAR eacute
ENCODING 233
SWIDTH 600 0
DWIDTH 11 0
BBX 9 14 1 0
BITMAP
0000002A00
000002DC10
00002DB100
0000490000
0000000000
003AEEB200
05F821AD00
2F80001F50
8E10000D60
CFFFFFFF50
C800000000
AB00000000
3F8114C600
04CEEC6000
ENDCHAR
STARTCHAR ecircumflex
ENCODING 234
SWIDTH 600 0
DWIDTH 11 0
BBX 9 13 1 0
BITMAP
00004FE200
0005E49B00
001B200B20
0000000000
003AEEB200
05F821AD00
2F80001F50
8E10000D60
CFFFFFFF50
C800000000
AB00000000
3F8114C600
04CEEC6000
ENDCHAR
STARTCHAR edieresis
ENCODING 235
SWIDTH 600 0
DWIDTH 11 0
BBX 9 13 1 0
BITMAP
0009B04E20
000AA05E20
0000000000
0000000000
003AEEB200
05F821AD00
2F80001F50
8E10000D60
CFFFFFFF50
C800000000
AB00000000
3F8114C600
04CEEC6000
ENDCHAR
STARTCHAR igrave
ENCODING 236
SWIDTH 600 0
DWIDTH 11 0
BBX 7 14 2 0
BITMAP
004A0000
004F6000
0007E100
0000A400
00000000
FFFF8000
001F5000
004F2000
007E0000
00AA0000
00E70000
01F50000
00E91320
005DFD50
ENDCHAR
STARTCHAR iacute
ENCODING 237
SWIDTH 600 0
DWIDTH 11 0
BBX 7 14 2 0
BITMAP
00000850
00007F70
0007F500
000A4000
00000000
FFFF8000
001F5000
004F2000
007E0000
00AA0000
00E70000
01F50000
00E91320
005DFD50
ENDCHAR
STARTCHAR icircumflex
ENCODING 238
SWIDTH 600 0
DWIDTH 11 0
BBX 7 13 2 0
BITMAP
000BF900
01BA3E40
07700490
00000000
FFFF8000
001F5000
004F2000
007E0000
00AA0000
00E70000
01F50000
00E91320
005DFD50
ENDCHAR
STARTCHAR idieresis
ENCODING 239
SWIDTH 600 0
DWIDTH 11 0
BBX 7 13 2 0
BITMAP
02E50AA0
02E40C90
00000000
00000000
FFFF8000
001F5000
004F2000
007E0000
00AA0000
00E70000
01F50000
00E91320
005DFD50
ENDCHAR
STARTCHAR eth
ENCODING 240
SWIDTH 600 0
DWIDTH 11 0
BBX 11 13 0 0
BITMAP
00003C300530
000019F9DB30
000028EF7000
0001D819D000
00000001F500
0029DFD7C900
02EB3028FA00
0CB00000BA00
2F400000E800
4F100003F400
2F40000BC000
0AD303AE2000
018DFD810000
ENDCHAR
STARTCHAR ntilde
ENCODING 241
SWIDTH 600 0
DWIDTH 11 0
BBX 11 13 0 0
BITMAP
000017400510
0000CAD63E00
0003B02CE400
000000000000
00B718DEB100
00E8B414F600
01FA0000E800
04F10001F600
07D00003F300
0AA00006F000
0D700009C000
1F40000C9000
4F20000F6000
ENDCHAR
STARTCHAR ograve
ENCODING 242
SWIDTH 600 0
DWIDTH 11 0
BBX 10 14 0 0
BITMAP
00001B2000
00001DB000
000003F500
0000006800
0000000000
0005CEE910
009E512BC0
06F30002F4
0D900000E7
2F400000E7
2F400003F3
0E70000CB0
07E513BD20
007DFD8100
ENDCHAR
STARTCHAR oacute
ENCODING 243
SWIDTH 600 0
DWIDTH 11 0
BBX 10 14 0 0
BITMAP
0000000490
0000003EB0
000003E900
0000067000
0000000000
0005CEE910
009E512BC0
06F30002F4
0D900000E7
2F400000E7
2F400003F3
0E70000CB0
07E513BD20
007DFD8100
ENDCHAR
STARTCHAR ocircumflex
ENCODING 244
SWIDTH 600 0
DWIDTH 11 0
BBX 10 13 0 0
BITMAP
000006FD10
00007D3B90
0002B101B1
0000000000
0005CEE910
009E512BC0
06F30002F4
0D900000E7
2F400000E7
2F400003F3
0E70000CB0
07E513BD20
007DFD8100
ENDCHAR
STARTCHAR otilde
ENCODING 245
SWIDTH 600 0
DWIDTH 11 0
BBX 10 13 0 0
BITMAP
0000272016
0001E9D37A
0006804DC2
0000000000
0005CEE910
009E512BC0
06F30002F4
0D900000E7
2F400000E7
2F400003F3
0E70000CB0
07E513BD20
007DFD8100
ENDCHAR
STARTCHAR odieresis
ENCODING 246
SWIDTH 600 0
DWIDTH 11 0
BBX 10 13 0 0
BITMAP
0000B906E1
0000C807D1
0000000000
0000000000
0005CEE910
009E512BC0
06F30002F4
0D900000E7
2F400000E7
2F400003F3
0E70000CB0
07E513BD20
007DFD8100
ENDCHAR
STARTCHAR divide
ENCODING 247
SWIDTH 600 0
DWIDTH 11 0
BBX 9 9 1 1
BITMAP
0005E30000
0005E30000
0000000000
0000000000
7FFFFFFF40
0000000000
0000000000
0005E30000
0005E30000
ENDCHAR
STARTCHAR oslash
ENCODING 248
SWIDTH 600 0
DWIDTH 11 0
BBX 11 11 0 -1
BITMAP
000000000200
0005CEE96E20
009E512DF500
06E2007EF500
0D8008D3D700
1F409D20D700
2F4AC103F300
0EEB100BB000
1DF513BD2000
BA7DFD810000
200000000000
ENDCHAR
STARTCHAR ugrave
ENCODING 249
SWIDTH 600 0
DWIDTH 11 0
BBX 9 14 1 0
BITMAP
0001B20000
0001DB0000
00003F5000
0000068000
0000000000
0D800009C0
1F50000C90
4F20000E60
7E00002F30
AB00005F00
D800008C00
F60003E900
DB1288D600
4DEB40E400
ENDCHAR
STARTCHAR uacute
ENCODING 250
SWIDTH 600 0
DWIDTH 11 0
BBX 9 14 1 0
BITMAP
0000004900
000003EB00
00003E9000
0000770000
0000000000
0D800009C0
1F50000C90
4F20000E60
7E00002F30
AB00005F00
D800008C00
F60003E900
DB1288D600
4DEB40E400
ENDCHAR
STARTCHAR ucircumflex
ENCODING 251
SWIDTH 600 0
DWIDTH 11 0
BBX 9 13 1 0
BITMAP
00006FD100
0007D3B800
002B101B10
0000000000
0D800009C0
1F50000C90
4F20000E60
7E00002F30
AB00005F00
D800008C00
F60003E900
DB1288D600
4DEB40E400
ENDCHAR
STARTCHAR udieresis
ENCODING 252
SWIDTH 600 0
DWIDTH 11 0
BBX 9 13 1 0
BITMAP
000B906D10
000C807D00
0000000000
0000000000
0D800009C0
1F50000C90
4F20000E60
7E00002F30
AB00005F00
D800008C00
F60003E900
DB1288D600
4DEB40E400
ENDCHAR
STARTCHAR yacute
ENCODING 253
SWIDTH 600 0
DWIDTH 11 0
BBX 12 18 -1 -4
BITMAP
000000005700
00000005F900
0000005F8000
000000860000
000000000000
005F000004F3
001F30000C90
000C70006E10
0009A001E600
0005E008C000
0001F22F4000
0000D5AA0000
00009AE20000
00005F700000
00009D000000
0003F4000000
113D80000000
8FD700000000
ENDCHAR
STARTCHAR thorn
ENCODING 254
SWIDTH 600 0
DWIDTH 11 0
BBX 10 17 0 -4
BITMAP
000D700000
001F400000
004F100000
007D000000
00AA4BED50
00DD8218F3
01F50000E8
04F10000CA
07D00000D8
0AB00002F5
0D80000AD0
1FD512AE30
3F3BEEA200
6D00000000
9B00000000
C800000000
F600000000
ENDCHAR
STARTCHAR ydieresis
ENCODING 255
SWIDTH 600 0
DWIDTH 11 0
BBX 12 17 -1 -4
BITMAP
00000C708C00
00000D609B00
000000000000
000000000000
005F000004F3
001F30000C90
000C70006E10
0009A001E600
0005E008C000
0001F22F4000
0000D5AA0000
00009AE20000
00005F700000
00009D000000
0003F4000000
113D80000000
8FD700000000
ENDCHAR
STARTCHAR Amacron
ENCODING 256
SWIDTH 600 0
DWIDTH 11 0
BBX 11 14 -1 0
BITMAP
000004FFFF50
000000000000
0000004FA000
000000CBC000
000005D4D000
00000D53F000
00006D01F200
0001D500F400
0007C000E600
001EFFFFF800
008B0000B900
02E400009B00
09C000008D00
2F5000007F00
ENDCHAR
STARTCHAR amacron
ENCODING 257
SWIDTH 600 0
DWIDTH 11 0
BBX 10 12 0 0
BITMAP
00007FFFF2
0000000000
0000000000
0004CEE85D
007F6129EA
03F50000E7
0AC00001F4
0E700004F1
1F600007D0
0E70000BA0
0AE314AE70
01AEE92D40
ENDCHAR
STARTCHAR Abreve
ENCODING 258
SWIDTH 600 0
DWIDTH 11 0
BBX 11 16 -1 0
BITMAP
0000058003A0
000004D22C40
0000008ED600
000000000000
0000004FA000
000000CBC000
000005D4D000
00000D53F000
00006D01F200
0001D500F400
0007C000E600
001EFFFFF800
008B0000B900
02E400009B00
09C000008D00
2F5000007F00
ENDCHAR
STARTCHAR abreve
ENCODING 259
SWIDTH 600 0
DWIDTH 11 0
BBX 10 14 0 0
BITMAP
0000000001
0000A5004C
00007C13D4
00001AED50
0000000000
0004CEE85D
007F6129EA
03F50000E7
0AC00001F4
0E700004F1
1F600007D0
0E70000BA0
0AE314AE70
01AEE92D40
ENDCHAR
STARTCHAR Aogonek
ENCODING 260
SWIDTH 600 0
DWIDTH 11 0
BBX 11 16 -1 -4
BITMAP
0000004FA000
000000CBC000
000005D5D000
00000D53F000
00006D01F200
0001D500F400
0007C000E600
001EFFFFF800
008B0000B900
02E400009B00
09C000008D00
2F5000007F00
00000001A500
0000000B4000
0000001F3200
0000000BFC10
ENDCHAR
STARTCHAR aogonek
ENCODING 261
SWIDTH 600 0
DWIDTH 11 0
BBX 10 13 0 -4
BITMAP
0004CEE85D
007F6129EA
03F50000E7
0AC00001F4
0E700004F1
1F600007D0
0E70000BA0
0AE314AE70
01AEE92D50
0000019700
00000A4000
00000F3200
00000AEC10
ENDCHAR
STARTCHAR Cacute
ENCODING 262
SWIDTH 600 0
DWIDTH 11 0
BBX 10 16 1 0
BITMAP
00000004A0
0000008F80
000004B200
0000000000
00018DFD60
003E9215E2
02E8000010
0AC0000000
2F50000000
6F10000000
8D00000000
9D00000000
7F00000000
3F50000000
09E5118A00
007DFE9200
ENDCHAR
STARTCHAR cacute
ENCODING 263
SWIDTH 600 0
DWIDTH 11 0
BBX 9 14 1 0
BITMAP
0000000A20
000000AE40
00000AE300
00001B2000
0000000000
0029DFD810
04EA203C80
1E80000100
7E10000000
BA00000000
CA00000000
9D10000100
2EA203B800
02ADFC7000
ENDCHAR
STARTCHAR Ccircumflex
ENCODING 264
SWIDTH 600 0
DWIDTH 11 0
BBX 10 15 1 0
BITMAP
000006FD10
00006E4B90
0001B201B1
00018DFD60
003E9215E2
02E8000010
0AC0000000
2F50000000
6F10000000
8D00000000
9D00000000
7F00000000
3F50000000
09E5118A00
007DFE9200
ENDCHAR
STARTCHAR ccircumflex
ENCODING 265
SWIDTH 600 0
DWIDTH 11 0
BBX 9 13 1 0
BITMAP
00002DF600
0002D85E10
0009500760
0000000000
0029DFD810
04EA203C80
1E80000100
7E10000000
BA00000000
CA00000000
9D10000100
2EA203B800
02ADFC7000
ENDCHAR
STARTCHAR Cdotaccent
ENCODING 266
SWIDTH 600 0
DWIDTH 11 0
BBX 10 15 1 0
BITMAP
000002D700
000003E600
0000000000
00018DFD60
003E9215E2
02E8000010
0AC0000000
2F50000000
6F10000000
8D00000000
9D00000000
7F00000000
3F50000000
09E5118A00
007DFE9200
ENDCHAR
STARTCHAR cdotaccent
ENCODING 267
SWIDTH 600 0
DWIDTH 11 0
BBX 9 13 1 0
BITMAP
00000BD200
00000DC100
0000000000
0000000000
0029DFD810
04EA203C80
1E80000100
7E10000000
BA00000000
CA00000000
9D10000100
2EA203B800
02ADFC7000
ENDCHAR
STARTCHAR Ccaron
ENCODING 268
SWIDTH 600 0
DWIDTH 11 0
BBX 10 16 1 0
BITMAP
0000850086
00003E4BB0
000008FC10
0000000000
00018DFD60
003E9215E2
02E8000010
0AC0000000
2F50000000
6F10000000
8D00000000
9D00000000
7F00000000
3F50000000
09E5118A00
007DFE9200
ENDCHAR
STARTCHAR ccaron
ENCODING 269
SWIDTH 600 0
DWIDTH 11 0
BBX 9 13 1 0
BITMAP
00049003B0
0000D76E30
00003FE300
0000000000
0029DFD810
04EA203C80
1E80000100
7E10000000
BA00000000
CA00000000
9D10000100
2EA203B800
02ADFC7000
ENDCHAR
STARTCHAR Dcaron
ENCODING 270
SWIDTH 600 0
DWIDTH 11 0
BBX 10 16 0 0
BITMAP
0000580059
00001E68D2
000005FE20
0000000000
005FFFD910
008C014DD2
00BA0001E9
00E700009E
02F400007F
05F100007F
08D000009D
0BA00000C9
0E700004F3
2F40001DA0
5F2016EB10
8FFFEB5000
ENDCHAR
STARTCHAR dcaron
ENCODING 271
SWIDTH 600 0
DWIDTH 11 0
BBX 13 15 0 0
BITMAP
000000000004E0
000000000007B0
000000004F2A70
000000007E0C30
00000000AB0E00
00000000D80000
0007DFC3F50000
00AD404DF20000
06F20007E00000
0D90000AB00000
2F40000D800000
3F30001F500000
2F40004F200000
0DC216DE000000
03CEC67B000000
ENDCHAR
STARTCHAR Dcroat
ENCODING 272
SWIDTH 600 0
DWIDTH 11 0
BBX 11 12 0 0
BITMAP
001FFFEA3000
004F113AF400
007D0000BD00
00AB00005F30
00D800003F40
6FFFFD003F40
04F200005F20
07E000008D00
0AB00001E700
0D80000AD100
1F6014CD2000
4FFFEC710000
ENDCHAR
STARTCHAR dcroat
ENCODING 273
SWIDTH 600 0
DWIDTH 11 0
BBX 12 13 0 0
BITMAP
000000000B90
000001444E70
000003EEEFF8
000000004F10
000000007D00
0007CFD79A00
00BE512AF700
06E20001F400
0D800004F100
1F400007D000
1F60000CA000
0CD314AE7000
02BEE91E4000
ENDCHAR
STARTCHAR Emacron
ENCODING 274
SWIDTH 600 0
DWIDTH 11 0
BBX 10 14 1 0
BITMAP
0000AFFFE0
0000000000
00AFFFFFF9
00D7000000
01F5000000
04F2000000
07E0000000
0AFFFFFA00
0D80000000
1F50000000
3F20000000
6F00000000
9C00000000
CFFFFFFA00
ENDCHAR
STARTCHAR emacron
ENCODING 275
SWIDTH 600 0
DWIDTH 11 0
BBX 9 12 1 0
BITMAP
0009FFFF00
0000000000
0000000000
003AEEB200
05F821AD00
2F80001F50
8E10000D60
CFFFFFFF50
C800000000
AB00000000
3F8114C600
04CEEC6000
ENDCHAR
STARTCHAR Ebreve
ENCODING 276
SWIDTH 600 0
DWIDTH 11 0
BBX 10 16 1 0
BITMAP
0000B20094
0000A915D1
00002CEB20
0000000000
00AFFFFFF9
00D7000000
01F5000000
04F2000000
07E0000000
0AFFFFFA00
0D80000000
1F50000000
3F20000000
6F00000000
9C00000000
CFFFFFFA00
ENDCHAR
STARTCHAR ebreve
ENCODING 277
SWIDTH 600 0
DWIDTH 11 0
BBX 9 14 1 0
BITMAP
0001000010
000C3006A0
0009A14D30
0002BEC400
0000000000
003AEEB200
05F821AD00
2F80001F50
8E10000D60
CFFFFFFF50
C800000000
AB00000000
3F8114C600
04CEEC6000
ENDCHAR
STARTCHAR Edotaccent
ENCODING 278
SWIDTH 600 0
DWIDTH 11 0
BBX 10 15 1 0
BITMAP
000002E700
000003E600
0000000000
00AFFFFFF9
00D7000000
01F5000000
04F2000000
07E0000000
0AFFFFFA00
0D80000000
1F50000000
3F20000000
6F00000000
9C00000000
CFFFFFFA00
ENDCHAR
STARTCHAR edotaccent
ENCODING 279
SWIDTH 600 0
DWIDTH 11 0
BBX 9 13 1 0
BITMAP
00002EA000
00004E9000
0000000000
0000000000
003AEEB200
05F821AD00
2F80001F50
8E10000D60
CFFFFFFF50
C800000000
AB00000000
3F8114C600
04CEEC6000
ENDCHAR
STARTCHAR Eogonek
ENCODING 280
SWIDTH 600 0
DWIDTH 11 0
BBX 10 16 1 -4
BITMAP
00AFFFFFF9
00D7000000
01F5000000
04F2000000
07E0000000
0AFFFFFA00
0D80000000
1F50000000
3F20000000
6F00000000
9C00000000
CFFFFFFA00
0000196000
0000A50000
0000F41000
0000AFC100
ENDCHAR
STARTCHAR eogonek
ENCODING 281
SWIDTH 600 0
DWIDTH 11 0
BBX 9 13 1 -4
BITMAP
003AEEB200
05F821AD00
2F80001F50
8E10000D60
CFFFFFFF50
C800000000
AB00000000
3F8114C700
04CEEF9100
0000970000
0005A00000
0009A11000
0004EE6000
ENDCHAR
STARTCHAR Ecaron
ENCODING 282
SWIDTH 600 0
DWIDTH 11 0
BBX 10 16 1 0
BITMAP
0000940086
00003E4BB0
000009FB10
0000000000
00AFFFFFF9
00D7000000
01F5000000
04F2000000
07E0000000
0AFFFFFA00
0D80000000
1F50000000
3F20000000
6F00000000
9C00000000
CFFFFFFA00
ENDCHAR
STARTCHAR ecaron
ENCODING 283
SWIDTH 600 0
DWIDTH 11 0
BBX 9 13 1 0
BITMAP
0008500680
0003E4AC10
00008FB100
0000000000
003AEEB200
05F821AD00
2F80001F50
8E10000D60
CFFFFFFF50
C800000000
AB00000000
3F8114C600
04CEEC6000
ENDCHAR
STARTCHAR Gcircumflex
ENCODING 284
SWIDTH 600 0
DWIDTH 11 0
BBX 10 15 1 0
BITMAP
000009FB00
00009C3D60
0003A103A0
0003AEFC40
007E7217E1
05F4000010
1E80000000
6F10000000
AB00000000
D9001FFFA0
D800000D70
CA00001F40
7F10004F10
1DC303BC00
029EFD8100
ENDCHAR
STARTCHAR gcircumflex
ENCODING 285
SWIDTH 600 0
DWIDTH 11 0
BBX 10 17 0 -4
BITMAP
000003EF30
00003E68C0
0000B300A3
0000000000
0004CED84D
006F612AEA
03F60000E7
09D00001F4
0D800004F1
0F600007D0
0E80000BA0
09E413AE80
019DEA2E50
0000003F10
0000009B00
593128E300
29EFDA2000
ENDCHAR
STARTCHAR Gbreve
ENCODING 286
SWIDTH 600 0
DWIDTH 11 0
BBX 10 16 1 0
BITMAP
0000D000B2
0000D617A0
00004DEA10
0000000000
0003AEFC40
007E7217E1
05F4000010
1E80000000
6F10000000
AB00000000
D9001FFFA0
D800000D70
CA00001F40
7F10004F10
1DC303BC00
029EFD8100
ENDCHAR
STARTCHAR gbreve
ENCODING 287
SWIDTH 600 0
DWIDTH 11 0
BBX 10 18 0 -4
BITMAP
0000000001
0000A5004C
00007C13D4
00001AED50
0000000000
0004CED84D
006F612AEA
03F60000E7
09D00001F4
0D800004F1
0F600007D0
0E80000BA0
09E413AE80
019DEA2E50
0000003F10
0000009B00
593128E300
29EFDA2000
ENDCHAR
STARTCHAR Gdotaccent
ENCODING 288
SWIDTH 600 0
DWIDTH 11 0
BBX 10 15 1 0
BITMAP
000004E400
000005E300
0000000000
0003AEFC40
007E7217E1
05F4000010
1E80000000
6F10000000
AB00000000
D9001FFFA0
D800000D70
CA00001F40
7F10004F10
1DC303BC00
029EFD8100
ENDCHAR
STARTCHAR gdotaccent
ENCODING 289
SWIDTH 600 0
DWIDTH 11 0
BBX 10 17 0 -4
BITMAP
000001DC00
000002EB00
0000000000
0000000000
0004CED84D
006F612AEA
03F60000E7
09D00001F4
0D800004F1
0F600007D0
0E80000BA0
09E413AE80
019DEA2E50
0000003F10
0000009B00
593128E300
29EFDA2000
ENDCHAR
STARTCHAR uni0122
ENCODING 290
SWIDTH 600 0
DWIDTH 11 0
BBX 10 16 1 -4
BITMAP
0003AEFC40
007E7217E1
05F4000010
1E80000000
6F10000000
AB00000000
D9001FFFA0
D800000D70
CA00001F40
7F10004F10
1DC303BC00
029EFD8100
0000000000
000BC20000
0003E40000
00DC600000
ENDCHAR
STARTCHAR uni0123
ENCODING 291
SWIDTH 600 0
DWIDTH 11 0
BBX 10 17 0 -4
BITMAP
0000004B70
000003D400
000004E300
0000002000
0004CED84D
006F612AEA
03F60000E7
09D00001F4
0D800004F1
0F600007D0
0E80000BA0
09E413AE80
019DEA2E50
0000003F10
0000009B00
593128E300
29EFDA2000
ENDCHAR
STARTCHAR Hcircumflex
ENCODING 292
SWIDTH 600 0
DWIDTH 11 0
BBX 11 15 0 0
BITMAP
000002EF5000
00002D86E100
000095008500
006F00000E70
009C00002F40
00C900005F10
00F600008D00
03F30000BA00
06FFFFFFF700
09B00002F400
0C800005F200
0F600008E000
3F30000BB000
6F00000D8000
9C00001F5000
ENDCHAR
STARTCHAR hcircumflex
ENCODING 293
SWIDTH 600 0
DWIDTH 11 0
BBX 10 16 0 0
BITMAP
001BF90000
00BA4E3000
0680048000
000D700000
001F400000
004F100000
007E000000
00AB18DEB1
00DAA414F6
01FA0000E8
04F10001F6
07D00003F3
0AA00006F0
0D700009C0
1F40000C90
4F20000F60
ENDCHAR
STARTCHAR Hbar
ENCODING 294
SWIDTH 600 0
DWIDTH 11 0
BBX 12 12 0 0
BITMAP
006F00000E70
009C00002F40
1EFFFFFFFFF5
01F600008D00
03F30000BA00
06FFFFFFF700
09B00002F400
0C800005F100
0F600008E000
3F30000BB000
6F00000D8000
9C00001F5000
ENDCHAR
STARTCHAR hbar
ENCODING 295
SWIDTH 600 0
DWIDTH 11 0
BBX 10 13 0 0
BITMAP
000D800000
000F500000
08FFFFFF10
006E000000
009C000000
00C929EEA1
00FAA414F6
03F70000F7
06E00002F4
09B00005F1
0C800008D0
1F50000BA0
3F20000E60
ENDCHAR
STARTCHAR Itilde
ENCODING 296
SWIDTH 600 0
DWIDTH 11 0
BBX 11 16 0 0
BITMAP
000002100100
00008DE71D30
0001C12CE700
000000000000
002FFFFFFF30
000006F00000
000009C00000
00000C900000
00000E600000
00002F400000
00005F100000
00008D000000
0000BA000000
0000E7000000
0002F4000000
4FFFFFFF1000
ENDCHAR
STARTCHAR itilde
ENCODING 297
SWIDTH 600 0
DWIDTH 11 0
BBX 8 13 2 0
BITMAP
00561033
05DBB1B5
0A408EA0
00000000
FFFF8000
001F5000
004F2000
007E0000
00AA0000
00E70000
01F50000
00E91320
005DFD50
ENDCHAR
STARTCHAR Imacron
ENCODING 298
SWIDTH 600 0
DWIDTH 11 0
BBX 11 14 0 0
BITMAP
00004FFFF500
000000000000
002FFFFFFF30
000006F00000
000009C00000
00000C900000
00000E600000
00002F400000
00005F100000
00008D000000
0000BA000000
0000E7000000
0002F4000000
4FFFFFFF1000
ENDCHAR
STARTCHAR imacron
ENCODING 299
SWIDTH 600 0
DWIDTH 11 0
BBX 7 12 2 0
BITMAP
01FFFF80
00000000
00000000
FFFF8000
001F5000
004F2000
007E0000
00AA0000
00E70000
01F50000
00E91320
005DFD50
ENDCHAR
STARTCHAR Ibreve
ENCODING 300
SWIDTH 600 0
DWIDTH 11 0
BBX 11 16 0 0
BITMAP
000058003A00
00004D22C400
000008ED6000
000000000000
002FFFFFFF30
000006F00000
000009C00000
00000C900000
00000E600000
00002F400000
00005F100000
00008D000000
0000BA000000
0000E7000000
0002F4000000
4FFFFFFF1000
ENDCHAR
STARTCHAR ibreve
ENCODING 301
SWIDTH 600 0
DWIDTH 11 0
BBX 8 14 2 0
BITMAP
00100010
04B000C3
01F419A0
006DE910
00000000
FFFF8000
001F5000
004F2000
007E0000
00AA0000
00E70000
01F50000
00E91320
005DFD50
ENDCHAR
STARTCHAR Iogonek
ENCODING 302
SWIDTH 600 0
DWIDTH 11 0
BBX 11 16 0 -4
BITMAP
002FFFFFFF30
000006F00000
000009C00000
00000C900000
00000E600000
00002F400000
00005F100000
00008D000000
0000BA000000
0000E7000000
0002F4000000
4FFFFFFF1000
000960000000
007800000000
00C711000000
007ED3000000
ENDCHAR
STARTCHAR iogonek
ENCODING 303
SWIDTH 600 0
DWIDTH 11 0
BBX 7 17 2 -4
BITMAP
0008E400
000AE300
00000000
00000000
FFFF8000
001F5000
004F2000
007E0000
00AA0000
00E70000
01F50000
00E91320
005DFF60
0005B200
002D1000
005C1200
002CE900
ENDCHAR
STARTCHAR Idotaccent
ENCODING 304
SWIDTH 600 0
DWIDTH 11 0
BBX 11 15 0 0
BITMAP
000000AC0000
000000BB0000
000000000000
002FFFFFFF30
000006F00000
000009C00000
00000C900000
00000E600000
00002F400000
00005F100000
00008D000000
0000BA000000
0000E7000000
0002F4000000
4FFFFFFF1000
ENDCHAR
STARTCHAR dotlessi
ENCODING 305
SWIDTH 600 0
DWIDTH 11 0
BBX 7 9 2 0
BITMAP
FFFF8000
001F5000
004F2000
007E0000
00AA0000
00E70000
01F50000
00E91320
005DFD50
ENDCHAR
STARTCHAR IJ
ENCODING 306
SWIDTH 600 0
DWIDTH 11 0
BBX 11 15 0 -3
BITMAP
000E60005F10
003F40008D00
005F1000BA00
008D0000E800
00BA0001F500
00E70004F200
02F40007E000
05F1000AB000
08D0000D8000
0BA0001F5000
0E70004F2000
2F40007E0000
000000AB0000
000013E50000
0001DE800000
ENDCHAR
STARTCHAR ij
ENCODING 307
SWIDTH 600 0
DWIDTH 11 0
BBX 9 17 1 -4
BITMAP
009E301DC0
00BD202DB0
0000000000
0000000000
02F3007E00
05F100AB00
08C000D800
0BA001F500
0E7003F200
2F4006E000
5F1009B000
8D000C8000
BA000F5000
00003F2000
00006E0000
0011C80000
00AEA10000
ENDCHAR
STARTCHAR Jcircumflex
ENCODING 308
SWIDTH 600 0
DWIDTH 11 0
BBX 10 15 0 0
BITMAP
000002EF50
00002D86E1
0000950085
000BFFFFF9
00000000F6
00000003F3
00000006F1
00000009C0
0000000C90
0000000E60
0000002F30
0000006E00
030000C900
5E5129E100
06CFEA2000
ENDCHAR
STARTCHAR jcircumflex
ENCODING 309
SWIDTH 600 0
DWIDTH 11 0
BBX 11 17 -1 -4
BITMAP
00000007FD10
0000007D3C80
000003A101B0
000000000000
0008FFFFD000
0000000BA000
0000000D7000
0000001F5000
0000004F2000
0000007E0000
000000AB0000
000000D80000
000001F50000
000004F20000
000009C00000
07216F400000
1AEEC4000000
ENDCHAR
STARTCHAR uni0136
ENCODING 310
SWIDTH 600 0
DWIDTH 11 0
BBX 11 16 0 -4
BITMAP
000F60002D90
003F3002D900
006F002D9000
009C02D90000
00C92D900000
00E8DF800000
03FF88E00000
06F802F60000
08D000BC0000
0BA0004F4000
0E70000DA000
2F400006F200
000000000000
0000DA000000
00015F100000
002EC4000000
ENDCHAR
STARTCHAR uni0137
ENCODING 311
SWIDTH 600 0
DWIDTH 11 0
BBX 11 17 0 -4
BITMAP
000AB0000000
000D80000000
001F50000000
004F20000000
007E0001AD20
00AB002CC100
00D803DA1000
01F55EA00000
04F9FCD00000
06FE41E50000
09D2008D0000
0C80001E6000
1F500008D000
000000000000
0002E9000000
00017E000000
004EB3000000
ENDCHAR
STARTCHAR kgreenlandic
ENCODING 312
SWIDTH 600 0
DWIDTH 11 0
BBX 11 9 0 0
BITMAP
007E0001AD20
00AB002CB100
00D803EA0000
01F55FA00000
04FAEBD00000
07FD31E60000
0AD2008D0000
0D80001E6000
1F500008D000
ENDCHAR
STARTCHAR Lacute
ENCODING 313
SWIDTH 600 0
DWIDTH 11 0
BBX 9 16 1 0
BITMAP
0000086000
0002CD4000
0009800000
0000000000
000E700000
002F400000
005F100000
008D000000
00BA000000
00E7000000
02F4000000
05F1000000
08E0000000
0BB0000000
0E80000000
2FFFFFFF20
ENDCHAR
STARTCHAR lacute
ENCODING 314
SWIDTH 600 0
DWIDTH 11 0
BBX 7 17 2 0
BITMAP
000004A0
00008F80
0004B200
00000000
5FFFE000
000AB000
000D8000
001F5000
004F1000
007D0000
00AA0000
00E70000
02F40000
05F10000
07E00000
05F31400
009EEB20
ENDCHAR
STARTCHAR uni013B
ENCODING 315
SWIDTH 600 0
DWIDTH 11 0
BBX 9 16 1 -4
BITMAP
000E700000
002F400000
005F100000
008D000000
00BA000000
00E7000000
02F4000000
05F1000000
08E0000000
0BB0000000
0E80000000
2FFFFFFF20
0000000000
0009C30000
0002D60000
00CD700000
ENDCHAR
STARTCHAR uni013C
ENCODING 316
SWIDTH 600 0
DWIDTH 11 0
BBX 7 17 2 -4
BITMAP
5FFFE000
000AB000
000D8000
001F5000
004F1000
007D0000
00AA0000
00E70000
02F40000
05F10000
07E00000
05F31400
009EEB20
00000000
004E7000
0019A000
07EA2000
ENDCHAR
STARTCHAR Lcaron
ENCODING 317
SWIDTH 600 0
DWIDTH 11 0
BBX 9 15 1 0
BITMAP
00000009A0
0000000B70
0000000E30
000E702E00
002F404A00
005F100000
008D000000
00BA000000
00E7000000
02F4000000
05F1000000
08E0000000
0BB0000000
0E80000000
2FFFFFFF20
ENDCHAR
STARTCHAR lcaron
ENCODING 318
SWIDTH 600 0
DWIDTH 11 0
BBX 9 15 2 0
BITMAP
0000001F30
0000003F10
5FFFE06B00
000AB09700
000D80B300
001F500000
004F100000
007D000000
00AA000000
00E7000000
02F4000000
05F1000000
07E0000000
05F3140000
009EEB2000
ENDCHAR
STARTCHAR Ldot
ENCODING 319
SWIDTH 600 0
DWIDTH 11 0
BBX 9 12 1 0
BITMAP
000E700000
002F400000
005F100000
008D000000
00BA001DC0
00E7002EB0
02F4000000
05F1000000
08E0000000
0BB0000000
0E80000000
2FFFFFFF20
ENDCHAR
STARTCHAR ldot
ENCODING 320
SWIDTH 600 0
DWIDTH 11 0
BBX 10 13 2 0
BITMAP
FFFF400000
004F100000
008D000000
00BA000000
00E7000000
02F4001CD1
05F1001DC0
08D0000000
0B90000000
0E60000000
1F40000000
0E81320000
05DFD50000
ENDCHAR
STARTCHAR Lslash
ENCODING 321
SWIDTH 600 0
DWIDTH 11 0
BBX 10 12 0 0
BITMAP
0000E70000
0002F40000
0005F10000
0008D00010
000BA03B90
000EABD600
007FD60000
1EDF100000
038D000000
00BB000000
00E8000000
02FFFFFFF2
ENDCHAR
STARTCHAR lslash
ENCODING 322
SWIDTH 600 0
DWIDTH 11 0
BBX 9 13 1 0
BITMAP
05FFFE0000
0000AB0000
0000D80000
0001F50510
0004F6CB20
001AFC4000
07DEB00000
192E700000
002F400000
005F100000
007E000000
005F314000
0009EEB200
ENDCHAR
STARTCHAR Nacute
ENCODING 323
SWIDTH 600 0
DWIDTH 11 0
BBX 11 16 0 0
BITMAP
00000001B200
0000004EB200
000000B50000
000000000000
004F60000E60
007FB0002F30
00AAF1005F10
00D5D5007C00
01F39A00A900
04F15E00D700
07D00E41F400
0AA00A94F100
0D7005D6D000
1F4001FAA000
4F1000BF7000
7D00006F4000
ENDCHAR
STARTCHAR nacute
ENCODING 324
SWIDTH 600 0
DWIDTH 11 0
BBX 10 14 0 0
BITMAP
00000001A1
0000001DD2
000001CC10
000003A100
0000000000
00B718DEB1
00E8B414F6
01FA0000E8
04F10001F6
07D00003F3
0AA00006F0
0D700009C0
1F40000C90
4F20000F60
ENDCHAR
STARTCHAR uni0145
ENCODING 325
SWIDTH 600 0
DWIDTH 11 0
BBX 11 16 0 -4
BITMAP
004F60000E60
007FB0002F30
00AAF1005F10
00D5D5007C00
01F39A00A900
04F15E00D700
07D00E41F400
0AA00A94F100
0D7005D6D000
1F4001FAA000
4F1000BF7000
7D00006F4000
000000000000
0009C3000000
0002D5000000
00CD70000000
ENDCHAR
STARTCHAR uni0146
ENCODING 326
SWIDTH 600 0
DWIDTH 11 0
BBX 10 13 0 -4
BITMAP
00B718DEB1
00E8B414F6
01FA0000E8
04F10001F6
07D00003F3
0AA00006F0
0D700009C0
1F40000C90
4F20000F60
0000000000
0008D40000
0002C70000
00AD800000
ENDCHAR
STARTCHAR Ncaron
ENCODING 327
SWIDTH 600 0
DWIDTH 11 0
BBX 11 16 0 0
BITMAP
00003A004B00
00000C86E300
000003FE3000
000000000000
004F60000E60
007FB0002F30
00AAF1005F10
00D5D5007C00
01F39A00A900
04F15E00D700
07D00E41F400
0AA00A94F100
0D7005D6D000
1F4001FAA000
4F1000BF7000
7D00006F4000
ENDCHAR
STARTCHAR ncaron
ENCODING 328
SWIDTH 600 0
DWIDTH 11 0
BBX 10 13 0 0
BITMAP
0000760059
00002E48D1
000006FC10
0000000000
00B718DEB1
00E8B414F6
01FA0000E8
04F10001F6
07D00003F3
0AA00006F0
0D700009C0
1F40000C90
4F20000F60
ENDCHAR
STARTCHAR napostrophe
ENCODING 329
SWIDTH 600 0
DWIDTH 11 0
BBX 12 13 -1 0
BITMAP
007E70000000
00EFD0000000
00BFC0000000
000C50000000
04C90C62AEE5
1C500F9A31BC
00003F80007E
00006E00009C
00009C0000C9
0000C90000F6
0000F60003F3
0003F30006F0
0006F00009C0
ENDCHAR
STARTCHAR Eng
ENCODING 330
SWIDTH 600 0
DWIDTH 11 0
BBX 10 12 0 0
BITMAP
006E29EE90
009EB414F8
00CA00009D
00F600006F
03F300007F
06F000008E
09C00000AC
0C900000D9
0E600003F4
2F300009D0
5F10116F40
8D007FD400
ENDCHAR
STARTCHAR eng
ENCODING 331
SWIDTH 600 0
DWIDTH 11 0
BBX 10 13 0 -4
BITMAP
00B718DEA1
00E8B414F6
01FA0000E8
04F10000F6
07D00002F4
0AA00005F1
0D700008D0
1F40000AA0
4F20000D70
0000001F40
0000004F10
000011AB00
00008FC200
ENDCHAR
STARTCHAR Omacron
ENCODING 332
SWIDTH 600 0
DWIDTH 11 0
BBX 11 14 0 0
BITMAP
00004FFFF500
000000000000
00018DFC5000
002DA216F500
00CA00009C00
06F200005F20
0CB000004F30
1F6000004F20
3F3000007E00
4F300000CB00
2F400002F500
0D80000BC000
05E512AD2000
006DFD810000
ENDCHAR
STARTCHAR omacron
ENCODING 333
SWIDTH 600 0
DWIDTH 11 0
BBX 10 12 0 0
BITMAP
0000BFFFD0
0000000000
0000000000
0005CEE910
009E512BC0
06F30002F4
0D900000E7
2F400000E7
2F400003F3
0E70000CB0
07E513BD20
007DFD8100
ENDCHAR
STARTCHAR Obreve
ENCODING 334
SWIDTH 600 0
DWIDTH 11 0
BBX 11 16 0 0
BITMAP
000058003A00
00004D22C400
000008ED6000
000000000000
00018DFC5000
002DA216F500
00CA00009C00
06F200005F20
0CB000004F30
1F6000004F20
3F3000007E00
4F300000CB00
2F400002F500
0D80000BC000
05E512AD2000
006DFD810000
ENDCHAR
STARTCHAR obreve
ENCODING 335
SWIDTH 600 0
DWIDTH 11 0
BBX 10 14 0 0
BITMAP
0000100001
0000E10088
0000B815D1
00003CEB30
0000000000
0005CEE910
009E512BC0
06F30002F4
0D900000E7
2F400000E7
2F400003F3
0E70000CB0
07E513BD20
007DFD8100
ENDCHAR
STARTCHAR Ohungarumlaut
ENCODING 336
SWIDTH 600 0
DWIDTH 11 0
BBX 11 16 0 0
BITMAP
0000004B0590
000002D43D30
00000A40B300
000000000000
00018DFC5000
002DA216F500
00CA00009C00
06F200005F20
0CB000004F30
1F6000004F20
3F3000007E00
4F300000CB00
2F400002F500
0D80000BC000
05E512AD2000
006DFD810000
ENDCHAR
STARTCHAR ohungarumlaut
ENCODING 337
SWIDTH 600 0
DWIDTH 11 0
BBX 11 13 0 0
BITMAP
000000871B30
000006C1A900
00001B14A000
000000000000
0005CEE91000
009E512BC000
06F30002F400
0D900000E700
2F400000E700
2F400003F300
0E70000CB000
07E513BD2000
007DFD810000
ENDCHAR
STARTCHAR OE
ENCODING 338
SWIDTH 600 0
DWIDTH 11 0
BBX 12 12 0 0
BITMAP
00018DFFFFF9
003E936D0000
02E8009A0000
0AC000C70000
1F6000E40000
5F2002FFFB00
7F0005D00000
7E0008A00000
6F000B700000
3F500E500000
0AD43F200000
018DFFFFFA00
ENDCHAR
STARTCHAR oe
ENCODING 339
SWIDTH 600 0
DWIDTH 11 0
BBX 12 9 -1 0
BITMAP
0019ED419EC2
00CB16CA81A9
07D100EC006B
0D8000E5006B
1F4000FFFFF8
2F2004E00000
1F300AE00000
0C917CD60350
03DEA13DEC50
ENDCHAR
STARTCHAR Racute
ENCODING 340
SWIDTH 600 0
DWIDTH 11 0
BBX 10 16 0 0
BITMAP
00000002B2
0000004EB2
000000C500
0000000000
002FFFED70
005F1015E8
008D00009D
00BB00009D
00E80001D8
01F5014CC1
04FFFFD710
07E00CA000
0AB006F100
0D8001E700
1F50009D00
4F20003F50
ENDCHAR
STARTCHAR racute
ENCODING 341
SWIDTH 600 0
DWIDTH 11 0
BBX 9 14 1 0
BITMAP
0000000850
0000007F70
000007F500
00000A4000
0000000000
009807DFA0
00C6971120
00FB300000
03F4000000
06D0000000
09B0000000
0C80000000
0E60000000
2F30000000
ENDCHAR
STARTCHAR uni0156
ENCODING 342
SWIDTH 600 0
DWIDTH 11 0
BBX 10 16 0 -4
BITMAP
002FFFED70
005F1015E8
008D00009D
00BB00009D
00E80001D8
01F5014CC1
04FFFFD710
07E00CA000
0AB006F100
0D8001E700
1F50009D00
4F20003F50
0000000000
0006D50000
0002B80000
009D910000
ENDCHAR
STARTCHAR uni0157
ENCODING 343
SWIDTH 600 0
DWIDTH 11 0
BBX 10 13 0 -4
BITMAP
0009807DFA
000C697112
000FB30000
003F400000
006D000000
009B000000
00C8000000
00E6000000
02F3000000
0000000000
09C3000000
02D5000000
CD70000000
ENDCHAR
STARTCHAR Rcaron
ENCODING 344
SWIDTH 600 0
DWIDTH 11 0
BBX 10 16 0 0
BITMAP
000049004A
00000D87E3
000003FE30
0000000000
002FFFED70
005F1015E8
008D00009D
00BB00009D
00E80001D8
01F5014CC1
04FFFFD710
07E00CA000
0AB006F100
0D8001E700
1F50009D00
4F20003F50
ENDCHAR
STARTCHAR rcaron
ENCODING 345
SWIDTH 600 0
DWIDTH 11 0
BBX 10 13 1 0
BITMAP
0001B101B1
0000AA4D60
00001EF500
0000000000
009807DFA0
00C6971120
00FB300000
03F4000000
06D0000000
09B0000000
0C80000000
0E60000000
2F30000000
ENDCHAR
STARTCHAR Sacute
ENCODING 346
SWIDTH 600 0
DWIDTH 11 0
BBX 10 16 0 0
BITMAP
00000003B0
0000007F91
000002C300
0000000000
00029DEC60
001DA215E6
005F100020
006F200000
001EC20000
0003DE8000
000018FC10
0000004F70
0000000BA0
0700000D80
1DB302AD10
019DFD9200
ENDCHAR
STARTCHAR sacute
ENCODING 347
SWIDTH 600 0
DWIDTH 11 0
BBX 9 14 1 0
BITMAP
0000004900
000003EB00
00003E9000
0000670000
0000000000
007DFEA300
07D3029E10
0AB0000100
05FA300000
004BFC5000
000029F400
200000D800
BC4115E400
18CFEC5000
ENDCHAR
STARTCHAR Scircumflex
ENCODING 348
SWIDTH 600 0
DWIDTH 11 0
BBX 10 15 0 0
BITMAP
000005FE20
00004E59B0
0000B300A2
00029DEC60
001DA215E6
005F100020
006F200000
001EC20000
0003DE8000
000018FC10
0000004F70
0000000BA0
0700000D80
1DB302AD10
019DFD9200
ENDCHAR
STARTCHAR scircumflex
ENCODING 349
SWIDTH 600 0
DWIDTH 11 0
BBX 9 13 1 0
BITMAP
00006FD100
0007D3B900
002B101B10
0000000000
007DFEA300
07D3029E10
0AB0000100
05FA300000
004BFC5000
000029F400
200000D800
BC4115E400
18CFEC5000
ENDCHAR
STARTCHAR uni015E
ENCODING 350
SWIDTH 600 0
DWIDTH 11 0
BBX 10 17 0 -5
BITMAP
00029DEC60
001DA215E6
005F100020
006F200000
001EC20000
0003DE8000
000018FC10
0000004F70
0000000BA0
0700000D80
1DB302AD10
019DFD9200
0001B00000
0009E30000
0001C70000
0003D30000
00BC500000
ENDCHAR
STARTCHAR uni015F
ENCODING 351
SWIDTH 600 0
DWIDTH 11 0
BBX 9 14 1 -5
BITMAP
007DFEA300
07D3029E10
0AB0000100
05FA300000
004BFC5000
000029F400
200000D800
BC4115E400
18CFEC5000
001B100000
009E400000
001C700000
003D400000
0AC5000000
ENDCHAR
STARTCHAR Scaron
ENCODING 352
SWIDTH 600 0
DWIDTH 11 0
BBX 10 16 0 0
BITMAP
0000760078
00002E59C1
000006FD10
0000000000
00029DEC60
001DA215E6
005F100020
006F200000
001EC20000
0003DE8000
000018FC10
0000004F70
0000000BA0
0700000D80
1DB302AD10
019DFD9200
ENDCHAR
STARTCHAR scaron
ENCODING 353
SWIDTH 600 0
DWIDTH 11 0
BBX 9 13 1 0
BITMAP
000A300860
0005E3BA00
0000AFA000
0000000000
007DFEA300
07D3029E10
0AB0000100
05FA300000
004BFC5000
000029F400
200000D800
BC4115E400
18CFEC5000
ENDCHAR
STARTCHAR uni0162
ENCODING 354
SWIDTH 600 0
DWIDTH 11 0
BBX 11 17 1 -5
BITMAP
2FFFFFFFFF20
00006F000000
00009C000000
0000C9000000
0000F6000000
0003F3000000
0006F1000000
0009C0000000
000BA0000000
000E70000000
002F40000000
005F10000000
006700000000
01EB00000000
004F20000000
017D00000000
2EA200000000
ENDCHAR
STARTCHAR uni0163
ENCODING 355
SWIDTH 600 0
DWIDTH 11 0
BBX 9 17 1 -5
BITMAP
0003E00000
0007B00000
000B800000
8EFFFFFFA0
003F200000
007E000000
00AB000000
00D8000000
01F5000000
02F5000000
00EA115300
004CFDB400
0003A00000
000BD20000
0002E50000
0014E20000
00DB400000
ENDCHAR
STARTCHAR Tcaron
ENCODING 356
SWIDTH 600 0
DWIDTH 11 0
BBX 11 16 1 0
BITMAP
0003A004B000
0000C86E3000
00003FE30000
000000000000
2FFFFFFFFF20
00006F000000
00009C000000
0000C9000000
0000F6000000
0003F3000000
0006F1000000
0009C0000000
000BA0000000
000E70000000
002F40000000
005F10000000
ENDCHAR
STARTCHAR tcaron
ENCODING 357
SWIDTH 600 0
DWIDTH 11 0
BBX 9 15 1 0
BITMAP
00000008B0
0000000B80
0000000E40
0003E01E00
0007B04B00
000B800000
8EFFFFFFA0
003F200000
007E000000
00AB000000
00D8000000
01F5000000
02F5000000
00EA115300
004CFDB400
ENDCHAR
STARTCHAR Tbar
ENCODING 358
SWIDTH 600 0
DWIDTH 11 0
BBX 11 12 1 0
BITMAP
2FFFFFFFFF20
00006F000000
00009C000000
0000C9000000
0000E7000000
08FFFFFA0000
0005F1000000
0008D0000000
000BA0000000
000E70000000
002F40000000
005F10000000
ENDCHAR
STARTCHAR tbar
ENCODING 359
SWIDTH 600 0
DWIDTH 11 0
BBX 10 12 0 0
BITMAP
00003E0000
00007B0000
0000B80000
08EFFFFFFA
0003F20000
0006F00000
0009C00000
3EFFFFFFB0
000E600000
002F400000
000EA11530
0004DFDB40
ENDCHAR
STARTCHAR Utilde
ENCODING 360
SWIDTH 600 0
DWIDTH 11 0
BBX 10 16 1 0
BITMAP
0000210010
0008DE71D3
001C12CE70
0000000000
06F00000D7
09C00001F4
0C900004F1
0F600007D0
3F30000AA0
6F00000D70
9C00001F40
B900004F10
C800008C00
AB0001E600
4F612BC000
05CED91000
ENDCHAR
STARTCHAR utilde
ENCODING 361
SWIDTH 600 0
DWIDTH 11 0
BBX 9 13 1 0
BITMAP
0002720150
001E9D37A0
006804EC20
0000000000
0D800009C0
1F50000C90
4F20000E60
7E00002F30
AB00005F00
D800008C00
F60003E900
DB1288D600
4DEB40E400
ENDCHAR
STARTCHAR Umacron
ENCODING 362
SWIDTH 600 0
DWIDTH 11 0
BBX 10 14 1 0
BITMAP
0004FFFF50
0000000000
06F00000D7
09C00001F4
0C900004F1
0F600007D0
3F30000AA0
6F00000D70
9C00001F40
B900004F10
C800008C00
AB0001E600
4F612BC000
05CED91000
ENDCHAR
STARTCHAR umacron
ENCODING 363
SWIDTH 600 0
DWIDTH 11 0
BBX 9 12 1 0
BITMAP
000CFFFC00
0000000000
0000000000
0D800009C0
1F50000C90
4F20000E60
7E00002F30
AB00005F00
D800008C00
F60003E900
DB1288D600
4DEB40E400
ENDCHAR
STARTCHAR Ubreve
ENCODING 364
SWIDTH 600 0
DWIDTH 11 0
BBX 10 16 1 0
BITMAP
00058003A0
0004D22C40
00008ED600
0000000000
06F00000D7
09C00001F4
0C900004F1
0F600007D0
3F30000AA0
6F00000D70
9C00001F40
B900004F10
C800008C00
AB0001E600
4F612BC000
05CED91000
ENDCHAR
STARTCHAR ubreve
ENCODING 365
SWIDTH 600 0
DWIDTH 11 0
BBX 9 14 1 0
BITMAP
0001000000
000E100870
000C815D10
0003CEB300
0000000000
0D800009C0
1F50000C90
4F20000E60
7E00002F30
AB00005F00
D800008C00
F60003E900
DB1288D600
4DEB40E400
ENDCHAR
STARTCHAR Uring
ENCODING 366
SWIDTH 600 0
DWIDTH 11 0
BBX 10 16 1 0
BITMAP
00001BE600
0000782C00
0000863B00
00003DD300
06F00000D7
09C00001F4
0C900004F1
0F600007D0
3F30000AA0
6F00000D70
9C00001F40
B900004F10
C800008C00
AB0001E600
4F612BC000
05CED91000
ENDCHAR
STARTCHAR uring
ENCODING 367
SWIDTH 600 0
DWIDTH 11 0
BBX 9 14 1 0
BITMAP
00007ED200
0002D19700
0004C1A600
0000BE9000
0000000000
0D800009C0
1F50000C90
4F20000E60
7E00002F30
AB00005F00
D800008C00
F60003E900
DB1288D600
4DEB40E400
ENDCHAR
STARTCHAR Uhungarumlaut
ENCODING 368
SWIDTH 600 0
DWIDTH 11 0
BBX 10 16 1 0
BITMAP
000004B059
00002D43D3
0000A40B30
0000000000
06F00000D7
09C00001F4
0C900004F1
0F600007D0
3F30000AA0
6F00000D70
9C00001F40
B900004F10
C800008C00
AB0001E600
4F612BC000
05CED91000
ENDCHAR
STARTCHAR uhungarumlaut
ENCODING 369
SWIDTH 600 0
DWIDTH 11 0
BBX 10 13 1 0
BITMAP
00000961B3
00006C1A90
0001B14900
0000000000
0D800009C0
1F50000C90
4F20000E60
7E00002F30
AB00005F00
D800008C00
F60003E900
DB1288D600
4DEB40E400
ENDCHAR
STARTCHAR Uogonek
ENCODING 370
SWIDTH 600 0
DWIDTH 11 0
BBX 10 16 1 -4
BITMAP
06F00000D7
09C00001F4
0C900004F1
0F600007D0
3F30000AA0
6F00000D70
9C00001F40
B900004F10
C800009C00
BB0002E600
5F835DC000
06DFE91000
00A8100000
0880000000
0C71100000
07ED300000
ENDCHAR
STARTCHAR uogonek
ENCODING 371
SWIDTH 600 0
DWIDTH 11 0
BBX 9 13 1 -4
BITMAP
0D800009C0
1F50000C90
4F20000E60
7E00002F30
AB00005F00
D800008C00
F60003E900
DB1288D600
4DEB40E400
0000196000
0000B30000
0001F22000
0000BEB100
ENDCHAR
STARTCHAR Wcircumflex
ENCODING 372
SWIDTH 600 0
DWIDTH 11 0
BBX 11 15 1 0
BITMAP
00003EF40000
0002D76D1000
000950084000
5F0000000E60
6E0000003F20
7D0000008C00
8C008600C700
9A02FA02F300
A909AB06D000
B81E4C0A9000
B77A2D0E4000
C6D41E4E0000
D9C00F9A0000
ED600ED50000
FE100DF10000
ENDCHAR
STARTCHAR wcircumflex
ENCODING 373
SWIDTH 600 0
DWIDTH 11 0
BBX 12 13 0 0
BITMAP
000008FC0000
00009C3D7000
00049102B000
000000000000
2F30075005E1
2F303FA00B90
2F309BA02F30
1F31E6B08C00
1F47A5C0D600
1F4D44C4E100
0F7D04CA8000
0FD704DE2000
0FF103FB0000
ENDCHAR
STARTCHAR Ycircumflex
ENCODING 374
SWIDTH 600 0
DWIDTH 11 0
BBX 10 15 2 0
BITMAP
0004FF2000
004E59B000
00B300A200
D8000008D1
8D00004F30
4F2001D800
0E7009C000
09B04E2000
04F1D60000
00EBB00000
00AE100000
00BA000000
00E7000000
02F4000000
05F1000000
ENDCHAR
STARTCHAR ycircumflex
ENCODING 375
SWIDTH 600 0
DWIDTH 11 0
BBX 12 17 -1 -4
BITMAP
0000008FC000
000009C3D700
000049102B00
000000000000
005F000004F3
001F30000C90
000C70006E10
0009A001E600
0005E008C000
0001F22F4000
0000D5AA0000
00009AE20000
00005F700000
00009D000000
0003F4000000
113D80000000
8FD700000000
ENDCHAR
STARTCHAR Ydieresis
ENCODING 376
SWIDTH 600 0
DWIDTH 11 0
BBX 10 15 2 0
BITMAP
006C02E200
008B03E200
0000000000
D8000008D1
8D00004F30
4F2001D800
0E7009C000
09B04E2000
04F1D60000
00EBB00000
00AE100000
00BA000000
00E7000000
02F4000000
05F1000000
ENDCHAR
STARTCHAR Zacute
ENCODING 377
SWIDTH 600 0
DWIDTH 11 0
BBX 11 16 0 0
BITMAP
00000003B100
0000006F9100
000002C30000
000000000000
009FFFFFFF60
00000001DB00
0000000BD100
0000007F3000
000004F60000
00002EA00000
0000CC100000
0009E2000000
005F50000000
02E800000000
1DB000000000
8FFFFFFFD000
ENDCHAR
STARTCHAR zacute
ENCODING 378
SWIDTH 600 0
DWIDTH 11 0
BBX 10 14 0 0
BITMAP
0000000480
0000004FA0
000004E800
0000076000
0000000000
00DFFFFFF8
0000001CB0
000001CC10
00000BC100
0000AD2000
0009D20000
009E300000
08E3000000
4FFFFFFF70
ENDCHAR
STARTCHAR Zdotaccent
ENCODING 379
SWIDTH 600 0
DWIDTH 11 0
BBX 11 15 0 0
BITMAP
000000C90000
000001D80000
000000000000
009FFFFFFF60
00000001DB00
0000000BD100
0000007F3000
000004F60000
00002EA00000
0000CC100000
0009E2000000
005F50000000
02E800000000
1DB000000000
8FFFFFFFD000
ENDCHAR
STARTCHAR zdotaccent
ENCODING 380
SWIDTH 600 0
DWIDTH 11 0
BBX 10 13 0 0
BITMAP
000005E700
000006E600
0000000000
0000000000
00DFFFFFF8
0000001CB0
000001CC10
00000BC100
0000AD2000
0009D20000
009E300000
08E3000000
4FFFFFFF70
ENDCHAR
STARTCHAR Zcaron
ENCODING 381
SWIDTH 600 0
DWIDTH 11 0
BBX 11 16 0 0
BITMAP
000067006800
00002E59D100
000006FD2000
000000000000
009FFFFFFF60
00000001DB00
0000000BD100
0000007F3000
000004F60000
00002EA00000
0000CC100000
0009E2000000
005F50000000
02E800000000
1DB000000000
8FFFFFFFD000
ENDCHAR
STARTCHAR zcaron
ENCODING 382
SWIDTH 600 0
DWIDTH 11 0
BBX 10 13 0 0
BITMAP
0000A20095
00006D3C90
00000BF900
0000000000
00DFFFFFF8
0000001CB0
000001CC10
00000BC100
0000AD2000
0009D20000
009E300000
08E3000000
4FFFFFFF70
ENDCHAR
STARTCHAR longs
ENCODING 383
SWIDTH 600 0
DWIDTH 11 0
BBX 10 13 2 0
BITMAP
00005CED91
0005F61270
000CA00000
001F500000
CEFF200000
008E000000
00AB000000
00D8000000
01F5000000
04F2000000
07E0000000
0AB0000000
0D80000000
ENDCHAR
STARTCHAR uni0180
ENCODING 384
SWIDTH 600 0
DWIDTH 11 0
BBX 10 13 0 0
BITMAP
000D800000
001F500000
08FFFFFF10
006E000000
009B000000
00C85CFD60
01FD7217F4
04F30000D9
07E00000C9
0AB00001E7
0D800008E1
1FD5029F50
4E3BEEA300
ENDCHAR
STARTCHAR uni018A
ENCODING 394
SWIDTH 600 0
DWIDTH 11 0
BBX 11 12 0 0
BITMAP
0018DFEC6000
02D97F26E800
0B808D006F20
2F10BA001F60
4E00E7000E80
3F32F4000F70
0A85F1002F50
0008D0006F10
000BA000CA00
000E7008E200
002F43AD3000
005FEC710000
ENDCHAR
STARTCHAR uni018F
ENCODING 399
SWIDTH 600 0
DWIDTH 11 0
BBX 10 12 1 0
BITMAP
0039DFD800
00D8216F70
00000009E0
00000005F1
00000004F2
00000004F1
CFFFFFFFE0
E600000AA0
F600002F40
D80000BA00
7E403CC100
07DEC70000
ENDCHAR
STARTCHAR uni0192
ENCODING 402
SWIDTH 600 0
DWIDTH 11 0
BBX 12 14 -1 -2
BITMAP
000000008DE8
00000008D213
0000001E5000
0000005E0000
000000AA0000
0000DFFFFF10
000004F10000
000009B00000
00000D600000
00003F100000
00008C000000
0000D6000000
1318D1000000
4DEB20000000
ENDCHAR
STARTCHAR uni0193
ENCODING 403
SWIDTH 600 0
DWIDTH 11 0
BBX 11 14 1 0
BITMAP
00000000AE90
00000004E110
0003AEFDD000
007E7217E200
05F400001000
1E8000000000
6F1000000000
AB0000000000
D9001FFFA000
D800000D7000
CA00001F4000
7F10004F1000
1DC303BC0000
029EFD810000
ENDCHAR
STARTCHAR Ohorn
ENCODING 416
SWIDTH 600 0
DWIDTH 11 0
BBX 12 15 0 0
BITMAP
0000000000A4
0000000000C6
0000000001E2
00018DFC8A40
002DA216F700
00CA00009E00
06F200005F20
0CB000004F30
1F6000004F20
3F3000007E00
4F300000CB00
2F400002F500
0D80000BB000
05E512AD1000
006DFD810000
ENDCHAR
STARTCHAR ohorn
ENCODING 417
SWIDTH 600 0
DWIDTH 11 0
BBX 11 12 0 0
BITMAP
000000000690
0000000007A0
000000000C50
0005CEEAB600
009E512BD100
06F30002F500
0D900000E700
2F400000E600
2F400003F300
0E70000CB000
07E513BD1000
007DFD810000
ENDCHAR
STARTCHAR Uhorn
ENCODING 431
SWIDTH 600 0
DWIDTH 11 0
BBX 12 15 1 0
BITMAP
00000000005A
00000000006B
0000000002C5
06F00000DA20
09C00001F400
0C900004F100
0F600007C000
3F30000A9000
6F00000D6000
9C00001F3000
B900004F0000
C800008B0000
AB0001E50000
4F612BB00000
05CED8000000
ENDCHAR
STARTCHAR uhorn
ENCODING 432
SWIDTH 600 0
DWIDTH 11 0
BBX 11 12 1 0
BITMAP
0000000005A0
0000000006C0
000000002D70
0D800009F900
1F50000CA000
4F20000E7000
7E00002F4000
AB00005F1000
D800008D0000
F60003EA0000
DB1288D70000
4DEB40E40000
ENDCHAR
STARTCHAR uni01C2
ENCODING 450
SWIDTH 600 0
DWIDTH 11 0
BBX 9 17 1 -4
BITMAP
00000C8000
00001F5000
00004F2000
00007E0000
0000AB0000
0000D80000
3EFFFFFF40
0004F10000
0008D00000
CEFFFFFA00
000E700000
002F400000
005F100000
008D000000
00BA000000
00E7000000
01F4000000
ENDCHAR
STARTCHAR uni01CD
ENCODING 461
SWIDTH 600 0
DWIDTH 11 0
BBX 11 16 -1 0
BITMAP
000003A004B0
000000C86E30
0000003FE300
000000000000
0000004FA000
000000CBC000
000005D4D000
00000D53F000
00006D01F200
0001D500F400
0007C000E600
001EFFFFF800
008B0000B900
02E400009B00
09C000008D00
2F5000007F00
ENDCHAR
STARTCHAR uni01CE
ENCODING 462
SWIDTH 600 0
DWIDTH 11 0
BBX 10 13 0 0
BITMAP
0000670059
00002E58D2
000006FD10
0000000000
0004CEE85D
007F6129EA
03F50000E7
0AC00001F4
0E700004F1
1F600007D0
0E70000BA0
0AE314AE70
01AEE92D40
ENDCHAR
STARTCHAR uni01CF
ENCODING 463
SWIDTH 600 0
DWIDTH 11 0
BBX 11 16 0 0
BITMAP
00003A004B00
00000C86E300
000003FE3000
000000000000
002FFFFFFF30
000006F00000
000009C00000
00000C900000
00000E600000
00002F400000
00005F100000
00008D000000
0000BA000000
0000E7000000
0002F4000000
4FFFFFFF1000
ENDCHAR
STARTCHAR uni01D0
ENCODING 464
SWIDTH 600 0
DWIDTH 11 0
BBX 8 13 2 0
BITMAP
01B101B1
00AA4D60
001EF500
00000000
FFFF8000
001F5000
004F2000
007E0000
00AA0000
00E70000
01F50000
00E91320
005DFD50
ENDCHAR
STARTCHAR uni01D1
ENCODING 465
SWIDTH 600 0
DWIDTH 11 0
BBX 11 16 0 0
BITMAP
00003A004B00
00000C86E300
000003FE3000
000000000000
00018DFC5000
002DA216F500
00CA00009C00
06F200005F20
0CB000004F30
1F6000004F20
3F3000007E00
4F300000CB00
2F400002F500
0D80000BC000
05E512AD2000
006DFD810000
ENDCHAR
STARTCHAR uni01D2
ENCODING 466
SWIDTH 600 0
DWIDTH 11 0
BBX 10 13 0 0
BITMAP
0000A30086
00005E3BA0
00000AFA00
0000000000
0005CEE910
009E512BC0
06F30002F4
0D900000E7
2F400000E7
2F400003F3
0E70000CB0
07E513BD20
007DFD8100
ENDCHAR
STARTCHAR uni01D3
ENCODING 467
SWIDTH 600 0
DWIDTH 11 0
BBX 10 16 1 0
BITMAP
0003A004B0
0000C86E30
00003FE300
0000000000
06F00000D7
09C00001F4
0C900004F1
0F600007D0
3F30000AA0
6F00000D70
9C00001F40
B900004F10
C800008C00
AB0001E600
4F612BC000
05CED91000
ENDCHAR
STARTCHAR uni01D4
ENCODING 468
SWIDTH 600 0
DWIDTH 11 0
BBX 9 13 1 0
BITMAP
000A300860
0005E3BA00
0000AFA000
0000000000
0D800009C0
1F50000C90
4F20000E60
7E00002F30
AB00005F00
D800008C00
F60003E900
DB1288D600
4DEB40E400
ENDCHAR
STARTCHAR uni01D5
ENCODING 469
SWIDTH 600 0
DWIDTH 11 0
BBX 10 17 1 0
BITMAP
0000EFFFA0
0000000000
0004D00D30
0005C01E20
0000000000
06F00000D7
09C00001F4
0C900004F1
0F600007D0
3F30000AA0
6F00000D70
9C00001F40
B900004F10
C800008C00
AB0001E600
4F612BC000
05CED91000
ENDCHAR
STARTCHAR uni01D6
ENCODING 470
SWIDTH 600 0
DWIDTH 11 0
BBX 9 14 1 0
BITMAP
0003FFFF60
0000000000
0009804C00
000B706B00
0000000000
0D800009C0
1F50000C90
4F20000E60
7E00002F30
AB00005F00
D800008C00
F60003E900
DB1288D600
4DEB40E400
ENDCHAR
STARTCHAR uni01D7
ENCODING 471
SWIDTH 600 0
DWIDTH 11 0
BBX 10 17 1 0
BITMAP
0000003C20
000002B300
0004D00D30
0005C01E20
0000000000
06F00000D7
09C00001F4
0C900004F1
0F600007D0
3F30000AA0
6F00000D70
9C00001F40
B900004F10
C800008C00
AB0001E600
4F612BC000
05CED91000
ENDCHAR
STARTCHAR uni01D8
ENCODING 472
SWIDTH 600 0
DWIDTH 11 0
BBX 9 15 1 0
BITMAP
0000006900
0000058000
0000000000
0009804C00
000B706B00
0000000000
0D800009C0
1F50000C90
4F20000E60
7E00002F30
AB00005F00
D800008C00
F60003E900
DB1288D600
4DEB40E400
ENDCHAR
STARTCHAR uni01D9
ENCODING 473
SWIDTH 600 0
DWIDTH 11 0
BBX 10 17 1 0
BITMAP
0000870780
00001CE800
0004D00D30
0005C01E20
0000000000
06F00000D7
09C00001F4
0C900004F1
0F600007D0
3F30000AA0
6F00000D70
9C00001F40
B900004F10
C800008C00
AB0001E600
4F612BC000
05CED91000
ENDCHAR
STARTCHAR uni01DA
ENCODING 474
SWIDTH 600 0
DWIDTH 11 0
BBX 9 15 1 0
BITMAP
0001B22A40
00004ED400
0000000000
0009804C00
000B706B00
0000000000
0D800009C0
1F50000C90
4F20000E60
7E00002F30
AB00005F00
D800008C00
F60003E900
DB1288D600
4DEB40E400
ENDCHAR
STARTCHAR uni01DB
ENCODING 475
SWIDTH 600 0
DWIDTH 11 0
BBX 10 18 1 0
BITMAP
00003B0000
00000C5000
0000039000
0004D00D30
0005C01E20
0000000000
06F00000D7
09C00001F4
0C900004F1
0F600007D0
3F30000AA0
6F00000D70
9C00001F40
B900004F10
C800008C00
AB0001E600
4F612BC000
05CED91000
ENDCHAR
STARTCHAR uni01DC
ENCODING 476
SWIDTH 600 0
DWIDTH 11 0
BBX 9 15 1 0
BITMAP
0000480000
00001E1000
0000075000
0009804C00
000B706B00
0000000000
0D800009C0
1F50000C90
4F20000E60
7E00002F30
AB00005F00
D800008C00
F60003E900
DB1288D600
4DEB40E400
ENDCHAR
STARTCHAR uni01E2
ENCODING 482
SWIDTH 600 0
DWIDTH 11 0
BBX 13 14 -1 0
BITMAP
00000004FFFF50
00000000000000
0000004FFFFF90
000000CBE00000
000006C8B00000
00001E3B800000
0000990E500000
0003E12FFFD000
000C605E000000
006FFFFB000000
01E300B8000000
09A000E6000000
3F2002F3000000
C90004FFFF9000
ENDCHAR
STARTCHAR uni01E3
ENCODING 483
SWIDTH 600 0
DWIDTH 11 0
BBX 12 12 -1 0
BITMAP
00000BFFFD00
000000000000
000000000000
005CED42BEC2
008417DD51A9
000002F7006B
000159F3338B
02AEABECCCC6
1D9108900000
5F0009A00000
5F228BE41440
0BFD607EEB40
ENDCHAR
STARTCHAR Gcaron
ENCODING 486
SWIDTH 600 0
DWIDTH 11 0
BBX 10 16 1 0
BITMAP
0000B201B3
00006D4D80
00000CF900
0000000000
0003AEFC40
007E7217E1
05F4000010
1E80000000
6F10000000
AB00000000
D9001FFFA0
D800000D70
CA00001F40
7F10004F10
1DC303BC00
029EFD8100
ENDCHAR
STARTCHAR gcaron
ENCODING 487
SWIDTH 600 0
DWIDTH 11 0
BBX 10 17 0 -4
BITMAP
0000670059
00002E58D2
000006FD10
0000000000
0004CED84D
006F612AEA
03F60000E7
09D00001F4
0D800004F1
0F600007D0
0E80000BA0
09E413AE80
019DEA2E50
0000003F10
0000009B00
593128E300
29EFDA2000
ENDCHAR
STARTCHAR uni01EA
ENCODING 490
SWIDTH 600 0
DWIDTH 11 0
BBX 11 16 0 -4
BITMAP
00018DFC5000
002DA216F500
00CA00009D00
06F200005F10
0CB000004F30
1F6000004F20
3F3000007F00
4F300000CB00
2F400002F500
0E80000BC000
06E512AD2000
006DFE910000
000A60000000
007800000000
00C711000000
007ED3000000
ENDCHAR
STARTCHAR uni01EB
ENCODING 491
SWIDTH 600 0
DWIDTH 11 0
BBX 10 13 0 -4
BITMAP
0005CEE910
009E512BC0
06F30002F4
0D900000E7
1F400000E7
2F400003F3
0E70000CB0
08E513BD20
007DFE9100
000A710000
0077000000
00B7110000
006ED40000
ENDCHAR
STARTCHAR uni01F4
ENCODING 500
SWIDTH 600 0
DWIDTH 11 0
BBX 10 16 1 0
BITMAP
0000000780
000001BE60
0000079100
0000000000
0003AEFC40
007E7217E1
05F4000010
1E80000000
6F10000000
AB00000000
D9001FFFA0
D800000D70
CA00001F40
7F10004F10
1DC303BC00
029EFD8100
ENDCHAR
STARTCHAR uni01F5
ENCODING 501
SWIDTH 600 0
DWIDTH 11 0
BBX 10 18 0 -4
BITMAP
00000001A1
0000001CD2
000001CC20
000003A100
0000000000
0004CED84D
006F612AEA
03F60000E7
09D00001F4
0D800004F1
0F600007D0
0E80000BA0
09E413AE80
019DEA2E50
0000003F10
0000009B00
593128E300
29EFDA2000
ENDCHAR
STARTCHAR uni01F8
ENCODING 504
SWIDTH 600 0
DWIDTH 11 0
BBX 11 16 0 0
BITMAP
00000B400000
000007E30000
0000005A0000
000000000000
004F60000E60
007FB0002F30
00AAF1005F10
00D5D5007C00
01F39A00A900
04F15E00D700
07D00E41F400
0AA00A94F100
0D7005D6D000
1F4001FAA000
4F1000BF7000
7D00006F4000
ENDCHAR
STARTCHAR uni01F9
ENCODING 505
SWIDTH 600 0
DWIDTH 11 0
BBX 10 14 0 0
BITMAP
0000095000
00000AE100
000001D900
0000003B00
0000000000
00B718DEB1
00E8B414F6
01FA0000E8
04F10001F6
07D00003F3
0AA00006F0
0D700009C0
1F40000C90
4F20000F60
ENDCHAR
STARTCHAR Aringacute
ENCODING 506
SWIDTH 600 0
DWIDTH 11 0
BBX 11 17 -1 0
BITMAP
000000000820
00000002C910
000000374900
000000863C00
0000004ED400
0000004FA000
000000C9C000
000005C4D000
00000D43F000
00006C01F200
0001D500F400
0007C000E600
001EFFFFF800
008B0000B900
02E400009B00
09C000008D00
2F5000007F00
ENDCHAR
STARTCHAR aringacute
ENCODING 507
SWIDTH 600 0
DWIDTH 11 0
BBX 10 16 0 0
BITMAP
0000000170
0000003C60
000003EE60
00000D34C0
00000E26A0
000007EC20
0000000000
0004CEE85D
007F6129EA
03F50000E7
0AC00001F4
0E700004F1
1F600007D0
0E70001CA0
0AE314BE70
01AEE92D40
ENDCHAR
STARTCHAR AEacute
ENCODING 508
SWIDTH 600 0
DWIDTH 11 0
BBX 13 16 -1 0
BITMAP
00000000001A30
0000000004EB20
000000000B6000
00000000000000
0000004FFFFF90
000000CBE00000
000006C8B00000
00001E3B800000
0000990E500000
0003E12FFFD000
000C605E000000
006FFFFB000000
01E300B8000000
09A000E6000000
3F2002F3000000
C90004FFFF9000
ENDCHAR
STARTCHAR aeacute
ENCODING 509
SWIDTH 600 0
DWIDTH 11 0
BBX 12 14 -1 0
BITMAP
000000003900
00000003EB00
0000003EA000
000000680000
000000000000
005CED42BEC2
008417DD51A9
000002F7006B
000159F3338B
02AEABECCCC6
1D9108900000
5F0009A00000
5F228BE41440
0BFD607EEB40
ENDCHAR
STARTCHAR Oslashacute
ENCODING 510
SWIDTH 600 0
DWIDTH 11 0
BBX 13 17 -1 -1
BITMAP
000000001B2000
00000004EB2000
0000000B500000
00000000000300
000018DFD56E10
0002DA216FE300
000CA0003FD000
006F1002EAF100
00CA001D93F300
01F501CA04F200
03F30AC006E000
04F29D100AB000
02FAE2001F5000
00DE3000AC0000
04EF512AD20000
1E65DFD8100000
03000000000000
ENDCHAR
STARTCHAR oslashacute
ENCODING 511
SWIDTH 600 0
DWIDTH 11 0
BBX 11 15 0 -1
BITMAP
000000049000
0000003EB000
000003E90000
000006700000
000000000200
0005CEE96E20
009E512DF500
06E2007EF500
0D8008D3D700
1F409D20D700
2F4AC103F300
0EEB100BB000
1DF513BD2000
BA7DFD810000
200000000000
ENDCHAR
STARTCHAR uni0218
ENCODING 536
SWIDTH 600 0
DWIDTH 11 0
BBX 10 16 0 -4
BITMAP
00029DEC60
001DA215E6
005F100020
006F200000
001EC20000
0003DE8000
000018FC10
0000004F70
0000000BA0
0700000D80
1DB302AD10
019DFD9200
0000000000
0006D50000
0002B80000
009D910000
ENDCHAR
STARTCHAR uni0219
ENCODING 537
SWIDTH 600 0
DWIDTH 11 0
BBX 9 13 1 -4
BITMAP
007DFEA300
07D3029E10
0AB0000100
05FA300000
004BFC5000
000029F400
200000D800
BC4115E400
18CFEC5000
0000000000
006D500000
002B900000
09D9100000
ENDCHAR
STARTCHAR uni021A
ENCODING 538
SWIDTH 600 0
DWIDTH 11 0
BBX 11 16 1 -4
BITMAP
2FFFFFFFFF20
00006F000000
00009C000000
0000C9000000
0000F6000000
0003F3000000
0006F1000000
0009C0000000
000BA0000000
000E70000000
002F40000000
005F10000000
000000000000
00DB10000000
004F20000000
1EC500000000
ENDCHAR
STARTCHAR uni021B
ENCODING 539
SWIDTH 600 0
DWIDTH 11 0
BBX 9 16 1 -4
BITMAP
0003E00000
0007B00000
000B800000
8EFFFFFFA0
003F200000
007E000000
00AB000000
00D8000000
01F5000000
02F5000000
00EA115300
004CFDB400
0000000000
0008D30000
0002D60000
00BD800000
ENDCHAR
STARTCHAR uni0237
ENCODING 567
SWIDTH 600 0
DWIDTH 11 0
BBX 9 13 -1 -4
BITMAP
0008FFFFD0
0000000BA0
0000000D70
0000001F50
0000004F20
0000007E00
000000AB00
000000D800
000001F500
000004F200
000009C000
07216F4000
1AEEC40000
ENDCHAR
STARTCHAR uni0243
ENCODING 579
SWIDTH 600 0
DWIDTH 11 0
BBX 10 12 0 0
BITMAP
000EFFED70
002F3015E9
005F0000AC
008C0000C9
00B90028D2
00EFFFFA10
02F3003BB0
05F10001F4
DFFFF801F5
0BA00005F2
0E70026E80
2FFFFDB500
ENDCHAR
STARTCHAR uni0250
ENCODING 592
SWIDTH 600 0
DWIDTH 11 0
BBX 9 9 1 0
BITMAP
0C63AEE900
0FB9304F60
3F60000D70
6F00005F30
9D136AE600
BFECA61000
C800000000
9C2027D100
1AEFD94000
ENDCHAR
STARTCHAR uni0251
ENCODING 593
SWIDTH 600 0
DWIDTH 11 0
BBX 10 9 0 0
BITMAP
0004CEE85D
007F6129EA
03F50000E7
0AC00001F4
0E700004F1
1F600007D0
0E70000BA0
0AE314AE70
01AEE92D40
ENDCHAR
STARTCHAR uni0252
ENCODING 594
SWIDTH 600 0
DWIDTH 11 0
BBX 10 9 0 0
BITMAP
00B74BED50
00EC8218F3
01F60000E8
04F10000CA
07D00000D8
0AA00002F5
0D80000BD0
1FD502AE30
4D2BEEA200
ENDCHAR
STARTCHAR uni0253
ENCODING 595
SWIDTH 600 0
DWIDTH 11 0
BBX 10 13 0 0
BITMAP
00018DEA00
0009C21200
002F300000
006D000000
00AA4CED50
00DC8218F3
01F50000E8
04F10000CA
07D00000D8
0AA00002F5
0D80000AD0
1FD512AE30
4E2BEEA200
ENDCHAR
STARTCHAR uni0254
ENCODING 596
SWIDTH 600 0
DWIDTH 11 0
BBX 10 9 0 0
BITMAP
003AEEC600
01D6116E80
00000007F1
00000004F3
00000004F2
00000008E0
0000003F70
4D4016E900
07DFEB5000
ENDCHAR
STARTCHAR uni0255
ENCODING 597
SWIDTH 600 0
DWIDTH 11 0
BBX 10 11 0 -2
BITMAP
00029DFD81
004E9203C8
01E8000010
07D0000000
0B90000000
0C903BEE60
08E7D517C0
01EF502B80
03E9DFD800
0C70000000
2C10000000
ENDCHAR
STARTCHAR uni0256
ENCODING 598
SWIDTH 600 0
DWIDTH 11 0
BBX 11 17 0 -4
BITMAP
000000000AB0
000000000D80
000000001F50
000000004F20
0004CEE87E00
007F6119EB00
03F50000E800
0AC00001F600
0E700004F300
1F600007F000
0E70000BC000
0AE314AF9000
01AEE92F6000
0000004F4000
0000006F1000
0000006F2000
0000002DE300
ENDCHAR
STARTCHAR uni0257
ENCODING 599
SWIDTH 600 0
DWIDTH 11 0
BBX 13 13 0 0
BITMAP
0000000002BE50
000000000AB100
000000001F5000
000000003F2000
0004CEE87E0000
007F6119EB0000
03F50000E80000
0AC00001F50000
0E700004F20000
1F600007E00000
0E70000BB00000
0AE314AE800000
01AEE91D500000
ENDCHAR
STARTCHAR uni0258
ENCODING 600
SWIDTH 600 0
DWIDTH 11 0
BBX 9 9 1 0
BITMAP
004BEEA200
07E512CD00
3F40002F50
8C00000E70
AFFFFFFF60
0000003F30
000000AC00
99203AE200
3AEFD91000
ENDCHAR
STARTCHAR uni0259
ENCODING 601
SWIDTH 600 0
DWIDTH 11 0
BBX 9 9 1 0
BITMAP
028DFEB300
069302BE10
0000001F60
0000000D80
EFFFFFFF70
F400003F40
E60000BC00
8D313BD200
08DFD81000
ENDCHAR
STARTCHAR uni025A
ENCODING 602
SWIDTH 600 0
DWIDTH 11 0
BBX 12 9 0 0
BITMAP
03ADEC400000
046219F20000
000000ECEA00
00016CFB5C10
04AE94E60CD2
DB5103F10000
F4000AA00000
AC219D100000
1AEE91000000
ENDCHAR
STARTCHAR uni025B
ENCODING 603
SWIDTH 600 0
DWIDTH 11 0
BBX 9 9 1 0
BITMAP
006CEEC700
06F5114D60
0BA0000000
08E3000000
04DFFE0000
8C41000000
F700000000
CD4113A400
19DFFC8100
ENDCHAR
STARTCHAR uni025C
ENCODING 604
SWIDTH 600 0
DWIDTH 11 0
BBX 9 9 1 0
BITMAP
039DEEB300
068312AE10
0000004F20
000013CA00
004FFFA000
000014D900
100000AC00
D93016F600
3ADFEB4000
ENDCHAR
STARTCHAR uni025E
ENCODING 606
SWIDTH 600 0
DWIDTH 11 0
BBX 10 9 0 0
BITMAP
0004BEEC50
009E7118F3
06F30002F4
0D90003AC0
2F502FFC10
2F40003CB0
0E900008E0
06F7115E80
004CFEC600
ENDCHAR
STARTCHAR uni025F
ENCODING 607
SWIDTH 600 0
DWIDTH 11 0
BBX 11 13 -1 -4
BITMAP
0008FFFFD000
0000000BA000
0000000D8000
0000001F5000
000AEEFFFFE0
0000007E0000
000000AB0000
000000D80000
000001F50000
000004F20000
000009C00000
07216F400000
1AEEC4000000
ENDCHAR
STARTCHAR uni0260
ENCODING 608
SWIDTH 600 0
DWIDTH 11 0
BBX 13 15 0 -4
BITMAP
0000000005DE10
000000002F6100
0004CEE86E0000
006F7129EB0000
02F60000E80000
09D00001F50000
0D800004F20000
0F600007E00000
0E80000AB00000
09E413AE800000
019EEA2E500000
0000003F200000
0000009B000000
593128E3000000
29EFDA30000000
ENDCHAR
STARTCHAR uni0261
ENCODING 609
SWIDTH 600 0
DWIDTH 11 0
BBX 10 13 0 -4
BITMAP
0004CED84D
006F612AEA
03F60000E7
09D00001F4
0D800004F1
0F600007D0
0E80000BA0
09E413AE80
019DEA2E50
0000003F10
0000009B00
593128E300
29EFDA2000
ENDCHAR
STARTCHAR uni0262
ENCODING 610
SWIDTH 600 0
DWIDTH 11 0
BBX 9 9 1 0
BITMAP
0029DFD810
05F9203D60
2F70000100
9D00000000
C9006FFF20
D900004E00
AC00007B00
2E9214C800
02AEFC7100
ENDCHAR
STARTCHAR uni0263
ENCODING 611
SWIDTH 600 0
DWIDTH 11 0
BBX 10 13 1 -4
BITMAP
5F100004F3
1F50000C80
0C80007D00
08C002E400
04F00BA000
01F35E1000
00C7D60000
008FB00000
00CE900000
06D6D00000
0D54E00000
0F48B00000
08EC200000
ENDCHAR
STARTCHAR uni0264
ENCODING 612
SWIDTH 600 0
DWIDTH 11 0
BBX 10 9 1 0
BITMAP
2DE912AED1
013DCE9120
0009FC0000
009D6F5000
06E20AC000
0E6006E000
3F2008B000
2F715E4000
06DFC40000
ENDCHAR
STARTCHAR uni0265
ENCODING 613
SWIDTH 600 0
DWIDTH 11 0
BBX 9 13 1 -4
BITMAP
0D800009C0
1F50000C90
4F20000E60
7E00002F30
AB00005F10
D800008D00
F60003EA00
DB1278E700
4DEB42F400
000005F100
000008D000
00000AA000
00000D7000
ENDCHAR
STARTCHAR uni0266
ENCODING 614
SWIDTH 600 0
DWIDTH 11 0
BBX 10 13 0 0
BITMAP
00018DEA00
0009C31200
002F300000
006D000000
00AA18DEA0
00D9A414F6
01FA0000E7
04F10001F6
07D00003F3
0AA00006F0
0D700009C0
1F40000C90
4F20000F60
ENDCHAR
STARTCHAR uni0267
ENCODING 615
SWIDTH 600 0
DWIDTH 11 0
BBX 10 17 0 -4
BITMAP
00018DEA00
0009C31200
002F300000
006D000000
00AA18DEA0
00D9A414F5
01FA0000E7
04F10000F6
07D00003F3
0AA00005F1
0D700008D0
1F40000BA0
4F20000D70
0000001F40
0000004F10
000011AB00
00008FC200
ENDCHAR
STARTCHAR uni0268
ENCODING 616
SWIDTH 600 0
DWIDTH 11 0
BBX 8 13 1 0
BITMAP
00008E40
0000AE30
00000000
00000000
0FFFF900
0000F600
0003F300
0006E000
6EFFFFFA
000D8000
001F5000
000F9132
0005DFD5
ENDCHAR
STARTCHAR uni026A
ENCODING 618
SWIDTH 600 0
DWIDTH 11 0
BBX 10 9 0 0
BITMAP
00AFFFFFF8
00000F6000
00003F4000
00006F1000
00008D0000
0000BA0000
0000E80000
0002F50000
2FFFFFFF00
ENDCHAR
STARTCHAR uni026B
ENCODING 619
SWIDTH 600 0
DWIDTH 11 0
BBX 8 13 1 0
BITMAP
05FFFE00
0000AB00
0000D800
0001F500
0168F123
0BAFF1B5
2C0BFEA0
000E7000
002F4000
005F1000
007E0000
005F3140
0009EEB2
ENDCHAR
STARTCHAR uni026C
ENCODING 620
SWIDTH 600 0
DWIDTH 11 0
BBX 8 13 1 0
BITMAP
05FFFE00
0000AB00
0000D700
0001F400
3DE7F100
7B1CC000
2BEFFFF2
000E6000
002F3000
005F1000
007E0000
005F4140
0009EEB2
ENDCHAR
STARTCHAR uni026D
ENCODING 621
SWIDTH 600 0
DWIDTH 11 0
BBX 6 17 2 -4
BITMAP
5FFFE0
000AB0
000D80
001F50
004F20
007E00
00AC00
00D900
01F600
03F300
06F000
09C000
0C9000
0F6000
1F4000
0E9123
04DFD5
ENDCHAR
STARTCHAR uni026E
ENCODING 622
SWIDTH 600 0
DWIDTH 11 0
BBX 11 17 0 -4
BITMAP
002F30000000
005F00000000
008C00000000
00B900000000
00EFFFFFFF50
02F30001C800
05F0001C8000
08C001D80000
0B901D800000
0E70BFFD4000
2F40212CD000
5F100004F200
8D000003F200
00000006E000
0000000D8000
03D412BC0000
007DFE810000
ENDCHAR
STARTCHAR uni026F
ENCODING 623
SWIDTH 600 0
DWIDTH 11 0
BBX 11 9 0 0
BITMAP
07D00B900F50
0AA00E603F20
0D702F306E00
1F505F009B00
4F208C00C800
7E00B900E600
AB01E603F300
BB19F72BE000
7EC39EA6C000
ENDCHAR
STARTCHAR uni0270
ENCODING 624
SWIDTH 600 0
DWIDTH 11 0
BBX 11 13 0 -4
BITMAP
08D00C801F50
0BA00E504F20
0E702F207E00
2F405E009B00
5F108B00C800
8D00B800F500
BA01E504F200
CB19F63CE000
7EC3AE98C000
0000000B9000
0000000E6000
0000001F3000
0000004F0000
ENDCHAR
STARTCHAR uni0271
ENCODING 625
SWIDTH 600 0
DWIDTH 11 0
BBX 11 13 0 -4
BITMAP
05C5DE28EC00
08E71ED45F30
0BA00E604F20
0E602F207E00
2F305E009C00
5F108B00C900
8D00B800F600
BA00E602F300
E702F305F000
00000008C000
0000000B9000
0000012F4000
00000AE90000
ENDCHAR
STARTCHAR uni0272
ENCODING 626
SWIDTH 600 0
DWIDTH 11 0
BBX 12 13 -2 -4
BITMAP
0000B718DEB1
0000D8B414F6
0001FA0000E8
0004F10001F6
0006D00003F3
0009B00006F0
000C800009C0
000E50000C90
002F30000F60
005F00000000
008C00000000
11D700000000
7EA000000000
ENDCHAR
STARTCHAR uni0273
ENCODING 627
SWIDTH 600 0
DWIDTH 11 0
BBX 10 13 0 -4
BITMAP
008518DEA0
00D8B414F6
01FA0000E8
04F10000F7
07D00003F4
0AA00005F1
0D700008D0
1F40000BB0
4F20000E80
0000001F50
0000004F20
0000004F30
0000001CF5
ENDCHAR
STARTCHAR uni0274
ENCODING 628
SWIDTH 600 0
DWIDTH 11 0
BBX 9 9 1 0
BITMAP
07F3001F50
0AF9003F20
0DAE106E00
1F4D609B00
3F18C0C800
6E02F3E500
9B00AAF300
C8004FF000
F5000DC000
ENDCHAR
STARTCHAR uni0275
ENCODING 629
SWIDTH 600 0
DWIDTH 11 0
BBX 10 9 0 0
BITMAP
0005CEE910
009E512CC0
06E30002F4
0D900000D7
2FFFFFFFF7
2F300002F3
0E60000AB0
07E413AD20
007DFD8100
ENDCHAR
STARTCHAR uni0276
ENCODING 630
SWIDTH 600 0
DWIDTH 11 0
BBX 12 9 0 0
BITMAP
004BEFFFFFF2
06E612F74440
2F6004F20000
9D0007E00000
D80009FFFB00
E7000C800000
C9000F500000
7E404F200000
07DFFFFFFC00
ENDCHAR
STARTCHAR uni0278
ENCODING 632
SWIDTH 600 0
DWIDTH 11 0
BBX 10 17 0 -4
BITMAP
000000D900
000001F600
000004F300
000007F000
0018DFFB30
02DA2D98F4
0DA01F50BC
5F204F207F
8D008E007E
9D00BB00BB
6F20E804F4
0DB4F56E80
01AEFEB400
0008D00000
000BB00000
000E800000
001F500000
ENDCHAR
STARTCHAR uni0279
ENCODING 633
SWIDTH 600 0
DWIDTH 11 0
BBX 9 9 0 0
BITMAP
00000009B0
0000000C90
0000000E60
0000002F30
0000005F00
000000AC00
000007C900
0303A4C600
2EEB30E300
ENDCHAR
STARTCHAR uni027A
ENCODING 634
SWIDTH 600 0
DWIDTH 11 0
BBX 10 13 0 0
BITMAP
00000000AB
00000000D7
00000001F4
00000004F1
00000007D0
0000000AA0
0000000D70
0000001F40
0000004F10
0000009D00
000007D900
0303A5C600
3EEB30E300
ENDCHAR
STARTCHAR uni027B
ENCODING 635
SWIDTH 600 0
DWIDTH 11 0
BBX 8 13 0 -4
BITMAP
000000D8
000001F5
000004F2
000006E0
000009C0
00000C90
00003F60
0304AF30
3EE95F10
00007D00
00009B00
00009C12
00003DE6
ENDCHAR
STARTCHAR uni027D
ENCODING 637
SWIDTH 600 0
DWIDTH 11 0
BBX 9 13 1 -4
BITMAP
009806DEA0
00C6871120
00FA400000
03F5000000
05E0000000
08B0000000
0B90000000
0E60000000
1F40000000
4F20000000
5F20000000
2F81350000
06DEC70000
ENDCHAR
STARTCHAR uni027E
ENCODING 638
SWIDTH 600 0
DWIDTH 11 0
BBX 9 9 1 0
BITMAP
0002ADFEA0
003E920230
00CA000000
02F4000000
05F0000000
08C0000000
0B90000000
0E70000000
2F40000000
ENDCHAR
STARTCHAR uni0280
ENCODING 640
SWIDTH 600 0
DWIDTH 11 0
BBX 9 9 1 0
BITMAP
01FFFFD600
04F1018F20
07D0004F20
0AA003CB00
0DFFFE8100
1F406E0000
4F101F5000
7E000AB000
9B0005F200
ENDCHAR
STARTCHAR uni0281
ENCODING 641
SWIDTH 600 0
DWIDTH 11 0
BBX 9 9 1 0
BITMAP
0AB0004F10
04F2007D00
00D700AA00
008C00C700
04CFFFF400
4F6103F200
BB0006E000
AD2009B000
2BEFFF8000
ENDCHAR
STARTCHAR uni0282
ENCODING 642
SWIDTH 600 0
DWIDTH 11 0
BBX 10 13 0 -4
BITMAP
0007DFEA30
007D3029E1
00AB000010
005FA30000
0004BFC500
0000029F40
0200000D80
1EC4115E40
3F7CEEC500
6D00000000
8C00000000
7D10000000
1CF4000000
ENDCHAR
STARTCHAR uni0283
ENCODING 643
SWIDTH 600 0
DWIDTH 11 0
BBX 13 17 -1 -4
BITMAP
00000001AEEA10
0000000AB22700
0000002F400000
0000005F000000
0000008C000000
000000BA000000
000000E7000000
000002F4000000
000005F1000000
000008D0000000
00000BA0000000
00000E70000000
00001F40000000
00004F10000000
00008D00000000
0612D700000000
1BEE8000000000
ENDCHAR
STARTCHAR uni0284
ENCODING 644
SWIDTH 600 0
DWIDTH 11 0
BBX 13 17 -1 -4
BITMAP
00000001AEEA10
0000000AC22700
0000002F400000
0000005F100000
0000008D000000
000000BA000000
000000E7000000
000002F4000000
006EEFFFFF3000
000008D0000000
00000BA0000000
00000E70000000
00001F40000000
00004F10000000
00008D00000000
0612D700000000
1BEE8000000000
ENDCHAR
STARTCHAR uni0287
ENCODING 647
SWIDTH 600 0
DWIDTH 11 0
BBX 9 12 0 -3
BITMAP
008DEE9000
007315F500
000000D800
000000E700
000002F400
000005F100
000008D000
00000BA000
4FFFFFFFE0
00002F2000
00005E0000
00008A0000
ENDCHAR
STARTCHAR uni0288
ENCODING 648
SWIDTH 600 0
DWIDTH 11 0
BBX 9 16 1 -4
BITMAP
0003E00000
0007B00000
000B800000
8EFFFFFFA0
003F200000
006E000000
009C000000
00C9000000
00E6000000
02F3000000
05F1000000
08D0000000
0AA0000000
0BA0000000
07E3135000
01AEEC7000
ENDCHAR
STARTCHAR uni0289
ENCODING 649
SWIDTH 600 0
DWIDTH 11 0
BBX 11 9 0 0
BITMAP
006F0002F400
009C0005F100
00C90008D000
8EFFFFFFFF30
03F2000E7000
06F0001F4000
08D0006F1000
06F317CE0000
01BEC47B0000
ENDCHAR
STARTCHAR uni028A
ENCODING 650
SWIDTH 600 0
DWIDTH 11 0
BBX 10 9 1 0
BITMAP
3FFF13FFF1
02D500C500
0C70006D00
5E10004F10
BA00005F00
D800009C00
C90002F500
7F514D9000
07DFC60000
ENDCHAR
STARTCHAR uni028B
ENCODING 651
SWIDTH 600 0
DWIDTH 11 0
BBX 9 9 1 0
BITMAP
0D800BEA00
1F50004F50
4F20000D70
7E00000E60
AB00002F30
D800009D00
D90003E600
8E414E9000
08DFC60000
ENDCHAR
STARTCHAR uni028C
ENCODING 652
SWIDTH 600 0
DWIDTH 11 0
BBX 9 9 0 0
BITMAP
00001EF000
00009AF300
0003E2D700
000C80AA00
006E107D00
01E6003F10
08C0001F50
2F40000C80
BA000009B0
ENDCHAR
STARTCHAR uni028D
ENCODING 653
SWIDTH 600 0
DWIDTH 11 0
BBX 11 9 -1 0
BITMAP
0005FA009F60
000BDA01ED60
002F7B07AC70
008B5B0D5C70
00E55B4D0C70
05E04BA70C80
0B804CE10C80
2F203FA00C90
8C0028300B90
ENDCHAR
STARTCHAR uni028E
ENCODING 654
SWIDTH 600 0
DWIDTH 11 0
BBX 12 13 0 0
BITMAP
000000019EE3
0000000CA120
0000008D0000
000003F40000
00000CC00000
00006DE00000
0001E3E30000
000AA0B70000
004E208B0000
00D7004E0000
08D0001F4000
2F40000C7000
BA000009B000
ENDCHAR
STARTCHAR uni028F
ENCODING 655
SWIDTH 600 0
DWIDTH 11 0
BBX 8 9 2 0
BITMAP
D90000BB
7E1008D1
1F604E30
0AB1E500
04FB8000
00DC0000
00E70000
02F50000
04F20000
ENDCHAR
STARTCHAR uni0290
ENCODING 656
SWIDTH 600 0
DWIDTH 11 0
BBX 10 13 0 -4
BITMAP
00DFFFFFF8
0000001CB0
000001CC10
00000BC100
0000AD2000
0009D20000
009E300000
08E3000000
4FFFFFFF70
0000002F50
0000004F30
0000003F41
0000000AF7
ENDCHAR
STARTCHAR uni0291
ENCODING 657
SWIDTH 600 0
DWIDTH 11 0
BBX 11 11 0 -2
BITMAP
00DFFFFFF500
0000002D9000
000001DA0000
00001CB00000
0001BC100000
000BC108EB00
00AD10991E10
09E204C16B00
4FFFFFFE9100
00004B000000
000095000000
ENDCHAR
STARTCHAR uni0292
ENCODING 658
SWIDTH 600 0
DWIDTH 11 0
BBX 11 13 -1 -4
BITMAP
0007FFFFFF70
00000002D900
0000003E7000
000005E50000
00006E300000
0006FFFB2000
0002203CD000
00000003F400
00000001F400
00000003F100
0100000CA000
1E8203BC1000
03AEFD710000
ENDCHAR
STARTCHAR uni0294
ENCODING 660
SWIDTH 600 0
DWIDTH 11 0
BBX 8 13 2 0
BITMAP
05BEFC60
5E6116F6
010000AC
000000AC
000001E8
00001BD1
0005DC20
00AE6000
00F60000
03F30000
06F00000
09C00000
0C900000
ENDCHAR
STARTCHAR uni0295
ENCODING 661
SWIDTH 600 0
DWIDTH 11 0
BBX 9 13 2 0
BITMAP
005CFEB300
07E5118E30
2F50000400
5F10000000
5F20000000
1F80000000
07F7000000
007F600000
001F400000
004F100000
007D000000
00BA000000
00E7000000
ENDCHAR
STARTCHAR uni0298
ENCODING 664
SWIDTH 600 0
DWIDTH 11 0
BBX 9 13 1 0
BITMAP
0005CED600
007E515F30
04F3000AA0
0C900007D0
3F300006E0
7D03E707D0
AA04E509B0
B800000C80
C800001F40
B800008D00
8B0002E500
2F614D9000
04DFC60000
ENDCHAR
STARTCHAR uni0299
ENCODING 665
SWIDTH 600 0
DWIDTH 11 0
BBX 9 9 1 0
BITMAP
03FFFFD600
06F0018F20
08D0004F20
0BA002CA00
0EFFFFC100
2F4003DA00
5F1000AB00
8D0015F500
BFFFEC5000
ENDCHAR
STARTCHAR uni029C
ENCODING 668
SWIDTH 600 0
DWIDTH 11 0
BBX 10 9 0 0
BITMAP
00BA0000BA
00E80000E7
02F50001F4
05F20004F1
08FFFFFFD0
0AB0000BA0
0D80000E70
1F50001F40
4F20004F10
ENDCHAR
STARTCHAR uni029D
ENCODING 669
SWIDTH 600 0
DWIDTH 11 0
BBX 9 18 0 -5
BITMAP
0000004E80
0000006E60
0000000000
0000000000
008FFFFD00
000000BA00
000000E700
000001F400
000004F200
000007E000
00000AB000
00000D8000
00001F5000
3CEC9F1000
C715ED0000
E606FF4000
5DFC3AB000
0000059000
ENDCHAR
STARTCHAR uni029E
ENCODING 670
SWIDTH 600 0
DWIDTH 11 0
BBX 10 13 0 -4
BITMAP
07E10000E7
01E70001F4
007E1003F1
001E703BD0
0007EACCA0
0003FA1D80
004E801F50
06E6004F20
8E40007E00
000000AB00
000000D800
000001F500
000003F200
ENDCHAR
STARTCHAR uni029F
ENCODING 671
SWIDTH 600 0
DWIDTH 11 0
BBX 7 9 2 0
BITMAP
07E00000
0AB00000
0D800000
1F500000
4F200000
6E000000
9C000000
C9000000
FFFFFFC0
ENDCHAR
STARTCHAR uni02A1
ENCODING 673
SWIDTH 600 0
DWIDTH 11 0
BBX 9 13 1 0
BITMAP
005BEFC600
05E6115F70
0010000AC0
0000000BB0
0000002F50
000003D800
00029C4000
6EFFFFFE00
001F500000
004F200000
007E000000
009C000000
00C9000000
ENDCHAR
STARTCHAR uni02A2
ENCODING 674
SWIDTH 600 0
DWIDTH 11 0
BBX 10 13 1 0
BITMAP
0005CFEB30
008E5118E3
02F5000040
05F1000000
04F3000000
00DB000000
002DA10000
4EEFFFFF10
0003F30000
0006F00000
0008D00000
000BA00000
000E700000
ENDCHAR
STARTCHAR uni02A4
ENCODING 676
SWIDTH 600 0
DWIDTH 11 0
BBX 13 17 -1 -4
BITMAP
0000000D700000
0000001F400000
0000004F100000
0000006D000000
002BEB9FFFFF90
01D917F6004E20
07D001F301E600
0E7004F10AA000
2F3007D05E1000
4F2009A1E50000
3F200C77FE9000
1E818F4114F400
06EC4F1000E700
0000000000F500
0000000006E100
00000A515E6000
000005DFD50000
ENDCHAR
STARTCHAR uni02A6
ENCODING 678
SWIDTH 600 0
DWIDTH 11 0
BBX 10 12 1 0
BITMAP
0073000000
01F2000000
05E0000000
DFFFFFFE91
0D705F4170
1F405E0000
5F101DB100
8D0001CD10
BA00001E70
C900000D70
8E41029E20
19DFFD9200
ENDCHAR
STARTCHAR uni02A7
ENCODING 679
SWIDTH 600 0
DWIDTH 11 0
BBX 12 17 1 -4
BITMAP
000000007DE1
003E0006E310
007B000BA000
00B8000F7000
5EFFFFFF4000
04F2006F1000
07E0009D0000
0AB000CA0000
0D8000E70000
1F5002F40000
3F2005F10000
3F5108D00000
09EE3BA00000
00000D700000
00001F400000
00018D000000
005FC3000000
ENDCHAR
STARTCHAR h.sups
ENCODING 688
SWIDTH 600 0
DWIDTH 11 0
BBX 7 9 3 7
BITMAP
00710000
02E00000
05B00000
089AEC10
0BB31E40
0E300E30
2E002F00
4C004C00
78007900
ENDCHAR
STARTCHAR j.sups
ENCODING 690
SWIDTH 600 0
DWIDTH 11 0
BBX 7 11 2 4
BITMAP
00000C70
00000000
00BFFD00
00005A00
00008700
0000B400
0000E200
0002E000
0005B000
321C6000
6DE80000
ENDCHAR
STARTCHAR r.sups
ENCODING 691
SWIDTH 600 0
DWIDTH 11 0
BBX 6 6 4 7
BITMAP
0A5AF8
0DC401
1F3000
4D0000
7A0000
960000
ENDCHAR
STARTCHAR w.sups
ENCODING 695
SWIDTH 600 0
DWIDTH 11 0
BBX 9 6 2 7
BITMAP
4B01E40780
3C07D50D20
1D0D865A00
0E5967C300
0EB25BB000
0DA04F5000
ENDCHAR
STARTCHAR y.sups
ENCODING 696
SWIDTH 600 0
DWIDTH 11 0
BBX 8 8 2 5
BITMAP
00E200A6
00B504C0
00780C30
004B5900
000DC100
000D6000
118B0000
6EB10000
ENDCHAR
STARTCHAR uni02B9
ENCODING 697
SWIDTH 600 0
DWIDTH 11 0
BBX 3 5 5 8
BITMAP
09B0
0D60
2F10
6A00
A400
ENDCHAR
STARTCHAR uni02BB
ENCODING 699
SWIDTH 600 0
DWIDTH 11 0
BBX 5 6 4 7
BITMAP
002980
03D710
0D5000
4FE400
5FF600
2DC100
ENDCHAR
STARTCHAR uni02BC
ENCODING 700
SWIDTH 600 0
DWIDTH 11 0
BBX 4 6 4 7
BITMAP
05E9
0CFF
09FE
00B7
3AB0
C700
ENDCHAR
STARTCHAR uni02BE
ENCODING 702
SWIDTH 600 0
DWIDTH 11 0
BBX 5 6 4 9
BITMAP
08D500
005E10
000E40
003E10
29D500
241000
ENDCHAR
STARTCHAR uni02BF
ENCODING 703
SWIDTH 600 0
DWIDTH 11 0
BBX 4 6 5 9
BITMAP
0024
1BC6
9A00
C500
9A10
1BE0
ENDCHAR
STARTCHAR uni02C1
ENCODING 705
SWIDTH 600 0
DWIDTH 11 0
BBX 6 8 4 8
BITMAP
05DEA1
3D3176
880000
7A0000
1D7000
02F000
03C000
011000
ENDCHAR
STARTCHAR circumflex
ENCODING 710
SWIDTH 600 0
DWIDTH 11 0
BBX 7 3 3 10
BITMAP
006FD100
07D3B900
2B101B10
ENDCHAR
STARTCHAR caron
ENCODING 711
SWIDTH 600 0
DWIDTH 11 0
BBX 6 3 4 10
BITMAP
A30086
5E3BA0
0AFA00
ENDCHAR
STARTCHAR uni02C8
ENCODING 712
SWIDTH 600 0
DWIDTH 11 0
BBX 3 6 5 7
BITMAP
1F90
3F50
5F10
6C00
8800
6300
ENDCHAR
STARTCHAR uni02C9
ENCODING 713
SWIDTH 600 0
DWIDTH 11 0
BBX 5 1 4 11
BITMAP
BFFFD0
ENDCHAR
STARTCHAR uni02CA
ENCODING 714
SWIDTH 600 0
DWIDTH 11 0
BBX 4 4 5 10
BITMAP
0049
03EB
3E90
6700
ENDCHAR
STARTCHAR uni02CB
ENCODING 715
SWIDTH 600 0
DWIDTH 11 0
BBX 4 4 4 10
BITMAP
1B20
1DB0
03F5
0068
ENDCHAR
STARTCHAR uni02CC
ENCODING 716
SWIDTH 600 0
DWIDTH 11 0
BBX 3 6 2 -5
BITMAP
01E0
05C0
09B0
0D90
1F70
5F50
ENDCHAR
STARTCHAR uni02D0
ENCODING 720
SWIDTH 600 0
DWIDTH 11 0
BBX 5 9 3 0
BITMAP
06FF30
01F800
00A000
000000
000000
000000
091000
3F6000
DFA000
ENDCHAR
STARTCHAR uni02D1
ENCODING 721
SWIDTH 600 0
DWIDTH 11 0
BBX 4 3 4 6
BITMAP
6FF3
1F80
0A00
ENDCHAR
STARTCHAR breve
ENCODING 728
SWIDTH 600 0
DWIDTH 11 0
BBX 6 4 4 10
BITMAP
100001
E10088
B815D1
3CEB30
ENDCHAR
STARTCHAR dotaccent
ENCODING 729
SWIDTH 600 0
DWIDTH 11 0
BBX 3 2 5 11
BITMAP
4E80
5E70
ENDCHAR
STARTCHAR ring
ENCODING 730
SWIDTH 600 0
DWIDTH 11 0
BBX 5 4 4 10
BITMAP
06ED20
2D1880
4C1A60
0BEA00
ENDCHAR
STARTCHAR ogonek
ENCODING 731
SWIDTH 600 0
DWIDTH 11 0
BBX 4 4 2 -4
BITMAP
0880
6800
B711
6ED4
ENDCHAR
STARTCHAR tilde
ENCODING 732
SWIDTH 600 0
DWIDTH 11 0
BBX 7 3 3 10
BITMAP
02720160
1E9D37A0
6804DC20
ENDCHAR
STARTCHAR hungarumlaut
ENCODING 733
SWIDTH 600 0
DWIDTH 11 0
BBX 7 3 4 10
BITMAP
00871B30
06C1A900
1B14A000
ENDCHAR
STARTCHAR uni02DE
ENCODING 734
SWIDTH 600 0
DWIDTH 11 0
BBX 5 4 3 4
BITMAP
000100
16C800
499A10
002DC0
ENDCHAR
STARTCHAR uni02E0
ENCODING 736
SWIDTH 600 0
DWIDTH 11 0
BBX 6 9 4 4
BITMAP
E00079
B402D1
870A60
4B5C00
1ED300
0DB000
67D000
C3D000
9E6000
ENDCHAR
STARTCHAR l.sups
ENCODING 737
SWIDTH 600 0
DWIDTH 11 0
BBX 4 9 5 7
BITMAP
AFC0
0690
0A60
0D30
1F00
4C00
7900
8911
4EE3
ENDCHAR
STARTCHAR s.sups
ENCODING 738
SWIDTH 600 0
DWIDTH 11 0
BBX 6 6 3 7
BITMAP
02CFD5
099136
04C610
0017D1
4922D4
09EE90
ENDCHAR
STARTCHAR x.sups
ENCODING 739
SWIDTH 600 0
DWIDTH 11 0
BBX 7 6 3 7
BITMAP
06A04D10
01E3D200
009E5000
02DD3000
1D56A000
7700B100
ENDCHAR
STARTCHAR uni02E4
ENCODING 740
SWIDTH 600 0
DWIDTH 11 0
BBX 6 9 4 7
BITMAP
05DEA1
3D3176
880000
7A0000
1D7000
02F000
03C000
069000
065000
ENDCHAR
STARTCHAR uni0300
ENCODING 768
SWIDTH 600 0
DWIDTH 11 0
BBX 4 4 4 10
BITMAP
1B20
1DB0
03F5
0068
ENDCHAR
STARTCHAR uni0301
ENCODING 769
SWIDTH 600 0
DWIDTH 11 0
BBX 4 4 5 10
BITMAP
0049
03EB
3E90
6700
ENDCHAR
STARTCHAR uni0302
ENCODING 770
SWIDTH 600 0
DWIDTH 11 0
BBX 7 3 3 10
BITMAP
006FD100
07D3B900
2B101B10
ENDCHAR
STARTCHAR uni0303
ENCODING 771
SWIDTH 600 0
DWIDTH 11 0
BBX 7 3 3 10
BITMAP
02720160
1E9D37A0
6804DC20
ENDCHAR
STARTCHAR uni0304
ENCODING 772
SWIDTH 600 0
DWIDTH 11 0
BBX 5 1 4 11
BITMAP
BFFFD0
ENDCHAR
STARTCHAR uni0305
ENCODING 773
SWIDTH 600 0
DWIDTH 11 0
BBX 5 1 4 11
BITMAP
BFFFD0
ENDCHAR
STARTCHAR uni0306
ENCODING 774
SWIDTH 600 0
DWIDTH 11 0
BBX 6 4 4 10
BITMAP
100001
E10088
B815D1
3CEB30
ENDCHAR
STARTCHAR uni0307
ENCODING 775
SWIDTH 600 0
DWIDTH 11 0
BBX 3 2 5 11
BITMAP
4E80
5E70
ENDCHAR
STARTCHAR uni0308
ENCODING 776
SWIDTH 600 0
DWIDTH 11 0
BBX 6 2 4 11
BITMAP
B906E1
C807D1
ENDCHAR
STARTCHAR uni0309
ENCODING 777
SWIDTH 600 0
DWIDTH 11 0
BBX 4 4 5 10
BITMAP
4E70
05F1
07D0
4B30
ENDCHAR
STARTCHAR uni030A
ENCODING 778
SWIDTH 600 0
DWIDTH 11 0
BBX 5 4 4 10
BITMAP
06ED20
2D1880
4C1A60
0BEA00
ENDCHAR
STARTCHAR uni030B
ENCODING 779
SWIDTH 600 0
DWIDTH 11 0
BBX 7 3 4 10
BITMAP
00871B30
06C1A900
1B14A000
ENDCHAR
STARTCHAR uni030C
ENCODING 780
SWIDTH 600 0
DWIDTH 11 0
BBX 6 3 4 10
BITMAP
A30086
5E3BA0
0AFA00
ENDCHAR
STARTCHAR uni030F
ENCODING 783
SWIDTH 600 0
DWIDTH 11 0
BBX 5 4 3 10
BITMAP
961C20
8A0C60
3E07A0
0B21B0
ENDCHAR
STARTCHAR uni0310
ENCODING 784
SWIDTH 600 0
DWIDTH 11 0
BBX 6 5 4 10
BITMAP
005700
10EE01
E0325A
C714D2
3CEC30
ENDCHAR
STARTCHAR uni0311
ENCODING 785
SWIDTH 600 0
DWIDTH 11 0
BBX 7 4 3 9
BITMAP
019EE500
0B816E00
4B000D10
01000100
ENDCHAR
STARTCHAR uni0312
ENCODING 786
SWIDTH 600 0
DWIDTH 11 0
BBX 3 4 5 10
BITMAP
0770
5900
9E20
5E20
ENDCHAR
STARTCHAR uni0313
ENCODING 787
SWIDTH 600 0
DWIDTH 11 0
BBX 3 4 5 10
BITMAP
1D70
1EA0
0860
5800
ENDCHAR
STARTCHAR uni0318
ENCODING 792
SWIDTH 600 0
DWIDTH 11 0
BBX 4 5 2 -5
BITMAP
0012
0076
9FF4
00C1
0040
ENDCHAR
STARTCHAR uni0319
ENCODING 793
SWIDTH 600 0
DWIDTH 11 0
BBX 4 5 2 -5
BITMAP
2200
9400
BFF1
D000
4000
ENDCHAR
STARTCHAR uni031A
ENCODING 794
SWIDTH 600 0
DWIDTH 11 0
BBX 3 3 6 10
BITMAP
DFF0
01C0
0270
ENDCHAR
STARTCHAR uni031B
ENCODING 795
SWIDTH 600 0
DWIDTH 11 0
BBX 4 4 5 8
BITMAP
003B
004D
02C9
2D81
ENDCHAR
STARTCHAR uni031C
ENCODING 796
SWIDTH 600 0
DWIDTH 11 0
BBX 3 4 2 -5
BITMAP
09C0
7A10
8800
3D50
ENDCHAR
STARTCHAR uni031D
ENCODING 797
SWIDTH 600 0
DWIDTH 11 0
BBX 5 3 1 -4
BITMAP
007600
00A400
1FFF40
ENDCHAR
STARTCHAR uni031E
ENCODING 798
SWIDTH 600 0
DWIDTH 11 0
BBX 4 3 2 -5
BITMAP
CFF8
0B20
0D00
ENDCHAR
STARTCHAR uni031F
ENCODING 799
SWIDTH 600 0
DWIDTH 11 0
BBX 4 5 2 -5
BITMAP
0220
0850
EFF6
0D00
0400
ENDCHAR
STARTCHAR uni0320
ENCODING 800
SWIDTH 600 0
DWIDTH 11 0
BBX 4 1 2 -3
BITMAP
EFF6
ENDCHAR
STARTCHAR uni0323
ENCODING 803
SWIDTH 600 0
DWIDTH 11 0
BBX 3 2 2 -4
BITMAP
3EA0
4E80
ENDCHAR
STARTCHAR uni0324
ENCODING 804
SWIDTH 600 0
DWIDTH 11 0
BBX 6 2 1 -3
BITMAP
8C03E3
9B04E2
ENDCHAR
STARTCHAR uni0325
ENCODING 805
SWIDTH 600 0
DWIDTH 11 0
BBX 5 4 1 -5
BITMAP
05ED30
1D2790
2D1970
0AEA10
ENDCHAR
STARTCHAR uni0326
ENCODING 806
SWIDTH 600 0
DWIDTH 11 0
BBX 5 3 1 -4
BITMAP
00DB10
004F10
1EC500
ENDCHAR
STARTCHAR uni0327
ENCODING 807
SWIDTH 600 0
DWIDTH 11 0
BBX 5 5 1 -5
BITMAP
006700
01EB00
004F20
017D00
2EA200
ENDCHAR
STARTCHAR uni0328
ENCODING 808
SWIDTH 600 0
DWIDTH 11 0
BBX 4 4 2 -4
BITMAP
0880
6800
B711
6ED4
ENDCHAR
STARTCHAR uni0329
ENCODING 809
SWIDTH 600 0
DWIDTH 11 0
BBX 3 4 2 -5
BITMAP
0860
0B40
0E20
2F00
ENDCHAR
STARTCHAR uni032A
ENCODING 810
SWIDTH 600 0
DWIDTH 11 0
BBX 6 3 1 -4
BITMAP
4FFFF1
6600C0
630180
ENDCHAR
STARTCHAR uni032C
ENCODING 812
SWIDTH 600 0
DWIDTH 11 0
BBX 6 3 1 -4
BITMAP
760068
2E49C1
07FC10
ENDCHAR
STARTCHAR uni032E
ENCODING 814
SWIDTH 600 0
DWIDTH 11 0
BBX 6 4 1 -4
BITMAP
100001
B4005A
9B14D3
1BEC40
ENDCHAR
STARTCHAR uni032F
ENCODING 815
SWIDTH 600 0
DWIDTH 11 0
BBX 7 4 0 -6
BITMAP
008EE700
08A14E20
1D000B40
01000100
ENDCHAR
STARTCHAR uni0330
ENCODING 816
SWIDTH 600 0
DWIDTH 11 0
BBX 8 3 0 -4
BITMAP
01740061
0CAD54D0
3B02CD40
ENDCHAR
STARTCHAR uni0331
ENCODING 817
SWIDTH 600 0
DWIDTH 11 0
BBX 5 1 1 -3
BITMAP
8FFFF0
ENDCHAR
STARTCHAR uni0334
ENCODING 820
SWIDTH 600 0
DWIDTH 11 0
BBX 8 3 1 3
BITMAP
01640023
0BAC91B5
2C009EA0
ENDCHAR
STARTCHAR uni0339
ENCODING 825
SWIDTH 600 0
DWIDTH 11 0
BBX 3 4 2 -5
BITMAP
0D70
02E0
05C0
7C30
ENDCHAR
STARTCHAR uni033A
ENCODING 826
SWIDTH 600 0
DWIDTH 11 0
BBX 6 3 1 -4
BITMAP
270081
5700C0
8FFFB0
ENDCHAR
STARTCHAR uni033B
ENCODING 827
SWIDTH 600 0
DWIDTH 11 0
BBX 6 3 1 -4
BITMAP
3FFFF1
6600C0
9FFFA0
ENDCHAR
STARTCHAR uni033C
ENCODING 828
SWIDTH 600 0
DWIDTH 11 0
BBX 7 2 0 -4
BITMAP
09E9AE50
4A1D4680
ENDCHAR
STARTCHAR uni033D
ENCODING 829
SWIDTH 600 0
DWIDTH 11 0
BBX 4 3 5 10
BITMAP
76A1
4F60
B690
ENDCHAR
STARTCHAR uni0342
ENCODING 834
SWIDTH 600 0
DWIDTH 11 0
BBX 7 3 3 10
BITMAP
02720160
1E9D37A0
6804DC20
ENDCHAR
STARTCHAR uni0345
ENCODING 837
SWIDTH 600 0
DWIDTH 11 0
BBX 3 3 3 -4
BITMAP
9800
A700
7E30
ENDCHAR
STARTCHAR uni035F
ENCODING 863
SWIDTH 600 0
DWIDTH 11 0
BBX 18 1 -5 -3
BITMAP
FFFFFFFFFFFFFFFFF8
ENDCHAR
STARTCHAR uni0361
ENCODING 865
SWIDTH 600 0
DWIDTH 11 0
BBX 17 3 -2 11
BITMAP
000159CEEFEC940000
03AD953101247BD600
4A3000000000002A60
ENDCHAR
STARTCHAR pi
ENCODING 960
SWIDTH 600 0
DWIDTH 11 0
BBX 10 9 1 0
BITMAP
AFFFFFFFF9
03F1008C00
06D000B800
09A000E500
0C7003F200
1F4006E000
4F1009B000
8C000AA100
C80005EC00
ENDCHAR
STARTCHAR a.sups
ENCODING 7491
SWIDTH 600 0
DWIDTH 11 0
BBX 7 6 3 7
BITMAP
03CEAC20
2E515E00
98005B00
C5008800
B914D500
3DE89200
ENDCHAR
STARTCHAR b.sups
ENCODING 7495
SWIDTH 600 0
DWIDTH 11 0
BBX 7 9 3 7
BITMAP
01600000
04C00000
07900000
0A9CE900
0E813F20
2E000E40
5C002F10
8B12B900
87DD8000
ENDCHAR
STARTCHAR d.sups
ENCODING 7496
SWIDTH 600 0
DWIDTH 11 0
BBX 7 9 3 7
BITMAP
00000340
00000880
00000B50
04CE9E20
3E516E00
A7006B00
C5009700
B914E400
3DE8A100
ENDCHAR
STARTCHAR e.sups
ENCODING 7497
SWIDTH 600 0
DWIDTH 11 0
BBX 6 6 3 7
BITMAP
01AED4
0C915C
5D000E
8FFFFD
5B2172
09EE91
ENDCHAR
STARTCHAR g.sups
ENCODING 7501
SWIDTH 600 0
DWIDTH 11 0
BBX 8 9 2 4
BITMAP
003CEAC2
02E616E0
099004C0
0C600790
0AA14D60
03DE9E30
00002F10
1711AA00
19EEA100
ENDCHAR
STARTCHAR k.sups
ENCODING 7503
SWIDTH 600 0
DWIDTH 11 0
BBX 7 9 3 7
BITMAP
00730000
00E20000
02E00000
05B01B70
0882C400
0B9E8000
0EC4E100
2E00A800
49003B10
ENDCHAR
STARTCHAR m.sups
ENCODING 7504
SWIDTH 600 0
DWIDTH 11 0
BBX 10 6 1 7
BITMAP
04A9E95DD2
07D33F70C6
0A603D00C4
0C306A00E1
1F109702D0
3C00B405A0
ENDCHAR
STARTCHAR o.sups
ENCODING 7506
SWIDTH 600 0
DWIDTH 11 0
BBX 7 6 3 7
BITMAP
02BED400
1E616E00
8A001F10
A6004E00
8B13D600
1BED6000
ENDCHAR
STARTCHAR p.sups
ENCODING 7510
SWIDTH 600 0
DWIDTH 11 0
BBX 7 9 3 4
BITMAP
098CEA00
0CA22E40
0F200B60
3E001E30
6D21AB00
9ADE9100
C4000000
F1000000
30000000
ENDCHAR
STARTCHAR t.sups
ENCODING 7511
SWIDTH 600 0
DWIDTH 11 0
BBX 6 8 4 7
BITMAP
00C100
03D000
EFFFF4
097000
0C4000
0F1000
1F2220
0AED40
ENDCHAR
STARTCHAR u.sups
ENCODING 7512
SWIDTH 600 0
DWIDTH 11 0
BBX 7 6 3 7
BITMAP
0D300D30
1F001F00
4C004C00
79007900
8A15E600
3EE89300
ENDCHAR
STARTCHAR v.sups
ENCODING 7515
SWIDTH 600 0
DWIDTH 11 0
BBX 6 6 4 7
BITMAP
F101D3
C307A0
A61E20
788800
5BD100
2F7000
ENDCHAR
STARTCHAR c.sups
ENCODING 7580
SWIDTH 600 0
DWIDTH 11 0
BBX 6 6 3 7
BITMAP
007DE8
09B215
2F1000
4D0000
2F4161
07EE91
ENDCHAR
STARTCHAR f.sups
ENCODING 7584
SWIDTH 600 0
DWIDTH 11 0
BBX 7 9 4 7
BITMAP
001AED30
008A1310
01D40000
7FFFF600
03D00000
06A00000
09700000
0C400000
0E100000
ENDCHAR
STARTCHAR z.sups
ENCODING 7611
SWIDTH 600 0
DWIDTH 11 0
BBX 7 6 3 7
BITMAP
0CFFFF20
0001C400
001C4000
01C40000
1C400000
BFFFF500
ENDCHAR
STARTCHAR uni1E06
ENCODING 7686
SWIDTH 600 0
DWIDTH 11 0
BBX 10 15 0 -3
BITMAP
000FFFED70
003F3015E8
006F0000AC
009C0000BA
00C90006E3
00EDBBDB20
03F7457E70
06F10004F3
09D00001F5
0CA00005F2
0E70026E80
3FFFFDB500
0000000000
0000000000
04FFFF5000
ENDCHAR
STARTCHAR uni1E07
ENCODING 7687
SWIDTH 600 0
DWIDTH 11 0
BBX 10 16 0 -3
BITMAP
000D700000
001F400000
004F100000
007D000000
00AA4BED50
00DD8218F3
01F50000E8
04F10000CA
07D00000D8
0AA00002F5
0D80000AD0
1FD512AE30
4E2BEEA200
0000000000
0000000000
03FFFF6000
ENDCHAR
STARTCHAR uni1E0C
ENCODING 7692
SWIDTH 600 0
DWIDTH 11 0
BBX 10 16 0 -4
BITMAP
005FFFD910
008C014DD2
00BA0001E9
00E700009E
02F400007F
05F100007F
08D000009D
0BA00000C9
0E700004F3
2F40001DA0
5F2016EB10
8FFFEB5000
0000000000
0000000000
005E700000
006E600000
ENDCHAR
STARTCHAR uni1E0D
ENCODING 7693
SWIDTH 600 0
DWIDTH 11 0
BBX 11 17 0 -4
BITMAP
000000000AA0
000000000D70
000000001F40
000000004F10
0004CEE87D00
007F6119EA00
03F50000E700
0AC00001F400
0E700004F100
1F600007E000
0E70000BB000
0AE314AE8000
01AEE92D5000
000000000000
000000000000
000CD1000000
001DC0000000
ENDCHAR
STARTCHAR uni1E0E
ENCODING 7694
SWIDTH 600 0
DWIDTH 11 0
BBX 10 15 0 -3
BITMAP
005FFFD910
008C014DD2
00BA0001E9
00E700009E
02F400007F
05F100007F
08D000009D
0BA00000C9
0E700004F3
2F40001DA0
5F2016EB10
8FFFEB5000
0000000000
0000000000
0BFFFD0000
ENDCHAR
STARTCHAR uni1E0F
ENCODING 7695
SWIDTH 600 0
DWIDTH 11 0
BBX 11 16 0 -3
BITMAP
000000000AA0
000000000D70
000000001F40
000000004F10
0004CEE87D00
007F6119EA00
03F50000E700
0AC00001F400
0E700004F100
1F600007E000
0E70000BB000
0AE314AE8000
01AEE92D5000
000000000000
000000000000
04FFFF500000
ENDCHAR
STARTCHAR uni1E10
ENCODING 7696
SWIDTH 600 0
DWIDTH 11 0
BBX 10 17 0 -5
BITMAP
005FFFD910
008C014DD2
00BA0001E9
00E700009E
02F400007F
05F100007F
08D000009D
0BA00000C9
0E700004F3
2F40001DA0
5F2016EB10
8FFFEB5000
0009300000
003F800000
0007D00000
002A900000
06D8100000
ENDCHAR
STARTCHAR uni1E11
ENCODING 7697
SWIDTH 600 0
DWIDTH 11 0
BBX 11 18 0 -5
BITMAP
000000000AA0
000000000D70
000000001F40
000000004F10
0004CEE87D00
007F6119EA00
03F50000E700
0AC00001F400
0E700004F100
1F600007E000
0E70000BB000
0AE314AE8000
01AEE92D5000
000760000000
001EA0000000
0005F1000000
0018C0000000
03EA20000000
ENDCHAR
STARTCHAR uni1E16
ENCODING 7702
SWIDTH 600 0
DWIDTH 11 0
BBX 10 17 1 0
BITMAP
00000005B0
0000005910
0000000000
0000AFFFE0
0000000000
00AFFFFFF9
00D7000000
01F5000000
04F2000000
07E0000000
0AFFFFFA00
0D80000000
1F50000000
3F20000000
6F00000000
9C00000000
CFFFFFFA00
ENDCHAR
STARTCHAR uni1E17
ENCODING 7703
SWIDTH 600 0
DWIDTH 11 0
BBX 9 15 1 0
BITMAP
0000005A00
000004A100
0000000000
0009FFFF00
0000000000
0000000000
003AEEB200
05F821AD00
2F80001F50
8E10000D60
CFFFFFFF50
C800000000
AB00000000
3F8114C600
04CEEC6000
ENDCHAR
STARTCHAR uni1E20
ENCODING 7712
SWIDTH 600 0
DWIDTH 11 0
BBX 10 14 1 0
BITMAP
0000DFFFB0
0000000000
0003AEFC40
007E7217E1
05F4000010
1E80000000
6F10000000
AB00000000
D9001FFFA0
D800000D70
CA00001F40
7F10004F10
1DC303BC00
029EFD8100
ENDCHAR
STARTCHAR uni1E21
ENCODING 7713
SWIDTH 600 0
DWIDTH 11 0
BBX 10 16 0 -4
BITMAP
00007FFFF2
0000000000
0000000000
0004CED84D
006F612AEA
03F60000E7
09D00001F4
0D800004F1
0F600007D0
0E80000BA0
09E413AE80
019DEA2E50
0000003F10
0000009B00
593128E300
29EFDA2000
ENDCHAR
STARTCHAR uni1E24
ENCODING 7716
SWIDTH 600 0
DWIDTH 11 0
BBX 11 16 0 -4
BITMAP
006F00000E70
009C00002F40
00C900005F10
00F600008D00
03F30000BA00
06FFFFFFF700
09B00002F400
0C800005F200
0F600008E000
3F30000BB000
6F00000D8000
9C00001F5000
000000000000
000000000000
003EA0000000
004E80000000
ENDCHAR
STARTCHAR uni1E25
ENCODING 7717
SWIDTH 600 0
DWIDTH 11 0
BBX 10 17 0 -4
BITMAP
000D700000
001F400000
004F100000
007E000000
00AB18DEB1
00DAA414F6
01FA0000E8
04F10001F6
07D00003F3
0AA00006F0
0D700009C0
1F40000C90
4F20000F60
0000000000
0000000000
000BE20000
000CD10000
ENDCHAR
STARTCHAR uni1E26
ENCODING 7718
SWIDTH 600 0
DWIDTH 11 0
BBX 11 15 0 0
BITMAP
00004E10C500
00005D10D400
000000000000
006F00000E70
009C00002F40
00C900005F10
00F600008D00
03F30000BA00
06FFFFFFF700
09B00002F400
0C800005F200
0F600008E000
3F30000BB000
6F00000D8000
9C00001F5000
ENDCHAR
STARTCHAR uni1E27
ENCODING 7719
SWIDTH 600 0
DWIDTH 11 0
BBX 10 16 0 0
BITMAP
01D4099000
02E30A8000
0000000000
000D700000
001F400000
004F100000
007E000000
00AB18DEB1
00DAA414F6
01FA0000E8
04F10001F6
07D00003F3
0AA00006F0
0D700009C0
1F40000C90
4F20000F60
ENDCHAR
STARTCHAR uni1E28
ENCODING 7720
SWIDTH 600 0
DWIDTH 11 0
BBX 13 17 -2 -5
BITMAP
00006F00000E70
00009C00002F40
0000C900005F10
0000F600008D00
0003F30000BA00
0006FFFFFFF700
0009B00002F400
000C800005F200
000F600008E000
003F30000BB000
006F00000D8000
009C00001F5000
00940000000000
03F80000000000
007D0000000000
02990000000000
5D910000000000
ENDCHAR
STARTCHAR uni1E29
ENCODING 7721
SWIDTH 600 0
DWIDTH 11 0
BBX 12 18 -2 -5
BITMAP
00000D700000
00001F400000
00004F100000
00007E000000
0000AB18DEB1
0000DAA414F6
0001FA0000E8
0004F10001F6
0007D00003F3
000AA00006F0
000D700009C0
001F40000C90
004F20000F60
005800000000
01DC00000000
003F20000000
016D00000000
1EA200000000
ENDCHAR
STARTCHAR uni1E2A
ENCODING 7722
SWIDTH 600 0
DWIDTH 11 0
BBX 11 16 0 -4
BITMAP
006F00000E70
009C00002F40
00C900005F10
00F600008D00
03F30000BA00
06FFFFFFF700
09B00002F400
0C800005F200
0F600008E000
3F30000BB000
6F00000D8000
9C00001F5000
010000100000
0B4005A00000
09B14D300000
01BEC4000000
ENDCHAR
STARTCHAR uni1E2B
ENCODING 7723
SWIDTH 600 0
DWIDTH 11 0
BBX 10 17 0 -4
BITMAP
000D700000
001F400000
004F100000
007E000000
00AB18DEB1
00DAA414F6
01FA0000E8
04F10001F6
07D00003F3
0AA00006F0
0D700009C0
1F40000C90
4F20000F60
0010001000
069001D100
03E31A8000
007ED80000
ENDCHAR
STARTCHAR uni1E32
ENCODING 7730
SWIDTH 600 0
DWIDTH 11 0
BBX 11 16 0 -4
BITMAP
000F60002D90
003F3002D900
006F002D9000
009C02D90000
00C92D900000
00E8DF800000
03FF88E00000
06F802F60000
08D000BC0000
0BA0004F4000
0E70000DA000
2F400006F200
000000000000
000000000000
0003E9000000
0005E8000000
ENDCHAR
STARTCHAR uni1E33
ENCODING 7731
SWIDTH 600 0
DWIDTH 11 0
BBX 11 17 0 -4
BITMAP
000AB0000000
000D80000000
001F50000000
004F20000000
007E0001AD20
00AB002CC100
00D803DA1000
01F55EA00000
04F9FCD00000
06FE41E50000
09D2008D0000
0C80001E6000
1F500008D000
000000000000
000000000000
0005E7000000
0007E6000000
ENDCHAR
STARTCHAR uni1E34
ENCODING 7732
SWIDTH 600 0
DWIDTH 11 0
BBX 11 15 0 -3
BITMAP
000F60002D90
003F3002D900
006F002D9000
009C02D90000
00C92D900000
00E8DF800000
03FF88E00000
06F802F60000
08D000BC0000
0BA0004F4000
0E70000DA000
2F400006F200
000000000000
000000000000
009FFFF00000
ENDCHAR
STARTCHAR uni1E35
ENCODING 7733
SWIDTH 600 0
DWIDTH 11 0
BBX 11 16 0 -3
BITMAP
000AB0000000
000D80000000
001F50000000
004F20000000
007E0001AD20
00AB002CC100
00D803DA1000
01F55EA00000
04F9FCD00000
06FE41E50000
09D2008D0000
0C80001E6000
1F500008D000
000000000000
000000000000
00BFFFD00000
ENDCHAR
STARTCHAR uni1E36
ENCODING 7734
SWIDTH 600 0
DWIDTH 11 0
BBX 9 16 1 -4
BITMAP
000E700000
002F400000
005F100000
008D000000
00BA000000
00E7000000
02F4000000
05F1000000
08E0000000
0BB0000000
0E80000000
2FFFFFFF20
0000000000
0000000000
000CD10000
001DC00000
ENDCHAR
STARTCHAR uni1E37
ENCODING 7735
SWIDTH 600 0
DWIDTH 11 0
BBX 7 17 2 -4
BITMAP
5FFFE000
000AB000
000D8000
001F5000
004F1000
007D0000
00AA0000
00E70000
02F40000
05F10000
07E00000
05F31400
009EEB20
00000000
00000000
008E5000
009E3000
ENDCHAR
STARTCHAR uni1E38
ENCODING 7736
SWIDTH 600 0
DWIDTH 11 0
BBX 9 18 1 -4
BITMAP
01FFFF8000
0000000000
000E700000
002F400000
005F100000
008D000000
00BA000000
00E7000000
02F4000000
05F1000000
08E0000000
0BB0000000
0E80000000
2FFFFFFF20
0000000000
0000000000
000CD10000
001DC00000
ENDCHAR
STARTCHAR uni1E39
ENCODING 7737
SWIDTH 600 0
DWIDTH 11 0
BBX 7 19 2 -4
BITMAP
00AFFFE0
00000000
5FFFE000
000AB000
000D8000
001F5000
004F1000
007D0000
00AA0000
00E70000
02F40000
05F10000
07E00000
05F31400
009EEB20
00000000
00000000
008E5000
009E3000
ENDCHAR
STARTCHAR uni1E3A
ENCODING 7738
SWIDTH 600 0
DWIDTH 11 0
BBX 9 15 1 -3
BITMAP
000E700000
002F400000
005F100000
008D000000
00BA000000
00E7000000
02F4000000
05F1000000
08E0000000
0BB0000000
0E80000000
2FFFFFFF20
0000000000
0000000000
04FFFF5000
ENDCHAR
STARTCHAR uni1E3B
ENCODING 7739
SWIDTH 600 0
DWIDTH 11 0
BBX 7 16 2 -3
BITMAP
5FFFE000
000AB000
000D8000
001F5000
004F1000
007D0000
00AA0000
00E70000
02F40000
05F10000
07E00000
05F31400
009EEB20
00000000
00000000
0EFFFA00
ENDCHAR
STARTCHAR uni1E3E
ENCODING 7742
SWIDTH 600 0
DWIDTH 11 0
BBX 11 16 0 0
BITMAP
00000001B200
0000004EB200
000000B50000
000000000000
007F60005F80
00AE8000DE50
00DB9007CF20
01F8B01E8E00
04F4D08A8B00
07D2F1E3B800
0AA0F8A0E500
0D70DE22F200
1F408705E000
4F100008B000
7D00000B8000
AA00000E5000
ENDCHAR
STARTCHAR uni1E3F
ENCODING 7743
SWIDTH 600 0
DWIDTH 11 0
BBX 11 14 0 0
BITMAP
00000002A000
0000002DD200
000001DC1000
000004A00000
000000000000
05C5DE28EC00
08E71ED45F30
0BA00E604F20
0E602F207E00
2F305E00AB00
5F108B00D800
8D00B801F500
BA00E604F200
E702F307E000
ENDCHAR
STARTCHAR uni1E40
ENCODING 7744
SWIDTH 600 0
DWIDTH 11 0
BBX 11 15 0 0
BITMAP
000000AC0000
000000BB0000
000000000000
007F60005F80
00AE8000DE50
00DB9007CF20
01F8B01E8E00
04F4D08A8B00
07D2F1E3B800
0AA0F8A0E500
0D70DE22F200
1F408705E000
4F100008B000
7D00000B8000
AA00000E5000
ENDCHAR
STARTCHAR uni1E41
ENCODING 7745
SWIDTH 600 0
DWIDTH 11 0
BBX 11 13 0 0
BITMAP
000002DB0000
000003EA0000
000000000000
000000000000
05C5DE28EC00
08E71ED45F30
0BA00E604F20
0E602F207E00
2F305E00AB00
5F108B00D800
8D00B801F500
BA00E604F200
E702F307E000
ENDCHAR
STARTCHAR uni1E42
ENCODING 7746
SWIDTH 600 0
DWIDTH 11 0
BBX 11 16 0 -4
BITMAP
007F60005F80
00AE8000DE50
00DB9007CF20
01F8B01E8E00
04F4D08A8B00
07D2F1E3B800
0AA0F8A0E500
0D70DE22F200
1F408705E000
4F100008B000
7D00000B8000
AA00000E5000
000000000000
000000000000
003EA0000000
004E80000000
ENDCHAR
STARTCHAR uni1E43
ENCODING 7747
SWIDTH 600 0
DWIDTH 11 0
BBX 11 13 0 -4
BITMAP
05C5DE28EC00
08E71ED45F30
0BA00E604F20
0E602F207E00
2F305E00AB00
5F108B00D800
8D00B801F500
BA00E604F200
E702F307E000
000000000000
000000000000
001DC0000000
002EB0000000
ENDCHAR
STARTCHAR uni1E44
ENCODING 7748
SWIDTH 600 0
DWIDTH 11 0
BBX 11 15 0 0
BITMAP
000000AC0000
000000BB0000
000000000000
004F60000E60
007FB0002F30
00AAF1005F10
00D5D5007C00
01F39A00A900
04F15E00D700
07D00E41F400
0AA00A94F100
0D7005D6D000
1F4001FAA000
4F1000BF7000
7D00006F4000
ENDCHAR
STARTCHAR uni1E45
ENCODING 7749
SWIDTH 600 0
DWIDTH 11 0
BBX 10 13 0 0
BITMAP
000002DC00
000002EA00
0000000000
0000000000
00B718DEB1
00E8B414F6
01FA0000E8
04F10001F6
07D00003F3
0AA00006F0
0D700009C0
1F40000C90
4F20000F60
ENDCHAR
STARTCHAR uni1E46
ENCODING 7750
SWIDTH 600 0
DWIDTH 11 0
BBX 11 16 0 -4
BITMAP
004F60000E60
007FB0002F30
00AAF1005F10
00D5D5007C00
01F39A00A900
04F15E00D700
07D00E41F400
0AA00A94F100
0D7005D6D000
1F4001FAA000
4F1000BF7000
7D00006F4000
000000000000
000000000000
000CD1000000
001DC0000000
ENDCHAR
STARTCHAR uni1E47
ENCODING 7751
SWIDTH 600 0
DWIDTH 11 0
BBX 10 13 0 -4
BITMAP
00B718DEB1
00E8B414F6
01FA0000E8
04F10001F6
07D00003F3
0AA00006F0
0D700009C0
1F40000C90
4F20000F60
0000000000
0000000000
000BE20000
000CD10000
ENDCHAR
STARTCHAR uni1E48
ENCODING 7752
SWIDTH 600 0
DWIDTH 11 0
BBX 11 15 0 -3
BITMAP
004F60000E60
007FB0002F30
00AAF1005F10
00D5D5007C00
01F39A00A900
04F15E00D700
07D00E41F400
0AA00A94F100
0D7005D6D000
1F4001FAA000
4F1000BF7000
7D00006F4000
000000000000
000000000000
04FFFF500000
ENDCHAR
STARTCHAR uni1E49
ENCODING 7753
SWIDTH 600 0
DWIDTH 11 0
BBX 10 12 0 -3
BITMAP
00B718DEB1
00E8B414F6
01FA0000E8
04F10001F6
07D00003F3
0AA00006F0
0D700009C0
1F40000C90
4F20000F60
0000000000
0000000000
03FFFF6000
ENDCHAR
STARTCHAR uni1E52
ENCODING 7762
SWIDTH 600 0
DWIDTH 11 0
BBX 11 17 0 0
BITMAP
00000002B300
0000001B4000
000000000000
00004FFFF500
000000000000
00018DFC5000
002DA216F500
00CA00009C00
06F200005F20
0CB000004F30
1F6000004F20
3F3000007E00
4F300000CB00
2F400002F500
0D80000BC000
05E512AD2000
006DFD810000
ENDCHAR
STARTCHAR uni1E53
ENCODING 7763
SWIDTH 600 0
DWIDTH 11 0
BBX 10 15 0 0
BITMAP
0000000780
0000006800
0000000000
0000BFFFD0
0000000000
0000000000
0005CEE910
009E512BC0
06F30002F4
0D900000E7
2F400000E7
2F400003F3
0E70000CB0
07E513BD20
007DFD8100
ENDCHAR
STARTCHAR uni1E58
ENCODING 7768
SWIDTH 600 0
DWIDTH 11 0
BBX 10 15 0 0
BITMAP
000000AC00
000000CB00
0000000000
002FFFED70
005F1015E8
008D00009D
00BB00009D
00E80001D8
01F5014CC1
04FFFFD710
07E00CA000
0AB006F100
0D8001E700
1F50009D00
4F20003F50
ENDCHAR
STARTCHAR uni1E59
ENCODING 7769
SWIDTH 600 0
DWIDTH 11 0
BBX 9 13 1 0
BITMAP
000008E400
00000AE300
0000000000
0000000000
009807DFA0
00C6971120
00FB300000
03F4000000
06D0000000
09B0000000
0C80000000
0E60000000
2F30000000
ENDCHAR
STARTCHAR uni1E5A
ENCODING 7770
SWIDTH 600 0
DWIDTH 11 0
BBX 10 16 0 -4
BITMAP
002FFFED70
005F1015E8
008D00009D
00BB00009D
00E80001D8
01F5014CC1
04FFFFD710
07E00CA000
0AB006F100
0D8001E700
1F50009D00
4F20003F50
0000000000
0000000000
000AE30000
000BD20000
ENDCHAR
STARTCHAR uni1E5B
ENCODING 7771
SWIDTH 600 0
DWIDTH 11 0
BBX 10 13 0 -4
BITMAP
0009807DFA
000C697112
000FB30000
003F400000
006D000000
009B000000
00C8000000
00E6000000
02F3000000
0000000000
0000000000
1CD1000000
1DC0000000
ENDCHAR
STARTCHAR uni1E5C
ENCODING 7772
SWIDTH 600 0
DWIDTH 11 0
BBX 10 18 0 -4
BITMAP
00005FFFF4
0000000000
002FFFED70
005F1015E8
008D00009D
00BB00009D
00E80001D8
01F5014CC1
04FFFFD710
07E00CA000
0AB006F100
0D8001E700
1F50009D00
4F20003F50
0000000000
0000000000
000AE30000
000BD20000
ENDCHAR
STARTCHAR uni1E5D
ENCODING 7773
SWIDTH 600 0
DWIDTH 11 0
BBX 10 16 0 -4
BITMAP
00001FFFF8
0000000000
0000000000
0009807DFA
000C697112
000FB30000
003F400000
006D000000
009B000000
00C8000000
00E6000000
02F3000000
0000000000
0000000000
1CD1000000
1DC0000000
ENDCHAR
STARTCHAR uni1E5E
ENCODING 7774
SWIDTH 600 0
DWIDTH 11 0
BBX 10 15 0 -3
BITMAP
002FFFED70
005F1015E8
008D00009D
00BB00009D
00E80001D8
01F5014CC1
04FFFFD710
07E00CA000
0AB006F100
0D8001E700
1F50009D00
4F20003F50
0000000000
0000000000
01FFFF7000
ENDCHAR
STARTCHAR uni1E5F
ENCODING 7775
SWIDTH 600 0
DWIDTH 11 0
BBX 11 12 -1 -3
BITMAP
00009807DFA0
0000C6971120
0000FB300000
0003F4000000
0006D0000000
0009B0000000
000C80000000
000E60000000
002F30000000
000000000000
000000000000
4FFFF4000000
ENDCHAR
STARTCHAR uni1E60
ENCODING 7776
SWIDTH 600 0
DWIDTH 11 0
BBX 10 15 0 0
BITMAP
000001D900
000001D800
0000000000
00029DEC60
001DA215E6
005F100020
006F200000
001EC20000
0003DE8000
000018FC10
0000004F70
0000000BA0
0700000D80
1DB302AD10
019DFD9200
ENDCHAR
STARTCHAR uni1E61
ENCODING 7777
SWIDTH 600 0
DWIDTH 11 0
BBX 9 13 1 0
BITMAP
00004E8000
00005E7000
0000000000
0000000000
007DFEA300
07D3029E10
0AB0000100
05FA300000
004BFC5000
000029F400
200000D800
BC4115E400
18CFEC5000
ENDCHAR
STARTCHAR uni1E62
ENCODING 7778
SWIDTH 600 0
DWIDTH 11 0
BBX 10 16 0 -4
BITMAP
00029DEC60
001DA215E6
005F100020
006F200000
001EC20000
0003DE8000
000018FC10
0000004F70
0000000BA0
0700000D80
1DB302AD10
019DFD9200
0000000000
0000000000
000AE30000
000BD20000
ENDCHAR
STARTCHAR uni1E63
ENCODING 7779
SWIDTH 600 0
DWIDTH 11 0
BBX 9 13 1 -4
BITMAP
007DFEA300
07D3029E10
0AB0000100
05FA300000
004BFC5000
000029F400
200000D800
BC4115E400
18CFEC5000
0000000000
0000000000
009E300000
00BD200000
ENDCHAR
STARTCHAR uni1E6C
ENCODING 7788
SWIDTH 600 0
DWIDTH 11 0
BBX 11 16 1 -4
BITMAP
2FFFFFFFFF20
00006F000000
00009C000000
0000C9000000
0000F6000000
0003F3000000
0006F1000000
0009C0000000
000BA0000000
000E70000000
002F40000000
005F10000000
000000000000
000000000000
03EA00000000
04E900000000
ENDCHAR
STARTCHAR uni1E6D
ENCODING 7789
SWIDTH 600 0
DWIDTH 11 0
BBX 9 16 1 -4
BITMAP
0003E00000
0007B00000
000B800000
8EFFFFFFA0
003F200000
007E000000
00AB000000
00D8000000
01F5000000
02F5000000
00EA115300
004CFDB400
0000000000
0000000000
000BD10000
000DC10000
ENDCHAR
STARTCHAR uni1E6E
ENCODING 7790
SWIDTH 600 0
DWIDTH 11 0
BBX 11 15 1 -3
BITMAP
2FFFFFFFFF20
00006F000000
00009C000000
0000C9000000
0000F6000000
0003F3000000
0006F1000000
0009C0000000
000BA0000000
000E70000000
002F40000000
005F10000000
000000000000
000000000000
8FFFF1000000
ENDCHAR
STARTCHAR uni1E6F
ENCODING 7791
SWIDTH 600 0
DWIDTH 11 0
BBX 9 15 1 -3
BITMAP
0003E00000
0007B00000
000B800000
8EFFFFFFA0
003F200000
007E000000
00AB000000
00D8000000
01F5000000
02F5000000
00EA115300
004CFDB400
0000000000
0000000000
03FFFF6000
ENDCHAR
STARTCHAR uni1E7E
ENCODING 7806
SWIDTH 600 0
DWIDTH 11 0
BBX 10 16 2 -4
BITMAP
BA000006F2
AB00000D90
8D00006E10
7E0000D800
5F0006E100
4F100D7000
2F306E1000
1F40D60000
0E56D00000
0D6D600000
0BDD000000
0AF5000000
0000000000
0000000000
3EA0000000
4E80000000
ENDCHAR
STARTCHAR uni1E7F
ENCODING 7807
SWIDTH 600 0
DWIDTH 11 0
BBX 10 13 1 -4
BITMAP
5F100003F3
2F40000C90
0D70006E10
0AA001D600
07D008C000
03F12F3000
00F4AA0000
00CAE20000
008F700000
0000000000
0000000000
02DB000000
03EA000000
ENDCHAR
STARTCHAR Wgrave
ENCODING 7808
SWIDTH 600 0
DWIDTH 11 0
BBX 11 16 1 0
BITMAP
0001B4000000
00008E300000
000006900000
000000000000
5F0000000E60
6E0000003F20
7D0000008C00
8C008600C700
9A02FA02F300
A909AB06D000
B81E4C0A9000
B77A2D0E4000
C6D41E4E0000
D9C00F9A0000
ED600ED50000
FE100DF10000
ENDCHAR
STARTCHAR wgrave
ENCODING 7809
SWIDTH 600 0
DWIDTH 11 0
BBX 12 14 0 0
BITMAP
00002B100000
00002E900000
000005F30000
000000860000
000000000000
2F30075005E1
2F303FA00B90
2F309BA02F30
1F31E6B08C00
1F47A5C0D600
1F4D44C4E100
0F7D04CA8000
0FD704DE2000
0FF103FB0000
ENDCHAR
STARTCHAR Wacute
ENCODING 7810
SWIDTH 600 0
DWIDTH 11 0
BBX 11 16 1 0
BITMAP
0000002B2000
000005EB2000
00000C500000
000000000000
5F0000000E60
6E0000003F20
7D0000008C00
8C008600C700
9A02FA02F300
A909AB06D000
B81E4C0A9000
B77A2D0E4000
C6D41E4E0000
D9C00F9A0000
ED600ED50000
FE100DF10000
ENDCHAR
STARTCHAR wacute
ENCODING 7811
SWIDTH 600 0
DWIDTH 11 0
BBX 12 14 0 0
BITMAP
000000057000
0000005F9000
000005F80000
000008600000
000000000000
2F30075005E1
2F303FA00B90
2F309BA02F30
1F31E6B08C00
1F47A5C0D600
1F4D44C4E100
0F7D04CA8000
0FD704DE2000
0FF103FB0000
ENDCHAR
STARTCHAR Wdieresis
ENCODING 7812
SWIDTH 600 0
DWIDTH 11 0
BBX 11 15 1 0
BITMAP
0004D10D5000
0005D01E4000
000000000000
5F0000000E60
6E0000003F20
7D0000008C00
8C008600C700
9A02FA02F300
A909AB06D000
B81E4C0A9000
B77A2D0E4000
C6D41E4E0000
D9C00F9A0000
ED600ED50000
FE100DF10000
ENDCHAR
STARTCHAR wdieresis
ENCODING 7813
SWIDTH 600 0
DWIDTH 11 0
BBX 12 13 0 0
BITMAP
0000C708C000
0000D609B000
000000000000
000000000000
2F30075005E1
2F303FA00B90
2F309BA02F30
1F31E6B08C00
1F47A5C0D600
1F4D44C4E100
0F7D04CA8000
0FD704DE2000
0FF103FB0000
ENDCHAR
STARTCHAR uni1E8E
ENCODING 7822
SWIDTH 600 0
DWIDTH 11 0
BBX 10 15 2 0
BITMAP
0000C90000
0001D80000
0000000000
D8000008D1
8D00004F30
4F2001D800
0E7009C000
09B04E2000
04F1D60000
00EBB00000
00AE100000
00BA000000
00E7000000
02F4000000
05F1000000
ENDCHAR
STARTCHAR uni1E8F
ENCODING 7823
SWIDTH 600 0
DWIDTH 11 0
BBX 12 17 -1 -4
BITMAP
0000006E7000
0000007E5000
000000000000
000000000000
005F000004F3
001F30000C90
000C70006E10
0009A001E600
0005E008C000
0001F22F4000
0000D5AA0000
00009AE20000
00005F700000
00009D000000
0003F4000000
113D80000000
8FD700000000
ENDCHAR
STARTCHAR uni1E90
ENCODING 7824
SWIDTH 600 0
DWIDTH 11 0
BBX 11 15 0 0
BITMAP
000004FF2000
00004E59B000
0000B300A200
009FFFFFFF60
00000001DB00
0000000BD100
0000007F3000
000004F60000
00002EA00000
0000CC100000
0009E2000000
005F50000000
02E800000000
1DB000000000
8FFFFFFFD000
ENDCHAR
STARTCHAR uni1E91
ENCODING 7825
SWIDTH 600 0
DWIDTH 11 0
BBX 10 13 0 0
BITMAP
000007FC00
00008D3C70
0003A102B0
0000000000
00DFFFFFF8
0000001CB0
000001CC10
00000BC100
0000AD2000
0009D20000
009E300000
08E3000000
4FFFFFFF70
ENDCHAR
STARTCHAR uni1E92
ENCODING 7826
SWIDTH 600 0
DWIDTH 11 0
BBX 11 16 0 -4
BITMAP
009FFFFFFF60
00000001DB00
0000000BD100
0000007F3000
000004F60000
00002EA00000
0000CC100000
0009E2000000
005F50000000
02E800000000
1DB000000000
8FFFFFFFD000
000000000000
000000000000
0008E4000000
000AE3000000
ENDCHAR
STARTCHAR uni1E93
ENCODING 7827
SWIDTH 600 0
DWIDTH 11 0
BBX 10 13 0 -4
BITMAP
00DFFFFFF8
0000001CB0
000001CC10
00000BC100
0000AD2000
0009D20000
009E300000
08E3000000
4FFFFFFF70
0000000000
0000000000
000AE30000
000BD20000
ENDCHAR
STARTCHAR uni1E94
ENCODING 7828
SWIDTH 600 0
DWIDTH 11 0
BBX 11 15 0 -3
BITMAP
009FFFFFFF60
00000001DB00
0000000BD100
0000007F3000
000004F60000
00002EA00000
0000CC100000
0009E2000000
005F50000000
02E800000000
1DB000000000
8FFFFFFFD000
000000000000
000000000000
00FFFF900000
ENDCHAR
STARTCHAR uni1E95
ENCODING 7829
SWIDTH 600 0
DWIDTH 11 0
BBX 10 12 0 -3
BITMAP
00DFFFFFF8
0000001CB0
000001CC10
00000BC100
0000AD2000
0009D20000
009E300000
08E3000000
4FFFFFFF70
0000000000
0000000000
01FFFF7000
ENDCHAR
STARTCHAR uni1E96
ENCODING 7830
SWIDTH 600 0
DWIDTH 11 0
BBX 10 16 0 -3
BITMAP
000D700000
001F400000
004F100000
007E000000
00AB18DEB1
00DAA414F6
01FA0000E8
04F10001F6
07D00003F3
0AA00006F0
0D700009C0
1F40000C90
4F20000F60
0000000000
0000000000
03FFFF6000
ENDCHAR
STARTCHAR uni1E97
ENCODING 7831
SWIDTH 600 0
DWIDTH 11 0
BBX 9 15 1 0
BITMAP
007D02E400
008C03E300
0000000000
0003E00000
0007B00000
000B800000
8EFFFFFFA0
003F200000
007E000000
00AB000000
00D8000000
01F5000000
02F5000000
00EA115300
004CFDB400
ENDCHAR
STARTCHAR uni1E9E
ENCODING 7838
SWIDTH 600 0
DWIDTH 11 0
BBX 10 12 0 0
BITMAP
00018DFD80
000BC413D9
007E2000AC
00D8000AC1
02F401BB10
05F105F910
08D0005DD2
0BA00001D9
0E700000AB
2F400000C9
5F169218E2
8D02AEEB30
ENDCHAR
STARTCHAR uni1EA0
ENCODING 7840
SWIDTH 600 0
DWIDTH 11 0
BBX 10 16 -1 -4
BITMAP
0000004FA0
000000CBC0
000005D4D0
00000D53F0
00006D01F2
0001D500F4
0007C000E6
001EFFFFF8
008B0000B9
02E400009B
09C000008D
2F5000007F
0000000000
0000000000
0000CD1000
0001DC0000
ENDCHAR
STARTCHAR uni1EA1
ENCODING 7841
SWIDTH 600 0
DWIDTH 11 0
BBX 10 13 0 -4
BITMAP
0004CEE85D
007F6129EA
03F50000E7
0AC00001F4
0E700004F1
1F600007D0
0E70000BA0
0AE314AE70
01AEE92D40
0000000000
0000000000
000CD10000
001DC00000
ENDCHAR
STARTCHAR uni1EA2
ENCODING 7842
SWIDTH 600 0
DWIDTH 11 0
BBX 10 16 -1 0
BITMAP
0000002E90
00000003F3
00000005E1
0000001C40
0000004FA0
000000CBC0
000005D4D0
00000D53F0
00006D01F2
0001D500F4
0007C000E6
001EFFFFF8
008B0000B9
02E400009B
09C000008D
2F5000007F
ENDCHAR
STARTCHAR uni1EA3
ENCODING 7843
SWIDTH 600 0
DWIDTH 11 0
BBX 10 14 0 0
BITMAP
000001EA10
0000002E50
0000003E30
000000D500
0000000000
0004CEE85D
007F6129EA
03F50000E7
0AC00001F4
0E700004F1
1F600007D0
0E70000BA0
0AE314AE70
01AEE92D40
ENDCHAR
STARTCHAR uni1EA4
ENCODING 7844
SWIDTH 600 0
DWIDTH 11 0
BBX 13 16 -1 0
BITMAP
00000000002B10
0000003DE6B300
000002B33C1000
00000000000000
0000004FA00000
000000CBC00000
000005D4D00000
00000D53F00000
00006D01F20000
0001D500F40000
0007C000E60000
001EFFFFF80000
008B0000B90000
02E400009B0000
09C000008D0000
2F5000007F0000
ENDCHAR
STARTCHAR uni1EA5
ENCODING 7845
SWIDTH 600 0
DWIDTH 11 0
BBX 12 14 0 0
BITMAP
0000000001B1
000000000B90
000006DE6900
00006913B000
000000000000
0004CEE85D00
007F6129EA00
03F50000E700
0AC00001F400
0E700004F100
1F600007D000
0E70000BA000
0AE314AE7000
01AEE92D4000
ENDCHAR
STARTCHAR uni1EA6
ENCODING 7846
SWIDTH 600 0
DWIDTH 11 0
BBX 11 16 -1 0
BITMAP
000049000000
0000088DE400
000002B33C10
000000000000
0000004FA000
000000CBC000
000005D4D000
00000D53F000
00006D01F200
0001D500F400
0007C000E600
001EFFFFF800
008B0000B900
02E400009B00
09C000008D00
2F5000007F00
ENDCHAR
STARTCHAR uni1EA7
ENCODING 7847
SWIDTH 600 0
DWIDTH 11 0
BBX 10 14 0 0
BITMAP
002B000000
000B700000
0002A6DE30
00006913B0
0000000000
0004CEE85D
007F6129EA
03F50000E7
0AC00001F4
0E700004F1
1F600007D0
0E70000BA0
0AE314AE70
01AEE92D40
ENDCHAR
STARTCHAR uni1EA8
ENCODING 7848
SWIDTH 600 0
DWIDTH 11 0
BBX 12 16 -1 0
BITMAP
0000000002E8
0000003DE45D
000002B33CE5
000000000000
0000004FA000
000000CBC000
000005D4D000
00000D53F000
00006D01F200
0001D500F400
0007C000E600
001EFFFFF800
008B0000B900
02E400009B00
09C000008D00
2F5000007F00
ENDCHAR
STARTCHAR uni1EA9
ENCODING 7849
SWIDTH 600 0
DWIDTH 11 0
BBX 11 14 0 0
BITMAP
000000004E70
0000000008B0
000006DE4C30
00006913B000
000000000000
0004CEE85D00
007F6129EA00
03F50000E700
0AC00001F400
0E700004F100
1F600007D000
0E70000BA000
0AE314AE7000
01AEE92D4000
ENDCHAR
STARTCHAR uni1EAA
ENCODING 7850
SWIDTH 600 0
DWIDTH 11 0
BBX 11 17 -1 0
BITMAP
0000009E81B0
000002A2AE70
0000003DE400
000002B33C10
000000000000
0000004FA000
000000CBC000
000005D4D000
00000D53F000
00006D01F200
0001D500F400
0007C000E600
001EFFFFF800
008B0000B900
02E400009B00
09C000008D00
2F5000007F00
ENDCHAR
STARTCHAR uni1EAB
ENCODING 7851
SWIDTH 600 0
DWIDTH 11 0
BBX 10 15 0 0
BITMAP
000008C528
00003A4CE3
0000000000
000005EE30
00005923B0
0000000000
0004CEE85D
007F6129EA
03F50000E7
0AC00001F4
0E700004F1
1F600007D0
0E70000BA0
0AE314AE70
01AEE92D40
ENDCHAR
STARTCHAR uni1EAC
ENCODING 7852
SWIDTH 600 0
DWIDTH 11 0
BBX 11 19 -1 -4
BITMAP
0000002EF500
000002D86E10
000009500850
0000004FA000
000000CBC000
000005D4D000
00000D53F000
00006D01F200
0001D500F400
0007C000E600
001EFFFFF800
008B0000B900
02E400009B00
09C000008D00
2F5000007F00
000000000000
000000000000
0000CD100000
0001DC000000
ENDCHAR
STARTCHAR uni1EAD
ENCODING 7853
SWIDTH 600 0
DWIDTH 11 0
BBX 10 17 0 -4
BITMAP
000003EF30
00003E68C0
0000B300A3
0000000000
0004CEE85D
007F6129EA
03F50000E7
0AC00001F4
0E700004F1
1F600007D0
0E70000BA0
0AE314AE70
01AEE92D40
0000000000
0000000000
000CD10000
001DC00000
ENDCHAR
STARTCHAR uni1EAE
ENCODING 7854
SWIDTH 600 0
DWIDTH 11 0
BBX 11 17 -1 0
BITMAP
000000003C10
00000013B210
000005B11890
000000AEE800
000000000000
0000004FA000
000000CBC000
000005D4D000
00000D53F000
00006D01F200
0001D500F400
0007C000E600
001EFFFFF800
008B0000B900
02E400009B00
09C000008D00
2F5000007F00
ENDCHAR
STARTCHAR uni1EAF
ENCODING 7855
SWIDTH 600 0
DWIDTH 11 0
BBX 10 16 0 0
BITMAP
00000002B1
0000001C90
0000105801
0000A4003C
00007B13D4
00001AEC50
0000000000
0004CEE85D
007F6129EA
03F50000E7
0AC00001F4
0E700004F1
1F600007D0
0E70000BA0
0AE314AE70
01AEE92D40
ENDCHAR
STARTCHAR uni1EB0
ENCODING 7856
SWIDTH 600 0
DWIDTH 11 0
BBX 11 18 -1 0
BITMAP
0000002B1000
0000000B8000
00000012B010
000005B11890
000000AEE800
000000000000
0000004FA000
000000CBC000
000005D4D000
00000D53F000
00006D01F200
0001D500F400
0007C000E600
001EFFFFF800
008B0000B900
02E400009B00
09C000008D00
2F5000007F00
ENDCHAR
STARTCHAR uni1EB1
ENCODING 7857
SWIDTH 600 0
DWIDTH 11 0
BBX 10 15 0 0
BITMAP
000002B000
000011D501
0000A4493C
00007B13D4
00001AEC50
0000000000
0004CEE85D
007F6129EA
03F50000E7
0AC00001F4
0E700004F1
1F600007D0
0E70000BA0
0AE314AE70
01AEE92D40
ENDCHAR
STARTCHAR uni1EB2
ENCODING 7858
SWIDTH 600 0
DWIDTH 11 0
BBX 11 18 -1 0
BITMAP
00000006D500
00000000A900
00000015B210
000005B11890
000000AEE800
000000000000
0000004FA000
000000CBC000
000005D4D000
00000D53F000
00006D01F200
0001D500F400
0007C000E600
001EFFFFF800
008B0000B900
02E400009B00
09C000008D00
2F5000007F00
ENDCHAR
STARTCHAR uni1EB3
ENCODING 7859
SWIDTH 600 0
DWIDTH 11 0
BBX 10 15 0 0
BITMAP
0000008D40
0000101B81
0000A47B4C
00007B13D4
00001AEC50
0000000000
0004CEE85D
007F6129EA
03F50000E7
0AC00001F4
0E700004F1
1F600007D0
0E70000BA0
0AE314AE70
01AEE92D40
ENDCHAR
STARTCHAR uni1EB4
ENCODING 7860
SWIDTH 600 0
DWIDTH 11 0
BBX 12 17 -1 0
BITMAP
0000009E91B1
000003B2AF80
000005B11970
000000AEE800
000000000000
0000004FA000
000000CBC000
000005D4D000
00000D53F000
00006D01F200
0001D500F400
0007C000E600
001EFFFFF800
008B0000B900
02E400009B00
09C000008D00
2F5000007F00
ENDCHAR
STARTCHAR uni1EB5
ENCODING 7861
SWIDTH 600 0
DWIDTH 11 0
BBX 10 15 0 0
BITMAP
000009C539
00004A4CE4
0000000010
00008812B5
00002BED60
0000000000
0004CEE85D
007F6129EA
03F50000E7
0AC00001F4
0E700004F1
1F600007D0
0E70000BA0
0AE314AE70
01AEE92D40
ENDCHAR
STARTCHAR uni1EB6
ENCODING 7862
SWIDTH 600 0
DWIDTH 11 0
BBX 11 20 -1 -4
BITMAP
0000058003A0
000004D22C40
0000008ED600
000000000000
0000004FA000
000000CBC000
000005D4D000
00000D53F000
00006D01F200
0001D500F400
0007C000E600
001EFFFFF800
008B0000B900
02E400009B00
09C000008D00
2F5000007F00
000000000000
000000000000
0000CD100000
0001DC000000
ENDCHAR
STARTCHAR uni1EB7
ENCODING 7863
SWIDTH 600 0
DWIDTH 11 0
BBX 10 18 0 -4
BITMAP
0000000001
0000A5004C
00007C13D4
00001AED50
0000000000
0004CEE85D
007F6129EA
03F50000E7
0AC00001F4
0E700004F1
1F600007D0
0E70000BA0
0AE314AE70
01AEE92D40
0000000000
0000000000
000CD10000
001DC00000
ENDCHAR
STARTCHAR uni1EB8
ENCODING 7864
SWIDTH 600 0
DWIDTH 11 0
BBX 10 16 1 -4
BITMAP
00AFFFFFF9
00D7000000
01F5000000
04F2000000
07E0000000
0AFFFFFA00
0D80000000
1F50000000
3F20000000
6F00000000
9C00000000
CFFFFFFA00
0000000000
0000000000
005E700000
007E600000
ENDCHAR
STARTCHAR uni1EB9
ENCODING 7865
SWIDTH 600 0
DWIDTH 11 0
BBX 9 13 1 -4
BITMAP
003AEEB200
05F821AD00
2F80001F50
8E10000D60
CFFFFFFF50
C800000000
AB00000000
3F8114C600
04CEEC6000
0000000000
0000000000
009E300000
00BD200000
ENDCHAR
STARTCHAR uni1EBA
ENCODING 7866
SWIDTH 600 0
DWIDTH 11 0
BBX 10 16 1 0
BITMAP
000008D500
0000008C00
000001A900
000007A100
00AFFFFFF9
00D7000000
01F5000000
04F2000000
07E0000000
0AFFFFFA00
0D80000000
1F50000000
3F20000000
6F00000000
9C00000000
CFFFFFFA00
ENDCHAR
STARTCHAR uni1EBB
ENCODING 7867
SWIDTH 600 0
DWIDTH 11 0
BBX 9 14 1 0
BITMAP
00002E9000
000003F300
000005E100
00001C4000
0000000000
003AEEB200
05F821AD00
2F80001F50
8E10000D60
CFFFFFFF50
C800000000
AB00000000
3F8114C600
04CEEC6000
ENDCHAR
STARTCHAR uni1EBC
ENCODING 7868
SWIDTH 600 0
DWIDTH 11 0
BBX 10 16 1 0
BITMAP
0000020001
0001CDD35C
0006806ED3
0000000000
00AFFFFFF9
00D7000000
01F5000000
04F2000000
07E0000000
0AFFFFFA00
0D80000000
1F50000000
3F20000000
6F00000000
9C00000000
CFFFFFFA00
ENDCHAR
STARTCHAR uni1EBD
ENCODING 7869
SWIDTH 600 0
DWIDTH 11 0
BBX 9 13 1 0
BITMAP
0002730060
000DAD55C0
004A03DD30
0000000000
003AEEB200
05F821AD00
2F80001F50
8E10000D60
CFFFFFFF50
C800000000
AB00000000
3F8114C600
04CEEC6000
ENDCHAR
STARTCHAR uni1EBE
ENCODING 7870
SWIDTH 600 0
DWIDTH 11 0
BBX 11 16 1 0
BITMAP
000000000680
000007EC7810
000078178000
000000000000
00AFFFFFF900
00D700000000
01F500000000
04F200000000
07E000000000
0AFFFFFA0000
0D8000000000
1F5000000000
3F2000000000
6F0000000000
9C0000000000
CFFFFFFA0000
ENDCHAR
STARTCHAR uni1EBF
ENCODING 7871
SWIDTH 600 0
DWIDTH 11 0
BBX 10 14 1 0
BITMAP
000000002B
00000001C7
00007ED680
0008815A00
0000000000
003AEEB200
05F821AD00
2F80001F50
8E10000D60
CFFFFFFF50
C800000000
AB00000000
3F8114C600
04CEEC6000
ENDCHAR
STARTCHAR uni1EC0
ENCODING 7872
SWIDTH 600 0
DWIDTH 11 0
BBX 10 16 1 0
BITMAP
0009400000
0002B8EC10
0000781780
0000000000
00AFFFFFF9
00D7000000
01F5000000
04F2000000
07E0000000
0AFFFFFA00
0D80000000
1F50000000
3F20000000
6F00000000
9C00000000
CFFFFFFA00
ENDCHAR
STARTCHAR uni1EC1
ENCODING 7873
SWIDTH 600 0
DWIDTH 11 0
BBX 9 14 1 0
BITMAP
03A0000000
00D5000000
00397ED200
0008815A00
0000000000
003AEEB200
05F821AD00
2F80001F50
8E10000D60
CFFFFFFF50
C800000000
AB00000000
3F8114C600
04CEEC6000
ENDCHAR
STARTCHAR uni1EC2
ENCODING 7874
SWIDTH 600 0
DWIDTH 11 0
BBX 11 16 1 0
BITMAP
000000008D30
000007EC2B70
00007817EB10
000000000000
00AFFFFFF900
00D700000000
01F500000000
04F200000000
07E000000000
0AFFFFFA0000
0D8000000000
1F5000000000
3F2000000000
6F0000000000
9C0000000000
CFFFFFFA0000
ENDCHAR
STARTCHAR uni1EC3
ENCODING 7875
SWIDTH 600 0
DWIDTH 11 0
BBX 10 14 1 0
BITMAP
00000006D5
0000000099
00007ED5B2
0008815A00
0000000000
003AEEB200
05F821AD00
2F80001F50
8E10000D60
CFFFFFFF50
C800000000
AB00000000
3F8114C600
04CEEC6000
ENDCHAR
STARTCHAR uni1EC4
ENCODING 7876
SWIDTH 600 0
DWIDTH 11 0
BBX 10 17 1 0
BITMAP
00002DD448
0000854DD2
000007EC10
0000781780
0000000000
00AFFFFFF9
00D7000000
01F5000000
04F2000000
07E0000000
0AFFFFFA00
0D80000000
1F50000000
3F20000000
6F00000000
9C00000000
CFFFFFFA00
ENDCHAR
STARTCHAR uni1EC5
ENCODING 7877
SWIDTH 600 0
DWIDTH 11 0
BBX 9 15 1 0
BITMAP
00009B4470
000595DD20
0000000000
00007ED200
0007814B00
0000000000
003AEEB200
05F821AD00
2F80001F50
8E10000D60
CFFFFFFF50
C800000000
AB00000000
3F8114C600
04CEEC6000
ENDCHAR
STARTCHAR uni1EC6
ENCODING 7878
SWIDTH 600 0
DWIDTH 11 0
BBX 10 19 1 -4
BITMAP
000007FD10
00006E4B90
0001B201B1
00AFFFFFF9
00D7000000
01F5000000
04F2000000
07E0000000
0AFFFFFA00
0D80000000
1F50000000
3F20000000
6F00000000
9C00000000
CFFFFFFA00
0000000000
0000000000
005E700000
007E600000
ENDCHAR
STARTCHAR uni1EC7
ENCODING 7879
SWIDTH 600 0
DWIDTH 11 0
BBX 9 17 1 -4
BITMAP
00004FE200
0005E49B00
001B200B20
0000000000
003AEEB200
05F821AD00
2F80001F50
8E10000D60
CFFFFFFF50
C800000000
AB00000000
3F8114C600
04CEEC6000
0000000000
0000000000
009E300000
00BD200000
ENDCHAR
STARTCHAR uni1EC8
ENCODING 7880
SWIDTH 600 0
DWIDTH 11 0
BBX 11 16 0 0
BITMAP
000002E90000
0000003F3000
0000005E1000
000001C40000
002FFFFFFF30
000006F00000
000009C00000
00000C900000
00000E600000
00002F400000
00005F100000
00008D000000
0000BA000000
0000E7000000
0002F4000000
4FFFFFFF1000
ENDCHAR
STARTCHAR uni1EC9
ENCODING 7881
SWIDTH 600 0
DWIDTH 11 0
BBX 7 14 2 0
BITMAP
0009C400
00019B00
0001B900
00089100
00000000
FFFF8000
001F5000
004F2000
007E0000
00AA0000
00E70000
01F50000
00E91320
005DFD50
ENDCHAR
STARTCHAR uni1ECA
ENCODING 7882
SWIDTH 600 0
DWIDTH 11 0
BBX 11 16 0 -4
BITMAP
002FFFFFFF30
000006F00000
000009C00000
00000C900000
00000E600000
00002F400000
00005F100000
00008D000000
0000BA000000
0000E7000000
0002F4000000
4FFFFFFF1000
000000000000
000000000000
003EA0000000
004E80000000
ENDCHAR
STARTCHAR uni1ECB
ENCODING 7883
SWIDTH 600 0
DWIDTH 11 0
BBX 7 17 2 -4
BITMAP
0008E400
000AE300
00000000
00000000
FFFF8000
001F5000
004F2000
007E0000
00AA0000
00E70000
01F50000
00E91320
005DFD50
00000000
00000000
005E7000
007E5000
ENDCHAR
STARTCHAR uni1ECC
ENCODING 7884
SWIDTH 600 0
DWIDTH 11 0
BBX 11 16 0 -4
BITMAP
00018DFC5000
002DA216F500
00CA00009C00
06F200005F20
0CB000004F30
1F6000004F20
3F3000007E00
4F300000CB00
2F400002F500
0D80000BC000
05E512AD2000
006DFD810000
000000000000
000000000000
003EA0000000
004E80000000
ENDCHAR
STARTCHAR uni1ECD
ENCODING 7885
SWIDTH 600 0
DWIDTH 11 0
BBX 10 13 0 -4
BITMAP
0005CEE910
009E512BC0
06F30002F4
0D900000E7
2F400000E7
2F400003F3
0E70000CB0
07E513BD20
007DFD8100
0000000000
0000000000
003EA00000
004E800000
ENDCHAR
STARTCHAR uni1ECE
ENCODING 7886
SWIDTH 600 0
DWIDTH 11 0
BBX 11 16 0 0
BITMAP
000002E90000
0000003F3000
0000005E1000
000001C40000
00018DFC5000
002DA216F500
00CA00009C00
06F200005F20
0CB000004F30
1F6000004F20
3F3000007E00
4F300000CB00
2F400002F500
0D80000BC000
05E512AD2000
006DFD810000
ENDCHAR
STARTCHAR uni1ECF
ENCODING 7887
SWIDTH 600 0
DWIDTH 11 0
BBX 10 14 0 0
BITMAP
000004E700
0000005F10
0000007D00
000004B300
0000000000
0005CEE910
009E512BC0
06F30002F4
0D900000E7
2F400000E7
2F400003F3
0E70000CB0
07E513BD20
007DFD8100
ENDCHAR
STARTCHAR uni1ED0
ENCODING 7888
SWIDTH 600 0
DWIDTH 11 0
BBX 12 16 0 0
BITMAP
0000000002B1
000003DE6B30
00002B33C100
000000000000
00018DFC5000
002DA216F500
00CA00009C00
06F200005F20
0CB000004F30
1F6000004F20
3F3000007E00
4F300000CB00
2F400002F500
0D80000BC000
05E512AD2000
006DFD810000
ENDCHAR
STARTCHAR uni1ED1
ENCODING 7889
SWIDTH 600 0
DWIDTH 11 0
BBX 11 14 0 0
BITMAP
0000000003A0
000000002D50
000019EC8600
000097068000
000000000000
0005CEE91000
009E512BC000
06F30002F400
0D900000E700
2F400000E700
2F400003F300
0E70000CB000
07E513BD2000
007DFD810000
ENDCHAR
STARTCHAR uni1ED2
ENCODING 7890
SWIDTH 600 0
DWIDTH 11 0
BBX 11 16 0 0
BITMAP
000490000000
000088DE4000
00002B33C100
000000000000
00018DFC5000
002DA216F500
00CA00009C00
06F200005F20
0CB000004F30
1F6000004F20
3F3000007E00
4F300000CB00
2F400002F500
0D80000BC000
05E512AD2000
006DFD810000
ENDCHAR
STARTCHAR uni1ED3
ENCODING 7891
SWIDTH 600 0
DWIDTH 11 0
BBX 10 14 0 0
BITMAP
0059000000
001E300000
000589EC10
0000970680
0000000000
0005CEE910
009E512BC0
06F30002F4
0D900000E7
2F400000E7
2F400003F3
0E70000CB0
07E513BD20
007DFD8100
ENDCHAR
STARTCHAR uni1ED4
ENCODING 7892
SWIDTH 600 0
DWIDTH 11 0
BBX 11 16 0 0
BITMAP
000000002E80
000003DE45D0
00002B33CE50
000000000000
00018DFC5000
002DA216F500
00CA00009C00
06F200005F20
0CB000004F30
1F6000004F20
3F3000007E00
4F300000CB00
2F400002F500
0D80000BC000
05E512AD2000
006DFD810000
ENDCHAR
STARTCHAR uni1ED5
ENCODING 7893
SWIDTH 600 0
DWIDTH 11 0
BBX 11 14 0 0
BITMAP
000000008D40
000000001B70
000008EC6A10
000097069000
000000000000
0005CEE91000
009E512BC000
06F30002F400
0D900000E700
2F400000E700
2F400003F300
0E70000CB000
07E513BD2000
007DFD810000
ENDCHAR
STARTCHAR uni1ED6
ENCODING 7894
SWIDTH 600 0
DWIDTH 11 0
BBX 11 17 0 0
BITMAP
000009E81B00
00002A2AE700
000003DE4000
00002B33C100
000000000000
00018DFC5000
002DA216F500
00CA00009C00
06F200005F20
0CB000004F30
1F6000004F20
3F3000007E00
4F300000CB00
2F400002F500
0D80000BC000
05E512AD2000
006DFD810000
ENDCHAR
STARTCHAR uni1ED7
ENCODING 7895
SWIDTH 600 0
DWIDTH 11 0
BBX 10 15 0 0
BITMAP
00001AB355
0000776DD1
0000000000
000008EC10
0000971690
0000000000
0005CEE910
009E512BC0
06F30002F4
0D900000E7
2F400000E7
2F400003F3
0E70000CB0
07E513BD20
007DFD8100
ENDCHAR
STARTCHAR uni1ED8
ENCODING 7896
SWIDTH 600 0
DWIDTH 11 0
BBX 11 19 0 -4
BITMAP
000002EF5000
00002D86E100
000095008500
00018DFC5000
002DA216F500
00CA00009C00
06F200005F20
0CB000004F30
1F6000004F20
3F3000007E00
4F300000CB00
2F400002F500
0D80000BC000
05E512AD2000
006DFD810000
000000000000
000000000000
003EA0000000
004E80000000
ENDCHAR
STARTCHAR uni1ED9
ENCODING 7897
SWIDTH 600 0
DWIDTH 11 0
BBX 10 17 0 -4
BITMAP
000006FD10
00007D3B90
0002B101B1
0000000000
0005CEE910
009E512BC0
06F30002F4
0D900000E7
2F400000E7
2F400003F3
0E70000CB0
07E513BD20
007DFD8100
0000000000
0000000000
003EA00000
004E800000
ENDCHAR
STARTCHAR uni1EDA
ENCODING 7898
SWIDTH 600 0
DWIDTH 11 0
BBX 12 16 0 0
BITMAP
00000001B200
0000004EB2A4
000000B500C6
0000000001E2
00018DFC8A40
002DA216F700
00CA00009E00
06F200005F20
0CB000004F30
1F6000004F20
3F3000007E00
4F300000CB00
2F400002F500
0D80000BB000
05E512AD1000
006DFD810000
ENDCHAR
STARTCHAR uni1EDB
ENCODING 7899
SWIDTH 600 0
DWIDTH 11 0
BBX 11 14 0 0
BITMAP
000000049000
0000003EB000
000003E90690
0000067007A0
000000000C50
0005CEEAB600
009E512BD100
06F30002F500
0D900000E700
2F400000E600
2F400003F300
0E70000CB000
07E513BD1000
007DFD810000
ENDCHAR
STARTCHAR uni1EDC
ENCODING 7900
SWIDTH 600 0
DWIDTH 11 0
BBX 12 16 0 0
BITMAP
00000B400000
000007E300A4
0000005A00C6
0000000001E2
00018DFC8A40
002DA216F700
00CA00009E00
06F200005F20
0CB000004F30
1F6000004F20
3F3000007E00
4F300000CB00
2F400002F500
0D80000BB000
05E512AD1000
006DFD810000
ENDCHAR
STARTCHAR uni1EDD
ENCODING 7901
SWIDTH 600 0
DWIDTH 11 0
BBX 11 14 0 0
BITMAP
00001B200000
00001DB00000
000003F50690
0000006807A0
000000000C50
0005CEEAB600
009E512BD100
06F30002F500
0D900000E700
2F400000E600
2F400003F300
0E70000CB000
07E513BD1000
007DFD810000
ENDCHAR
STARTCHAR uni1EDE
ENCODING 7902
SWIDTH 600 0
DWIDTH 11 0
BBX 12 16 0 0
BITMAP
000002E90000
0000003F30A4
0000005E10C6
000001C401E2
00018DFC8A40
002DA216F700
00CA00009E00
06F200005F20
0CB000004F30
1F6000004F20
3F3000007E00
4F300000CB00
2F400002F500
0D80000BB000
05E512AD1000
006DFD810000
ENDCHAR
STARTCHAR uni1EDF
ENCODING 7903
SWIDTH 600 0
DWIDTH 11 0
BBX 11 14 0 0
BITMAP
000004E70000
0000005F1000
0000007D0690
000004B307A0
000000000C50
0005CEEAB600
009E512BD100
06F30002F500
0D900000E700
2F400000E600
2F400003F300
0E70000CB000
07E513BD1000
007DFD810000
ENDCHAR
STARTCHAR uni1EE0
ENCODING 7904
SWIDTH 600 0
DWIDTH 11 0
BBX 12 16 0 0
BITMAP
000012000100
0003DDB289A4
0009509EB1C6
0000000001E2
00018DFC8A40
002DA216F700
00CA00009E00
06F200005F20
0CB000004F30
1F6000004F20
3F3000007E00
4F300000CB00
2F400002F500
0D80000BB000
05E512AD1000
006DFD810000
ENDCHAR
STARTCHAR uni1EE1
ENCODING 7905
SWIDTH 600 0
DWIDTH 11 0
BBX 11 13 0 0
BITMAP
000065004200
000ABC82E790
001D11BE67A0
000000000C50
0005CEEAB600
009E512BD100
06F30002F500
0D900000E700
2F400000E600
2F400003F300
0E70000CB000
07E513BD1000
007DFD810000
ENDCHAR
STARTCHAR uni1EE2
ENCODING 7906
SWIDTH 600 0
DWIDTH 11 0
BBX 12 19 0 -4
BITMAP
0000000000A4
0000000000C6
0000000001E2
00018DFC8A40
002DA216F700
00CA00009E00
06F200005F20
0CB000004F30
1F6000004F20
3F3000007E00
4F300000CB00
2F400002F500
0D80000BB000
05E512AD1000
006DFD810000
000000000000
000000000000
003EA0000000
004E80000000
ENDCHAR
STARTCHAR uni1EE3
ENCODING 7907
SWIDTH 600 0
DWIDTH 11 0
BBX 11 16 0 -4
BITMAP
000000000690
0000000007A0
000000000C50
0005CEEAB600
009E512BD100
06F30002F500
0D900000E700
2F400000E600
2F400003F300
0E70000CB000
07E513BD1000
007DFD810000
000000000000
000000000000
003EA0000000
004E80000000
ENDCHAR
STARTCHAR uni1EE4
ENCODING 7908
SWIDTH 600 0
DWIDTH 11 0
BBX 10 16 1 -4
BITMAP
06F00000D7
09C00001F4
0C900004F1
0F600007D0
3F30000AA0
6F00000D70
9C00001F40
B900004F10
C800008C00
AB0001E600
4F612BC000
05CED91000
0000000000
0000000000
03EA000000
04E8000000
ENDCHAR
STARTCHAR uni1EE5
ENCODING 7909
SWIDTH 600 0
DWIDTH 11 0
BBX 9 13 1 -4
BITMAP
0D800009C0
1F50000C90
4F20000E60
7E00002F30
AB00005F00
D800008C00
F60003E900
DB1288D600
4DEB40E400
0000000000
0000000000
00CD100000
01DC000000
ENDCHAR
STARTCHAR uni1EE6
ENCODING 7910
SWIDTH 600 0
DWIDTH 11 0
BBX 10 16 1 0
BITMAP
00002E9000
000003F300
000005E100
00001C4000
06F00000D7
09C00001F4
0C900004F1
0F600007D0
3F30000AA0
6F00000D70
9C00001F40
B900004F10
C800008C00
AB0001E600
4F612BC000
05CED91000
ENDCHAR
STARTCHAR uni1EE7
ENCODING 7911
SWIDTH 600 0
DWIDTH 11 0
BBX 9 14 1 0
BITMAP
00005D7000
000005F100
000007D000
00004B3000
0000000000
0D800009C0
1F50000C90
4F20000E60
7E00002F30
AB00005F00
D800008C00
F60003E900
DB1288D600
4DEB40E400
ENDCHAR
STARTCHAR uni1EE8
ENCODING 7912
SWIDTH 600 0
DWIDTH 11 0
BBX 12 16 1 0
BITMAP
0000001B2000
000004EB205A
00000B50006B
0000000002C5
06F00000DA20
09C00001F400
0C900004F100
0F600007C000
3F30000A9000
6F00000D6000
9C00001F3000
B900004F0000
C800008B0000
AB0001E50000
4F612BB00000
05CED8000000
ENDCHAR
STARTCHAR uni1EE9
ENCODING 7913
SWIDTH 600 0
DWIDTH 11 0
BBX 11 14 1 0
BITMAP
000000490000
000003EB0000
00003E9005A0
0000770006C0
000000002D70
0D800009F900
1F50000CA000
4F20000E7000
7E00002F4000
AB00005F1000
D800008D0000
F60003EA0000
DB1288D70000
4DEB40E40000
ENDCHAR
STARTCHAR uni1EEA
ENCODING 7914
SWIDTH 600 0
DWIDTH 11 0
BBX 12 16 1 0
BITMAP
0000B4000000
00007E30005A
000005A0006B
0000000002C5
06F00000DA20
09C00001F400
0C900004F100
0F600007C000
3F30000A9000
6F00000D6000
9C00001F3000
B900004F0000
C800008B0000
AB0001E50000
4F612BB00000
05CED8000000
ENDCHAR
STARTCHAR uni1EEB
ENCODING 7915
SWIDTH 600 0
DWIDTH 11 0
BBX 11 14 1 0
BITMAP
0001B2000000
0001DB000000
00003F5005A0
0000068006C0
000000002D70
0D800009F900
1F50000CA000
4F20000E7000
7E00002F4000
AB00005F1000
D800008D0000
F60003EA0000
DB1288D70000
4DEB40E40000
ENDCHAR
STARTCHAR uni1EEC
ENCODING 7916
SWIDTH 600 0
DWIDTH 11 0
BBX 12 16 1 0
BITMAP
00002E900000
000003F3005A
000005E1006B
00001C4002C5
06F00000DA20
09C00001F400
0C900004F100
0F600007C000
3F30000A9000
6F00000D6000
9C00001F3000
B900004F0000
C800008B0000
AB0001E50000
4F612BB00000
05CED8000000
ENDCHAR
STARTCHAR uni1EED
ENCODING 7917
SWIDTH 600 0
DWIDTH 11 0
BBX 11 14 1 0
BITMAP
00005D700000
000005F10000
000007D005A0
00004B3006C0
000000002D70
0D800009F900
1F50000CA000
4F20000E7000
7E00002F4000
AB00005F1000
D800008D0000
F60003EA0000
DB1288D70000
4DEB40E40000
ENDCHAR
STARTCHAR uni1EEE
ENCODING 7918
SWIDTH 600 0
DWIDTH 11 0
BBX 12 16 1 0
BITMAP
000021001000
0008DE71D35A
001C12CE706B
0000000002C5
06F00000DA20
09C00001F400
0C900004F100
0F600007C000
3F30000A9000
6F00000D6000
9C00001F3000
B900004F0000
C800008B0000
AB0001E50000
4F612BB00000
05CED8000000
ENDCHAR
STARTCHAR uni1EEF
ENCODING 7919
SWIDTH 600 0
DWIDTH 11 0
BBX 11 13 1 0
BITMAP
000371025000
003EAD2985A0
008606EB16C0
000000002D70
0D800009F900
1F50000CA000
4F20000E7000
7E00002F4000
AB00005F1000
D800008D0000
F60003EA0000
DB1288D70000
4DEB40E40000
ENDCHAR
STARTCHAR uni1EF0
ENCODING 7920
SWIDTH 600 0
DWIDTH 11 0
BBX 12 19 1 -4
BITMAP
00000000005A
00000000006B
0000000002C5
06F00000DA20
09C00001F400
0C900004F100
0F600007C000
3F30000A9000
6F00000D6000
9C00001F3000
B900004F0000
C800008B0000
AB0001E50000
4F612BB00000
05CED8000000
000000000000
000000000000
03EA00000000
04E800000000
ENDCHAR
STARTCHAR uni1EF1
ENCODING 7921
SWIDTH 600 0
DWIDTH 11 0
BBX 11 16 1 -4
BITMAP
0000000005A0
0000000006C0
000000002D70
0D800009F900
1F50000CA000
4F20000E7000
7E00002F4000
AB00005F1000
D800008D0000
F60003EA0000
DB1288D70000
4DEB40E40000
000000000000
000000000000
00CD10000000
01DC00000000
ENDCHAR
STARTCHAR Ygrave
ENCODING 7922
SWIDTH 600 0
DWIDTH 11 0
BBX 10 16 2 0
BITMAP
002B200000
000AD10000
0000870000
0000000000
D8000008D1
8D00004F30
4F2001D800
0E7009C000
09B04E2000
04F1D60000
00EBB00000
00AE100000
00BA000000
00E7000000
02F4000000
05F1000000
ENDCHAR
STARTCHAR ygrave
ENCODING 7923
SWIDTH 600 0
DWIDTH 11 0
BBX 12 18 -1 -4
BITMAP
000002B10000
000002E90000
0000005F3000
000000086000
000000000000
005F000004F3
001F30000C90
000C70006E10
0009A001E600
0005E008C000
0001F22F4000
0000D5AA0000
00009AE20000
00005F700000
00009D000000
0003F4000000
113D80000000
8FD700000000
ENDCHAR
STARTCHAR uni1EF4
ENCODING 7924
SWIDTH 600 0
DWIDTH 11 0
BBX 10 16 2 -4
BITMAP
D8000008D1
8D00004F30
4F2001D800
0E7009C000
09B04E2000
04F1D60000
00EBB00000
00AE100000
00BA000000
00E7000000
02F4000000
05F1000000
0000000000
0000000000
3EA0000000
4E80000000
ENDCHAR
STARTCHAR uni1EF5
ENCODING 7925
SWIDTH 600 0
DWIDTH 11 0
BBX 12 13 -1 -4
BITMAP
005F000004F3
001F30000C90
000C70006E10
0009A001E600
0005E008C000
0001F22F4000
0000D5AA0000
00009AE20000
00005F700000
00009D000000
0003F4000000
113D802DC000
8FD7003EA000
ENDCHAR
STARTCHAR uni1EF6
ENCODING 7926
SWIDTH 600 0
DWIDTH 11 0
BBX 10 16 2 0
BITMAP
0005D70000
00006F0000
00008C0000
0004B20000
D8000008D1
8D00004F30
4F2001D800
0E7009C000
09B04E2000
04F1D60000
00EBB00000
00AE100000
00BA000000
00E7000000
02F4000000
05F1000000
ENDCHAR
STARTCHAR uni1EF7
ENCODING 7927
SWIDTH 600 0
DWIDTH 11 0
BBX 12 18 -1 -4
BITMAP
0000006D6000
00000007E000
00000018C000
0000005B2000
000000000000
005F000004F3
001F30000C90
000C70006E10
0009A001E600
0005E008C000
0001F22F4000
0000D5AA0000
00009AE20000
00005F700000
00009D000000
0003F4000000
113D80000000
8FD700000000
ENDCHAR
STARTCHAR uni1EF8
ENCODING 7928
SWIDTH 600 0
DWIDTH 11 0
BBX 10 16 2 0
BITMAP
0002100100
00BDE43E00
04A04DD500
0000000000
D8000008D1
8D00004F30
4F2001D800
0E7009C000
09B04E2000
04F1D60000
00EBB00000
00AE100000
00BA000000
00E7000000
02F4000000
05F1000000
ENDCHAR
STARTCHAR uni1EF9
ENCODING 7929
SWIDTH 600 0
DWIDTH 11 0
BBX 12 17 -1 -4
BITMAP
000003720250
00003EAD2980
00008606EB10
000000000000
005F000004F3
001F30000C90
000C70006E10
0009A001E600
0005E008C000
0001F22F4000
0000D5AA0000
00009AE20000
00005F700000
00009D000000
0003F4000000
113D80000000
8FD700000000
ENDCHAR
STARTCHAR uni2007
ENCODING 8199
SWIDTH 600 0
DWIDTH 11 0
BBX 1 1 0 0
BITMAP
00
ENDCHAR
STARTCHAR uni2010
ENCODING 8208
SWIDTH 600 0
DWIDTH 11 0
BBX 9 1 1 5
BITMAP
7FFFFFFF40
ENDCHAR
STARTCHAR figuredash
ENCODING 8210
SWIDTH 600 0
DWIDTH 11 0
BBX 9 1 1 4
BITMAP
BFFFFFFF20
ENDCHAR
STARTCHAR endash
ENCODING 8211
SWIDTH 600 0
DWIDTH 11 0
BBX 9 1 1 4
BITMAP
BFFFFFFF20
ENDCHAR
STARTCHAR emdash
ENCODING 8212
SWIDTH 600 0
DWIDTH 11 0
BBX 12 1 -1 4
BITMAP
3FFFFFFFFFF9
ENDCHAR
STARTCHAR uni2015
ENCODING 8213
SWIDTH 600 0
DWIDTH 11 0
BBX 12 1 -1 4
BITMAP
3FFFFFFFFFF9
ENDCHAR
STARTCHAR uni2016
ENCODING 8214
SWIDTH 600 0
DWIDTH 11 0
BBX 6 18 2 -5
BITMAP
2F205E
2F205E
2F205E
2F205E
2F205E
2F205E
2F205E
2F205E
2F205E
2F205E
2F205E
2F205E
2F205E
2F205E
2F205E
2F205E
2F205E
2F205E
ENDCHAR
STARTCHAR underscoredbl
ENCODING 8215
SWIDTH 600 0
DWIDTH 11 0
BBX 10 3 -1 -4
BITMAP
6FFFFFFFF4
0000000000
CFFFFFFFC0
ENDCHAR
STARTCHAR quoteleft
ENCODING 8216
SWIDTH 600 0
DWIDTH 11 0
BBX 5 6 4 7
BITMAP
002980
03D710
0D5000
4FE400
5FF600
2DC100
ENDCHAR
STARTCHAR quoteright
ENCODING 8217
SWIDTH 600 0
DWIDTH 11 0
BBX 4 6 4 7
BITMAP
05E9
0CFF
09FE
00B7
3AB0
C700
ENDCHAR
STARTCHAR quotesinglbase
ENCODING 8218
SWIDTH 600 0
DWIDTH 11 0
BBX 5 6 2 -3
BITMAP
008E60
00FFB0
00CFA0
001D40
04C800
2C5000
ENDCHAR
STARTCHAR quotereversed
ENCODING 8219
SWIDTH 600 0
DWIDTH 11 0
BBX 4 6 4 7
BITMAP
2CD2
9FF4
CFB0
A800
3E60
03B1
ENDCHAR
STARTCHAR quotedblleft
ENCODING 8220
SWIDTH 600 0
DWIDTH 11 0
BBX 9 6 2 7
BITMAP
0029701890
03D712D710
1D400C6000
5FE33FF500
6FF64FF700
2DC11DD200
ENDCHAR
STARTCHAR quotedblright
ENCODING 8221
SWIDTH 600 0
DWIDTH 11 0
BBX 9 6 2 7
BITMAP
05E904EA00
0CFE0BFF10
09FD08FE00
00B700A800
3BA02AB100
C600B70000
ENDCHAR
STARTCHAR quotedblbase
ENCODING 8222
SWIDTH 600 0
DWIDTH 11 0
BBX 9 6 2 -3
BITMAP
05E904EA00
0CFE0BFF10
09FD08FE00
00B700A800
3BA02AB100
C600B70000
ENDCHAR
STARTCHAR dagger
ENCODING 8224
SWIDTH 600 0
DWIDTH 11 0
BBX 7 15 3 -2
BITMAP
000D5000
000F1000
113D0100
CFFFFF20
11870100
00B40000
00E10000
03D00000
06A00000
09800000
0C500000
0F200000
3E000000
6B000000
33000000
ENDCHAR
STARTCHAR daggerdbl
ENCODING 8225
SWIDTH 600 0
DWIDTH 11 0
BBX 9 15 1 -2
BITMAP
00000C5000
00000F2000
00112E0100
00CFFFFF20
0011881100
0000B50000
0000E30000
0002F10000
0005D00000
0007900000
0109611000
4FFFFFA000
011F111000
003D000000
007B000000
ENDCHAR
STARTCHAR bullet
ENCODING 8226
SWIDTH 600 0
DWIDTH 11 0
BBX 6 5 2 2
BITMAP
03BED3
1EFFFC
5FFFFD
5FFFF7
09ED70
ENDCHAR
STARTCHAR ellipsis
ENCODING 8230
SWIDTH 600 0
DWIDTH 11 0
BBX 11 3 -1 0
BITMAP
0AE13D809E20
3FF39FB1FF40
1EA06E50DC10
ENDCHAR
STARTCHAR uni202F
ENCODING 8239
SWIDTH 600 0
DWIDTH 11 0
BBX 1 1 0 0
BITMAP
00
ENDCHAR
STARTCHAR perthousand
ENCODING 8240
SWIDTH 600 0
DWIDTH 11 0
BBX 11 11 0 0
BITMAP
006DE6000000
03C24C000000
069179002880
02DEA15BD830
00028B830000
019830000000
19EB11AEA000
891A5A71C300
C1094D00B200
D33D1E14C000
6ED407EC3000
ENDCHAR
STARTCHAR uni2032
ENCODING 8242
SWIDTH 600 0
DWIDTH 11 0
BBX 3 5 5 8
BITMAP
09B0
0D60
2F10
6A00
A400
ENDCHAR
STARTCHAR uni2033
ENCODING 8243
SWIDTH 600 0
DWIDTH 11 0
BBX 7 5 3 8
BITMAP
02F21F50
06D04E00
0A708900
0E20C400
3B01D000
ENDCHAR
STARTCHAR uni2035
ENCODING 8245
SWIDTH 600 0
DWIDTH 11 0
BBX 3 5 5 8
BITMAP
B900
6D00
1F20
0A60
05A0
ENDCHAR
STARTCHAR guilsinglleft
ENCODING 8249
SWIDTH 600 0
DWIDTH 11 0
BBX 5 7 3 1
BITMAP
001A30
01C800
2DA000
9D0000
5F3000
09B000
01B100
ENDCHAR
STARTCHAR guilsinglright
ENCODING 8250
SWIDTH 600 0
DWIDTH 11 0
BBX 5 7 2 1
BITMAP
00B200
009B00
001E70
000BB0
008E30
07D200
1B1000
ENDCHAR
STARTCHAR exclamdbl
ENCODING 8252
SWIDTH 600 0
DWIDTH 11 0
BBX 9 12 1 0
BITMAP
006F100D90
009C001F60
00C8003F20
00E4006D00
02F1009800
05B000C400
087000E100
0000000000
0000000000
7E501CC000
EF806FF100
AD203E9000
ENDCHAR
STARTCHAR uni203D
ENCODING 8253
SWIDTH 600 0
DWIDTH 11 0
BBX 7 12 3 0
BITMAP
29DFC600
D8117F30
10001F50
00E45C00
02F49100
05E60000
08A00000
00000000
00000000
6E600000
DF900000
AD300000
ENDCHAR
STARTCHAR uni203E
ENCODING 8254
SWIDTH 600 0
DWIDTH 11 0
BBX 9 1 2 10
BITMAP
BFFFFFFFA0
ENDCHAR
STARTCHAR uni203F
ENCODING 8255
SWIDTH 600 0
DWIDTH 11 0
BBX 16 3 -4 -4
BITMAP
A700000000000297
19E953101247CB40
0016ADEFEDA72000
ENDCHAR
STARTCHAR fraction
ENCODING 8260
SWIDTH 600 0
DWIDTH 11 0
BBX 12 11 -1 0
BITMAP
00000000003A
0000000003D4
000000004C20
00000002B100
000000000000
000000000000
000010000000
000690000000
008A00000000
0AA000000000
490000000000
ENDCHAR
STARTCHAR uni2047
ENCODING 8263
SWIDTH 600 0
DWIDTH 11 0
BBX 12 12 0 0
BITMAP
03BFD52BFD50
05519E5618F1
00006D0006E0
0002D6001D60
002D6002D700
01D6000D7000
05D0004D0000
000000000000
000000000000
2DA002DB0000
8FE007FE0000
5E7004E70000
ENDCHAR
STARTCHAR uni2048
ENCODING 8264
SWIDTH 600 0
DWIDTH 11 0
BBX 10 12 0 0
BITMAP
03BFD5009D
05519E00C9
00006D00F5
0002D602F1
002D6005C0
01D6000880
05D0000B40
0000000000
0000000000
2DA000AE20
8FE002FF50
5E7001DC00
ENDCHAR
STARTCHAR uni2049
ENCODING 8265
SWIDTH 600 0
DWIDTH 11 0
BBX 12 12 0 0
BITMAP
000AC02BFD50
000C905618F1
000F500006E0
003F10001D60
006C0002D700
0097000D7000
00C3004D0000
000000000000
000000000000
0AE202DB0000
2FF407FE0000
1DB004E70000
ENDCHAR
STARTCHAR zero.sups
ENCODING 8304
SWIDTH 600 0
DWIDTH 11 0
BBX 6 7 3 7
BITMAP
01BEC2
0B819A
4C004C
88005B
970097
6B15D1
1AEC20
ENDCHAR
STARTCHAR i.sups
ENCODING 8305
SWIDTH 600 0
DWIDTH 11 0
BBX 6 8 3 7
BITMAP
000C70
000000
2FFF00
003C00
007800
00A500
00C611
007ED3
ENDCHAR
STARTCHAR four.sups
ENCODING 8308
SWIDTH 600 0
DWIDTH 11 0
BBX 6 7 3 7
BITMAP
000760
005B00
03C1C1
1C22D0
9FFFFA
000770
000A40
ENDCHAR
STARTCHAR five.sups
ENCODING 8309
SWIDTH 600 0
DWIDTH 11 0
BBX 6 7 3 7
BITMAP
00DFFE
01D000
059000
08EEB1
0422C5
7813D3
1AED60
ENDCHAR
STARTCHAR six.sups
ENCODING 8310
SWIDTH 600 0
DWIDTH 11 0
BBX 6 7 3 7
BITMAP
006DE9
07D314
0E3000
3EAEB1
4D31B6
2E22C3
06EE70
ENDCHAR
STARTCHAR seven.sups
ENCODING 8311
SWIDTH 600 0
DWIDTH 11 0
BBX 6 7 4 7
BITMAP
7FFFF3
000880
005A00
01D100
088000
0E2000
4D0000
ENDCHAR
STARTCHAR eight.sups
ENCODING 8312
SWIDTH 600 0
DWIDTH 11 0
BBX 6 8 3 6
BITMAP
00AED3
06A17A
04C298
04EFA0
2E46D1
7900C3
6C14E1
0AED40
ENDCHAR
STARTCHAR nine.sups
ENCODING 8313
SWIDTH 600 0
DWIDTH 11 0
BBX 6 7 3 7
BITMAP
01BEA1
0A71B7
0E006A
0E42BA
06EDC6
2314B0
4DEA10
ENDCHAR
STARTCHAR parenleft.sups
ENCODING 8317
SWIDTH 600 0
DWIDTH 11 0
BBX 4 10 5 5
BITMAP
0093
05A0
1D20
6A00
A600
C300
D200
C300
A500
5700
ENDCHAR
STARTCHAR parenright.sups
ENCODING 8318
SWIDTH 600 0
DWIDTH 11 0
BBX 4 10 4 5
BITMAP
01A0
00E1
00C3
00B5
00C4
00E2
04C0
0A50
4B00
A200
ENDCHAR
STARTCHAR n.sups
ENCODING 8319
SWIDTH 600 0
DWIDTH 11 0
BBX 7 6 3 7
BITMAP
098BEB00
0CB31E30
0F200E20
3E002E00
6B005B00
88008800
ENDCHAR
STARTCHAR zero.subs
ENCODING 8320
SWIDTH 600 0
DWIDTH 11 0
BBX 7 7 1 -3
BITMAP
005DE800
03D32E30
0A600A60
0E100B40
1F001E10
0D51A800
04DE8000
ENDCHAR
STARTCHAR one.subs
ENCODING 8321
SWIDTH 600 0
DWIDTH 11 0
BBX 7 7 1 -3
BITMAP
006AE400
0001F100
0004D000
0006A000
00097000
000C4000
3FFFFF20
ENDCHAR
STARTCHAR two.subs
ENCODING 8322
SWIDTH 600 0
DWIDTH 11 0
BBX 7 7 1 -3
BITMAP
005DE800
00932F20
00000E10
00008800
00089000
02B60000
1FFFF800
ENDCHAR
STARTCHAR three.subs
ENCODING 8323
SWIDTH 600 0
DWIDTH 11 0
BBX 7 7 1 -3
BITMAP
006DE900
00522E20
00016D10
002FE200
00019900
1C319A00
04DEB200
ENDCHAR
STARTCHAR four.subs
ENCODING 8324
SWIDTH 600 0
DWIDTH 11 0
BBX 7 7 1 -3
BITMAP
0001B100
000B5000
00975800
06908600
1FFFFF40
0000E100
0002D000
ENDCHAR
STARTCHAR five.subs
ENCODING 8325
SWIDTH 600 0
DWIDTH 11 0
BBX 7 7 1 -3
BITMAP
004FFF70
00860000
00B30000
00EEE600
00515E00
1C317B00
04DEB200
ENDCHAR
STARTCHAR six.subs
ENCODING 8326
SWIDTH 600 0
DWIDTH 11 0
BBX 6 7 2 -3
BITMAP
02AED4
1D8132
6B0000
ABDE70
B913E0
8915C0
1BEC20
ENDCHAR
STARTCHAR seven.subs
ENCODING 8327
SWIDTH 600 0
DWIDTH 11 0
BBX 5 7 3 -3
BITMAP
EFFFC0
001C20
00B400
079000
1E2000
6B0000
B60000
ENDCHAR
STARTCHAR eight.subs
ENCODING 8328
SWIDTH 600 0
DWIDTH 11 0
BBX 6 8 2 -4
BITMAP
04CEA0
0D51C4
0B73D2
09FF40
8A2B70
D204C0
C61990
3DEA10
ENDCHAR
STARTCHAR nine.subs
ENCODING 8329
SWIDTH 600 0
DWIDTH 11 0
BBX 6 7 2 -3
BITMAP
05DD50
2D24E1
6900C4
6C14E3
1BEAD0
412960
9ED600
ENDCHAR
STARTCHAR parenleft.subs
ENCODING 8333
SWIDTH 600 0
DWIDTH 11 0
BBX 4 10 3 -5
BITMAP
002A
00C4
06A0
0C30
2E00
4C00
5B00
4B00
1D00
0A10
ENDCHAR
STARTCHAR parenright.subs
ENCODING 8334
SWIDTH 600 0
DWIDTH 11 0
BBX 4 10 2 -5
BITMAP
0075
005A
003C
002D
003C
006A
00A6
02D0
0B50
3900
ENDCHAR
STARTCHAR uni0259.sups
ENCODING 8340
SWIDTH 600 0
DWIDTH 11 0
BBX 6 6 3 7
BITMAP
05DEB2
06219B
00003E
7FFFFC
7902B4
1BEC50
ENDCHAR
STARTCHAR colonmonetary
ENCODING 8353
SWIDTH 600 0
DWIDTH 11 0
BBX 10 15 1 -2
BITMAP
0000008170
0000019550
00029DFE60
004E9B1BE4
02F8195520
0BC0649100
1F60A19000
5F21855000
6F073A0000
6F1A190000
3F78640300
0BF6A3CB00
01DEFC7100
0286300000
0527000000
ENDCHAR
STARTCHAR franc
ENCODING 8355
SWIDTH 600 0
DWIDTH 11 0
BBX 11 11 0 0
BITMAP
0005FFFFFF80
0008D0000000
000BA0000000
000E70000000
002F40000000
005FFFFFA000
008D00000000
00BA00000000
6EFFFF500000
03F300000000
06F000000000
ENDCHAR
STARTCHAR lira
ENCODING 8356
SWIDTH 600 0
DWIDTH 11 0
BBX 10 11 0 0
BITMAP
00003BEEB3
0002E8118C
0008C00001
0009A00000
03EFFFFF50
0007C00000
09FFFFFE00
0008B00000
001E500000
02C6000000
4FFFFFFF70
ENDCHAR
STARTCHAR uni20A6
ENCODING 8358
SWIDTH 600 0
DWIDTH 11 0
BBX 11 11 0 0
BITMAP
000AF0007900
000DC300A600
001C9600E200
004A5902E000
0CFFFFFFFF20
00A61E078000
3EFFFFFFFC00
01F10A4B3000
04C0077D0000
079004CB0000
0B6001F80000
ENDCHAR
STARTCHAR peseta
ENCODING 8359
SWIDTH 600 0
DWIDTH 11 0
BBX 10 11 1 0
BITMAP
008FFFD910
00D8013D80
6EFFFFFFFA
04F1000E60
07E0006E10
0AB027E400
0DFFEA3000
1F60000000
3F30000000
6E00000000
9B00000000
ENDCHAR
STARTCHAR uni20A9
ENCODING 8361
SWIDTH 600 0
DWIDTH 11 0
BBX 11 11 0 0
BITMAP
008C015108A0
009A05F20D50
00A90AC12E10
00B71AC07A00
00C565C0B500
1EFFFFFFFF20
00E3B0C4B000
00F562B96000
02EA13AD1000
03DB04CA0000
04F605F50000
ENDCHAR
STARTCHAR dong
ENCODING 8363
SWIDTH 600 0
DWIDTH 11 0
BBX 10 12 1 0
BITMAP
0000000B70
0000BFFFF9
0000002F10
004CFC8D00
05E514DA00
0E6000C700
3F1000F400
3F1003F100
1E714CD000
05DEC9A000
0000000000
EFFFFFC000
ENDCHAR
STARTCHAR Euro
ENCODING 8364
SWIDTH 600 0
DWIDTH 11 0
BBX 11 11 0 0
BITMAP
000006CFE900
0001CC412B80
000CB1000110
005F20000000
0DFFFFFFB000
00E800000000
4EFFFFF90000
00E700000000
00CA00003000
005F6128E200
0006DFEA3000
ENDCHAR
STARTCHAR uni20AE
ENCODING 8366
SWIDTH 600 0
DWIDTH 11 0
BBX 10 11 1 0
BITMAP
07FFFFFFF7
00006F0000
00009C0000
0000CA7B00
0005FC4000
06CAF47700
0308FB5000
06CDC00000
160D900000
001F500000
004F200000
ENDCHAR
STARTCHAR uni20B1
ENCODING 8369
SWIDTH 600 0
DWIDTH 11 0
BBX 10 11 1 0
BITMAP
009FFEC600
00C8015F50
5EFFFFFFFC
02F2000C70
8DFDDDDFE5
29C224BC21
0BEDEE9100
0E62100000
3F20000000
6D00000000
AA00000000
ENDCHAR
STARTCHAR uni20B2
ENCODING 8370
SWIDTH 600 0
DWIDTH 11 0
BBX 9 15 1 -2
BITMAP
000000E100
000002E000
0004BEFC30
008E6117D0
07E3000010
1E70000000
6F10000000
9D002FFF50
AB00002F20
AC00005E00
7E10008B00
1EA214D800
03BFEB6000
000B400000
000E200000
ENDCHAR
STARTCHAR uni20B4
ENCODING 8372
SWIDTH 600 0
DWIDTH 11 0
BBX 9 11 1 0
BITMAP
0008DFD500
007A217F20
0000002F30
000001BC00
4EFFFFFFC0
003BD60000
AFFFFFFF60
0D90000000
3F30001000
1E8115D300
04BEEB4000
ENDCHAR
STARTCHAR uni20B5
ENCODING 8373
SWIDTH 600 0
DWIDTH 11 0
BBX 10 15 1 -2
BITMAP
0000007300
000000C200
00029DFE60
004E95A4E3
02E7077010
0AD00A4000
1F600D1000
4F201C0000
6F00490000
5F10860000
3F40B30200
0AD3D2BC00
019EFD8100
0006800000
0006400000
ENDCHAR
STARTCHAR uni20B8
ENCODING 8376
SWIDTH 600 0
DWIDTH 11 0
BBX 9 11 2 0
BITMAP
6FFFFFFF70
0000000000
CFFFFFFF10
000CA00000
000F600000
003F300000
006F000000
009C000000
00D9000000
01F5000000
04F2000000
ENDCHAR
STARTCHAR uni20B9
ENCODING 8377
SWIDTH 600 0
DWIDTH 11 0
BBX 10 11 1 0
BITMAP
01FFFFFFF7
000028D200
000000D800
08EFFFFFE0
000001E600
00015CC100
3FFFB60000
005F200000
000AC00000
0001E80000
00005F4000
ENDCHAR
STARTCHAR uni20BA
ENCODING 8378
SWIDTH 600 0
DWIDTH 11 0
BBX 10 11 0 0
BITMAP
0000E70000
0002F31760
0006FAB500
017ED31710
065CB8B500
017FB30001
1B8F3000C6
006F0000E4
009C0008D0
00D924AD30
01FEDA6100
ENDCHAR
STARTCHAR uni20BD
ENCODING 8381
SWIDTH 600 0
DWIDTH 11 0
BBX 11 11 0 0
BITMAP
00009FFFD910
0000D8013D90
0001F50008C0
0005F1000CA0
0008D013AE20
2EFFFFED8200
000E70000000
7EFFFFFFD000
005F10000000
007D00000000
00AA00000000
ENDCHAR
STARTCHAR uni2105
ENCODING 8453
SWIDTH 600 0
DWIDTH 11 0
BBX 12 11 -1 0
BITMAP
008DE400005C
08A2340005D2
0E2000006B10
0E5130029000
05DE80000000
00000019ED30
000160A917B0
002C42E003D0
03D404B006A0
3D3003E23D40
1300008ED500
ENDCHAR
STARTCHAR uni2113
ENCODING 8467
SWIDTH 600 0
DWIDTH 11 0
BBX 9 13 1 0
BITMAP
00001AEC10
0000AB1C60
0002F20B70
0007D01E30
000AA07A00
000D73D100
001F5C3000
005FB20000
009C100000
1CE9000000
00C9000000
009D139000
002CFC6000
ENDCHAR
STARTCHAR uni2116
ENCODING 8470
SWIDTH 600 0
DWIDTH 11 0
BBX 13 11 -1 0
BITMAP
006F401C76EC10
009E506C3D2B60
00CA7099970960
01F780D5B40B40
04D5A1F2A64C00
07B4B4E04ED200
0A82D6B0000000
0D51E881FFF100
1F20EB50000000
5D00DF10000000
E600BD00000000
ENDCHAR
STARTCHAR uni2117
ENCODING 8471
SWIDTH 600 0
DWIDTH 11 0
BBX 11 12 0 0
BITMAP
00018DFD8000
003D7202B900
02D300000D20
0A50BFFB1760
1C00E21C5570
5702D03E2560
7506FFC50840
750960000C10
670C30005900
2C000003C100
09A2028D2000
008DFD810000
ENDCHAR
STARTCHAR uni2120
ENCODING 8480
SWIDTH 600 0
DWIDTH 11 0
BBX 12 6 0 6
BITMAP
01CE809902D5
05A160CC0BD3
02D501CA86E0
002C54A7A2C0
181797700590
08ED39400860
ENDCHAR
STARTCHAR trademark
ENCODING 8482
SWIDTH 600 0
DWIDTH 11 0
BBX 11 5 1 7
BITMAP
9FFFB7E00C90
02D00AB28B60
05900D789B20
09602C3D1E00
0C2058003B00
ENDCHAR
STARTCHAR uni2126
ENCODING 8486
SWIDTH 600 0
DWIDTH 11 0
BBX 12 12 -1 0
BITMAP
000017DFD700
0002DA205F70
000C900008E1
006E100004F3
00C9000002F5
01F5000003F4
03F3000005F1
03F200000BA0
01F400002F40
00C70000C800
005D100AA000
6FFF407FFF40
ENDCHAR
STARTCHAR estimated
ENCODING 8494
SWIDTH 600 0
DWIDTH 11 0
BBX 11 12 0 0
BITMAP
0007DEC40000
01B9313A6000
09C00000E300
1FC00000FA00
5FC00000FF00
7FC00000FF30
7FFFFFFFFF50
5FC000000000
1FC000000000
09C000009100
01B7213A3000
0008DEB20000
ENDCHAR
STARTCHAR uni2150
ENCODING 8528
SWIDTH 600 0
DWIDTH 11 0
BBX 12 11 -1 0
BITMAP
009DA000003A
000A600003D4
000D30004C20
001E0002B100
005C00000000
0000003FFFF2
000010000A60
000690007900
008A0001E100
0AA000079000
4900000C5000
ENDCHAR
STARTCHAR uni2151
ENCODING 8529
SWIDTH 600 0
DWIDTH 11 0
BBX 12 11 -1 0
BITMAP
009DA000003A
000A600003D4
000D30004C20
001E0002B100
005C00000000
0000001BEB10
000010981980
000690B61990
008A005EDB70
0AA000413D20
490001BEC300
ENDCHAR
STARTCHAR uni2152
ENCODING 8530
SWIDTH 600 0
DWIDTH 11 0
BBX 10 11 1 0
BITMAP
08FF100000
003D000000
007A000288
009605BD83
0028B83000
1983000000
00001AEA00
EFA0A71C30
0A70D00B20
0D30E14C00
1F007EC300
ENDCHAR
STARTCHAR onethird
ENCODING 8531
SWIDTH 600 0
DWIDTH 11 0
BBX 12 11 -1 0
BITMAP
009DA000003A
000A600003D4
000D30004C20
001E0002B100
005C00000000
00000007ED30
000010061A80
000690002C50
008A0004FA00
0AA000822D40
4900005EEA00
ENDCHAR
STARTCHAR twothirds
ENCODING 8532
SWIDTH 600 0
DWIDTH 11 0
BBX 12 12 -1 0
BITMAP
01AEC1000000
0551D500003A
0001E20003D4
001B60004C20
03C40002B100
2FFFF4000000
00000007ED30
000010061A80
000690002C50
008A0004FA00
0AA000822D40
4900005EEA00
ENDCHAR
STARTCHAR uni2155
ENCODING 8533
SWIDTH 600 0
DWIDTH 11 0
BBX 12 11 -1 0
BITMAP
009DA000003A
000A600003D4
000D30004C20
001E0002B100
005C00000000
0000000CFFA0
0000101C0000
0006904EED20
008A00131B60
0AA001912D40
4900007EE700
ENDCHAR
STARTCHAR uni2156
ENCODING 8534
SWIDTH 600 0
DWIDTH 11 0
BBX 12 12 -1 0
BITMAP
01AEC1000000
0551D500003A
0001E20003D4
001B60004C20
03C40002B100
2FFFF4000000
0000000CFFA0
0000101C0000
0006904EED20
008A00131B60
0AA001912D40
4900007EE700
ENDCHAR
STARTCHAR uni2157
ENCODING 8535
SWIDTH 600 0
DWIDTH 11 0
BBX 12 12 -1 0
BITMAP
008ED3000000
0161A800003A
0002C40003D4
004F90004C20
0822E302B100
06EE90000000
0000000CFFA0
0000101C0000
0006904EED20
008A00131B60
0AA001912D40
4900007EE700
ENDCHAR
STARTCHAR uni2158
ENCODING 8536
SWIDTH 600 0
DWIDTH 11 0
BBX 12 12 -1 0
BITMAP
000830000000
004A0000003A
01C1600003D4
0A41D0004C20
3FFFF802B100
000770000000
0000000CFFA0
0000101C0000
0006904EED20
008A00131B60
0AA001912D40
4900007EE700
ENDCHAR
STARTCHAR uni2159
ENCODING 8537
SWIDTH 600 0
DWIDTH 11 0
BBX 12 11 -1 0
BITMAP
009DA000003A
000A600003D4
000D30004C20
001E0002B100
005C00000000
00000005CE90
0000104C2140
000690BAED20
008A00D61980
0AA000B61B60
4900003DE900
ENDCHAR
STARTCHAR uni215A
ENCODING 8538
SWIDTH 600 0
DWIDTH 11 0
BBX 12 12 -1 0
BITMAP
00DFFA000000
01C00000003A
05EEC10003D4
0231C5004C20
1912D302B100
07EE70000000
00000005CE90
0000104C2140
000690BAED20
008A00D61980
0AA000B61B60
4900003DE900
ENDCHAR
STARTCHAR oneeighth
ENCODING 8539
SWIDTH 600 0
DWIDTH 11 0
BBX 12 11 -1 0
BITMAP
009DA000003A
000A600003D4
000D30004C20
001E0002B100
005C00000000
00000008EE40
0000103D17A0
0006902E3970
008A001DFC00
0AA000D52D40
4900009EEA10
ENDCHAR
STARTCHAR threeeighths
ENCODING 8540
SWIDTH 600 0
DWIDTH 11 0
BBX 12 12 -1 0
BITMAP
008ED3000000
0161A800003A
0002C40003D4
004F90004C20
0822E302B100
06EE90000000
00000008EE40
0000103D17A0
0006902E3970
008A001DFC00
0AA000D52D40
4900009EEA10
ENDCHAR
STARTCHAR fiveeighths
ENCODING 8541
SWIDTH 600 0
DWIDTH 11 0
BBX 12 12 -1 0
BITMAP
00DFFA000000
01C00000003A
05EEC10003D4
0231C5004C20
1912D302B100
07EE70000000
00000008EE40
0000103D17A0
0006902E3970
008A001DFC00
0AA000D52D40
4900009EEA10
ENDCHAR
STARTCHAR seveneighths
ENCODING 8542
SWIDTH 600 0
DWIDTH 11 0
BBX 12 12 -1 0
BITMAP
04FFFF100000
0000A500003A
0008800003D4
002E10004C20
00890002B100
00D400000000
00000008EE40
0000103D17A0
0006902E3970
008A001DFC00
0AA000D52D40
4900009EEA10
ENDCHAR
STARTCHAR uni2189
ENCODING 8585
SWIDTH 600 0
DWIDTH 11 0
BBX 12 12 -1 0
BITMAP
007EE5000000
07B24E00003A
0E200F1003D4
1E003D004C20
0E42C602B100
05EE70000000
00000007ED30
000010061A80
000690002C50
008A0004FA00
0AA000822D40
4900005EEA00
ENDCHAR
STARTCHAR uni2190
ENCODING 8592
SWIDTH 600 0
DWIDTH 11 0
BBX 11 11 0 -1
BITMAP
000001000000
00008A000000
0009C1000000
009C10000000
0AB100000000
7FFFFFFFFF40
0AB100000000
009C10000000
0009C1000000
00008A000000
000001000000
ENDCHAR
STARTCHAR arrowup
ENCODING 8593
SWIDTH 600 0
DWIDTH 11 0
BBX 10 10 0 0
BITMAP
00003C1000
0003EFC100
002D7F8C10
02D63F09C1
2D703F00AB
16003F0006
00003F0000
00003F0000
00003F0000
00003F0000
ENDCHAR
STARTCHAR uni2192
ENCODING 8594
SWIDTH 600 0
DWIDTH 11 0
BBX 11 11 0 -1
BITMAP
000001000000
00000D500000
000003E60000
0000003D6000
00000002D700
7FFFFFFFFF30
00000002D700
0000003D6000
000003E60000
00000D500000
000001000000
ENDCHAR
STARTCHAR arrowdown
ENCODING 8595
SWIDTH 600 0
DWIDTH 11 0
BBX 10 10 0 0
BITMAP
00003F0000
00003F0000
00003F0000
00003F0000
16003F0006
2D703F00AB
02D63F09C1
002D7F8C10
0003EFC100
00003C1000
ENDCHAR
STARTCHAR arrowboth
ENCODING 8596
SWIDTH 600 0
DWIDTH 11 0
BBX 12 9 -1 0
BITMAP
000010001000
000A8000B700
008B00002D50
06C1000003E3
1EFFFFFFFFFC
06C1000002D3
008B00002D50
000A8000B700
000010001000
ENDCHAR
STARTCHAR arrowupdn
ENCODING 8597
SWIDTH 600 0
DWIDTH 11 0
BBX 9 11 1 -1
BITMAP
0004C20000
007EFD4000
09C4F3D600
3A13F02B10
0003F00000
0003F00000
0003F00000
3A13F02B10
09C4F3D700
007EFD4000
0004C30000
ENDCHAR
STARTCHAR uni2196
ENCODING 8598
SWIDTH 600 0
DWIDTH 11 0
BBX 9 9 1 0
BITMAP
0111000000
4FEEFFF900
4EE3000000
3B8E300000
3C08E30000
3C008E3000
3D0008E300
2A00008E10
0000000200
ENDCHAR
STARTCHAR uni2197
ENCODING 8599
SWIDTH 600 0
DWIDTH 11 0
BBX 8 9 1 0
BITMAP
00000011
0EFFFEFE
011006EE
00006E5E
0006E41E
006E402D
06E4002D
4E40002B
02000000
ENDCHAR
STARTCHAR uni2198
ENCODING 8600
SWIDTH 600 0
DWIDTH 11 0
BBX 8 8 1 1
BITMAP
03000000
3E50001C
05E5001F
005E500F
0005E50F
00005E5E
021115EF
0CEEFFFF
ENDCHAR
STARTCHAR uni2199
ENCODING 8601
SWIDTH 600 0
DWIDTH 11 0
BBX 9 8 1 1
BITMAP
0000000300
1C00006E10
1E0006E300
1E006E3000
2D06E30000
2D6E300000
2FE3011100
2FFFFFEA00
ENDCHAR
STARTCHAR arrowupdnbse
ENCODING 8616
SWIDTH 600 0
DWIDTH 11 0
BBX 9 12 1 -2
BITMAP
0005D30000
008EFD5000
0AB3F2D700
3903F01A10
0003F00000
0003F00000
0003F00000
3A03F01A10
09C4F3D700
007EFD5000
0005D30000
EFFFFFFFB0
ENDCHAR
STARTCHAR uni21D0
ENCODING 8656
SWIDTH 600 0
DWIDTH 11 0
BBX 11 11 0 -1
BITMAP
000025000000
0001D7000000
001C60000000
01CFFFFFFF40
0B7000000000
7C0000000000
1B7000000000
01CFFFFFFF40
001C60000000
0001D7000000
000025000000
ENDCHAR
STARTCHAR uni21D1
ENCODING 8657
SWIDTH 600 0
DWIDTH 11 0
BBX 10 10 0 0
BITMAP
00003C1000
0003D9C100
002E609C10
02DE306EC1
2D6B30689B
150B306806
000B306800
000B306800
000B306800
000B306800
ENDCHAR
STARTCHAR uni21D2
ENCODING 8658
SWIDTH 600 0
DWIDTH 11 0
BBX 11 11 0 -1
BITMAP
000006000000
00000AA00000
0000009A0000
7FFFFFFF9000
00000000A800
000000001E40
00000000A800
7FFFFFFF9000
0000009A0000
00000AA00000
000006000000
ENDCHAR
STARTCHAR uni21D3
ENCODING 8659
SWIDTH 600 0
DWIDTH 11 0
BBX 10 10 0 0
BITMAP
000B306800
000B306800
000B306800
000B306800
160B306806
2D7B3068AB
02DE306EC1
002E609C10
0003E9C100
00003C1000
ENDCHAR
STARTCHAR uni2200
ENCODING 8704
SWIDTH 600 0
DWIDTH 11 0
BBX 11 12 1 0
BITMAP
3F3000008E10
1F500001E600
0E600008D000
0C92223E5000
0BEDDDFC0000
09B002F40000
07C009B00000
05E02F300000
03F09A000000
01F3E2000000
00FB90000000
00DF20000000
ENDCHAR
STARTCHAR partialdiff
ENCODING 8706
SWIDTH 600 0
DWIDTH 11 0
BBX 10 12 0 0
BITMAP
00005CED70
00007415F5
00000000BA
000000008C
000000008C
0019EFC4AA
02EA203DE7
0BB00004F2
1F50000AB0
1F40006E20
0DB117E400
02BEE92000
ENDCHAR
STARTCHAR uni2203
ENCODING 8707
SWIDTH 600 0
DWIDTH 11 0
BBX 10 12 0 0
BITMAP
00AFFFFFF9
00000000F6
00000003F3
00000006F1
00000009C0
00BFFFFF90
0000000F60
0000003F30
0000005F10
0000008D00
000000BA00
EFFFFFF700
ENDCHAR
STARTCHAR uni2206
ENCODING 8710
SWIDTH 600 0
DWIDTH 11 0
BBX 11 12 -1 0
BITMAP
0000005F8000
000000DCA000
000006C6D000
00001E44F000
00008B02F200
0001E400F500
0009B000D700
002F3000B900
00AA00009C00
03F200007E00
0B9000005F10
4FFFFFFFFF20
ENDCHAR
STARTCHAR product
ENCODING 8719
SWIDTH 600 0
DWIDTH 11 0
BBX 10 13 0 -2
BITMAP
1FFFFFFFFB
1F5000009B
1F5000009B
1F5000009B
1F5000009B
1F5000009B
1F5000009B
1F5000009B
1F5000009B
1F5000009B
1F5000009B
1F5000009B
1F5000009B
ENDCHAR
STARTCHAR summation
ENCODING 8721
SWIDTH 600 0
DWIDTH 11 0
BBX 9 13 1 -2
BITMAP
AFFFFFFF30
2E50000000
06E2000000
00AC000000
001D800000
0004F40000
0000BB0000
0004F30000
002E600000
00CA000000
08D1000000
5F30000000
DFFFFFFFB0
ENDCHAR
STARTCHAR minus
ENCODING 8722
SWIDTH 600 0
DWIDTH 11 0
BBX 9 1 1 5
BITMAP
7FFFFFFF40
ENDCHAR
STARTCHAR uni2215
ENCODING 8725
SWIDTH 600 0
DWIDTH 11 0
BBX 12 11 -1 0
BITMAP
00000000003A
0000000003D4
000000004C20
00000002B100
000000000000
000000000000
000010000000
000690000000
008A00000000
0AA000000000
490000000000
ENDCHAR
STARTCHAR uni2219
ENCODING 8729
SWIDTH 600 0
DWIDTH 11 0
BBX 3 3 3 5
BITMAP
5E90
CFC0
9E50
ENDCHAR
STARTCHAR radical
ENCODING 8730
SWIDTH 600 0
DWIDTH 11 0
BBX 10 16 1 -1
BITMAP
00000000A5
00000000E1
00000002D0
0000000690
0000000950
0000000D20
0000001D00
0130005900
6DC0008600
31E200C200
009700D000
003C04A000
000D276000
00077B2000
0002CC0000
0000BA0000
ENDCHAR
STARTCHAR infinity
ENCODING 8734
SWIDTH 600 0
DWIDTH 11 0
BBX 11 6 0 3
BITMAP
1BEB106DE900
A818B6A12C70
E200CC0005C0
F200BE1005B0
B91788B22C70
2BE9008EE800
ENDCHAR
STARTCHAR orthogonal
ENCODING 8735
SWIDTH 600 0
DWIDTH 11 0
BBX 9 8 1 2
BITMAP
7A00000000
7A00000000
7A00000000
7A00000000
7A00000000
7A00000000
7A00000000
7FFFFFFF40
ENDCHAR
STARTCHAR intersection
ENCODING 8745
SWIDTH 600 0
DWIDTH 11 0
BBX 8 8 1 2
BITMAP
007DFC50
08C314E5
1F20005D
3E00002F
4D00001F
4D00001F
4D00001F
4D00001F
ENDCHAR
STARTCHAR integral
ENCODING 8747
SWIDTH 600 0
DWIDTH 11 0
BBX 5 17 3 -3
BITMAP
005EC0
00E500
04F000
05E000
05E000
04F000
03F100
02F200
00F400
00D600
00C700
00A800
009900
009900
00A800
02E400
8F9000
ENDCHAR
STARTCHAR uni2237
ENCODING 8759
SWIDTH 600 0
DWIDTH 11 0
BBX 9 10 1 1
BITMAP
04EA004DA0
0BFE00BFE0
08E6007E60
0000000000
0000000000
0000000000
0000000000
7E6006E700
FFA00EFA00
BD300BD300
ENDCHAR
STARTCHAR approxequal
ENCODING 8776
SWIDTH 600 0
DWIDTH 11 0
BBX 9 6 1 3
BITMAP
09ED822C20
5A139EE700
0000000000
0000000000
09ED822C20
5A139EE700
ENDCHAR
STARTCHAR notequal
ENCODING 8800
SWIDTH 600 0
DWIDTH 11 0
BBX 9 9 1 1
BITMAP
000000A600
000005B000
7FFFFFFF40
0000970000
0002D10000
000A600000
7FFFFFFF40
01C3000000
0970000000
ENDCHAR
STARTCHAR equivalence
ENCODING 8801
SWIDTH 600 0
DWIDTH 11 0
BBX 9 9 1 1
BITMAP
7FFFFFFF40
0000000000
0000000000
0000000000
7FFFFFFF40
0000000000
0000000000
0000000000
7FFFFFFF40
ENDCHAR
STARTCHAR lessequal
ENCODING 8804
SWIDTH 600 0
DWIDTH 11 0
BBX 9 10 1 0
BITMAP
0000004930
00027DB600
15BD820000
7F80000000
15BD820000
00027DC610
0000004930
0000000000
0000000000
7FFFFFFF40
ENDCHAR
STARTCHAR greaterequal
ENCODING 8805
SWIDTH 600 0
DWIDTH 11 0
BBX 9 10 1 0
BITMAP
5830000000
17DC610000
00039EA400
000001AF40
00039EA400
17DC610000
5820000000
0000000000
0000000000
7FFFFFFF40
ENDCHAR
STARTCHAR house
ENCODING 8962
SWIDTH 600 0
DWIDTH 11 0
BBX 10 12 0 0
BITMAP
00009F6000
0004E5E200
001E508B00
00AB001D70
06E10004F3
1E5000009C
1F2000005E
1F2000005E
1F2000005E
1F2000005E
1F2000005E
1FFFFFFFFE
ENDCHAR
STARTCHAR revlogicalnot
ENCODING 8976
SWIDTH 600 0
DWIDTH 11 0
BBX 9 5 1 1
BITMAP
7FFFFFFF40
7A00000000
7A00000000
7A00000000
3500000000
ENDCHAR
STARTCHAR uni231C
ENCODING 8988
SWIDTH 600 0
DWIDTH 11 0
BBX 9 13 2 0
BITMAP
000AFFFF30
000D300000
001F000000
004C000000
0079000000
00A6000000
00D3000000
01F0000000
04C0000000
0790000000
0A60000000
0D30000000
1E00000000
ENDCHAR
STARTCHAR uni231D
ENCODING 8989
SWIDTH 600 0
DWIDTH 11 0
BBX 6 13 3 0
BITMAP
BFFFF2
0001E0
0004C0
000790
000A60
000D30
001E00
004C00
007900
00A600
00D300
01F000
04B000
ENDCHAR
STARTCHAR uni231E
ENCODING 8990
SWIDTH 600 0
DWIDTH 11 0
BBX 6 13 2 -1
BITMAP
000920
001F00
004C00
007900
00A600
00D300
01F000
04C000
079000
0A6000
0D3000
1F0000
4FFFF9
ENDCHAR
STARTCHAR uni231F
ENCODING 8991
SWIDTH 600 0
DWIDTH 11 0
BBX 8 13 0 -1
BITMAP
00000019
0000004C
00000079
000000A6
000000D3
000001F0
000004C0
00000790
00000A60
00000D30
00001F10
00004C00
4FFFF900
ENDCHAR
STARTCHAR integraltp
ENCODING 8992
SWIDTH 600 0
DWIDTH 11 0
BBX 4 22 4 -8
BITMAP
03DE
0D81
1F30
2F10
3F10
3F10
3F10
3F10
3F10
3F10
3F10
3F10
3F10
3F10
3F10
3F10
3F10
3F10
3F10
3F10
3F10
1500
ENDCHAR
STARTCHAR integralbt
ENCODING 8993
SWIDTH 600 0
DWIDTH 11 0
BBX 5 21 2 -3
BITMAP
002B10
003F10
003F10
003F10
003F10
003F10
003F10
003F10
003F10
003F10
003F10
003F10
003F10
003F10
003F10
003F10
003F10
003F10
004F00
019B00
2FD200
ENDCHAR
STARTCHAR uni2500
ENCODING 9472
SWIDTH 600 0
DWIDTH 11 0
BBX 13 1 -1 5
BITMAP
BFFFFFFFFFFF80
ENDCHAR
STARTCHAR uni2501
ENCODING 9473
SWIDTH 600 0
DWIDTH 11 0
BBX 13 3 -1 4
BITMAP
BFFFFFFFFFFF80
BFFFFFFFFFFF80
BFFFFFFFFFFF80
ENDCHAR
STARTCHAR uni2502
ENCODING 9474
SWIDTH 600 0
DWIDTH 11 0
BBX 3 25 4 -7
BITMAP
4F20
4F20
4F20
4F20
4F20
4F20
4F20
4F20
4F20
4F20
4F20
4F20
4F20
4F20
4F20
4F20
4F20
4F20
4F20
4F20
4F20
4F20
4F20
4F20
4F20
ENDCHAR
STARTCHAR uni2503
ENCODING 9475
SWIDTH 600 0
DWIDTH 11 0
BBX 3 25 4 -7
BITMAP
FFC0
FFC0
FFC0
FFC0
FFC0
FFC0
FFC0
FFC0
FFC0
FFC0
FFC0
FFC0
FFC0
FFC0
FFC0
FFC0
FFC0
FFC0
FFC0
FFC0
FFC0
FFC0
FFC0
FFC0
FFC0
ENDCHAR
STARTCHAR uni2504
ENCODING 9476
SWIDTH 600 0
DWIDTH 11 0
BBX 11 1 0 5
BITMAP
6FF0CF93FF30
ENDCHAR
STARTCHAR uni2505
ENCODING 9477
SWIDTH 600 0
DWIDTH 11 0
BBX 11 3 0 4
BITMAP
6FF0CF93FF30
6FF0CF93FF30
6FF0CF93FF30
ENDCHAR
STARTCHAR uni2506
ENCODING 9478
SWIDTH 600 0
DWIDTH 11 0
BBX 3 20 4 -5
BITMAP
4F20
4F20
4F20
4F20
4F20
0000
0000
4C10
4F20
4F20
4F20
4F20
0000
0000
3910
4F20
4F20
4F20
4F20
1300
ENDCHAR
STARTCHAR uni2507
ENCODING 9479
SWIDTH 600 0
DWIDTH 11 0
BBX 3 19 4 -4
BITMAP
FFC0
FFC0
FFC0
FFC0
FFC0
0000
0000
FFC0
FFC0
FFC0
FFC0
FFC0
0000
0000
FFC0
FFC0
FFC0
FFC0
FFC0
ENDCHAR
STARTCHAR uni2508
ENCODING 9480
SWIDTH 600 0
DWIDTH 11 0
BBX 11 1 0 5
BITMAP
AF5EF5FC8F70
ENDCHAR
STARTCHAR uni2509
ENCODING 9481
SWIDTH 600 0
DWIDTH 11 0
BBX 11 3 0 4
BITMAP
AF5EF5FC8F70
AF5EF5FC8F70
AF5EF5FC8F70
ENDCHAR
STARTCHAR uni250A
ENCODING 9482
SWIDTH 600 0
DWIDTH 11 0
BBX 3 21 4 -5
BITMAP
4F20
4F20
4F20
4F20
0000
0000
4F20
4F20
4F20
4F20
0000
4F20
4F20
4F20
4F20
0000
0000
4F20
4F20
4F20
4F20
ENDCHAR
STARTCHAR uni250B
ENCODING 9483
SWIDTH 600 0
DWIDTH 11 0
BBX 3 21 4 -5
BITMAP
FFC0
FFC0
FFC0
FFC0
0000
0000
FFC0
FFC0
FFC0
FFC0
0000
FFC0
FFC0
FFC0
FFC0
0000
0000
FFC0
FFC0
FFC0
FFC0
ENDCHAR
STARTCHAR uni250C
ENCODING 9484
SWIDTH 600 0
DWIDTH 11 0
BBX 8 13 4 -7
BITMAP
4FFFFFF8
4F200000
4F200000
4F200000
4F200000
4F200000
4F200000
4F200000
4F200000
4F200000
4F200000
4F200000
4E100000
ENDCHAR
STARTCHAR uni250D
ENCODING 9485
SWIDTH 600 0
DWIDTH 11 0
BBX 8 15 4 -8
BITMAP
4FFFFFF8
4FFFFFF8
4FFFFFF8
4F200000
4F200000
4F200000
4F200000
4F200000
4F200000
4F200000
4F200000
4F200000
4F200000
4F200000
13000000
ENDCHAR
STARTCHAR uni250E
ENCODING 9486
SWIDTH 600 0
DWIDTH 11 0
BBX 8 13 4 -7
BITMAP
FFFFFFF8
FFC00000
FFC00000
FFC00000
FFC00000
FFC00000
FFC00000
FFC00000
FFC00000
FFC00000
FFC00000
FFC00000
EEB00000
ENDCHAR
STARTCHAR uni250F
ENCODING 9487
SWIDTH 600 0
DWIDTH 11 0
BBX 8 15 4 -8
BITMAP
FFFFFFF8
FFFFFFF8
FFFFFFF8
FFC00000
FFC00000
FFC00000
FFC00000
FFC00000
FFC00000
FFC00000
FFC00000
FFC00000
FFC00000
FFC00000
33200000
ENDCHAR
STARTCHAR uni2510
ENCODING 9488
SWIDTH 600 0
DWIDTH 11 0
BBX 8 13 -1 -7
BITMAP
BFFFFFF2
000004F2
000004F2
000004F2
000004F2
000004F2
000004F2
000004F2
000004F2
000004F2
000004F2
000004F2
000004E1
ENDCHAR
STARTCHAR uni2511
ENCODING 9489
SWIDTH 600 0
DWIDTH 11 0
BBX 8 15 -1 -8
BITMAP
BFFFFFF2
BFFFFFF2
BFFFFFF2
000004F2
000004F2
000004F2
000004F2
000004F2
000004F2
000004F2
000004F2
000004F2
000004F2
000004F2
00000130
ENDCHAR
STARTCHAR uni2512
ENCODING 9490
SWIDTH 600 0
DWIDTH 11 0
BBX 8 13 -1 -7
BITMAP
BFFFFFFC
00000FFC
00000FFC
00000FFC
00000FFC
00000FFC
00000FFC
00000FFC
00000FFC
00000FFC
00000FFC
00000FFC
00000EEB
ENDCHAR
STARTCHAR uni2513
ENCODING 9491
SWIDTH 600 0
DWIDTH 11 0
BBX 8 15 -1 -8
BITMAP
BFFFFFFC
BFFFFFFC
BFFFFFFC
00000FFC
00000FFC
00000FFC
00000FFC
00000FFC
00000FFC
00000FFC
00000FFC
00000FFC
00000FFC
00000FFC
00000332
ENDCHAR
STARTCHAR uni2514
ENCODING 9492
SWIDTH 600 0
DWIDTH 11 0
BBX 8 13 4 5
BITMAP
4D100000
4F200000
4F200000
4F200000
4F200000
4F200000
4F200000
4F200000
4F200000
4F200000
4F200000
4F200000
4FFFFFF8
ENDCHAR
STARTCHAR uni2515
ENCODING 9493
SWIDTH 600 0
DWIDTH 11 0
BBX 8 15 4 4
BITMAP
13000000
4F200000
4F200000
4F200000
4F200000
4F200000
4F200000
4F200000
4F200000
4F200000
4F200000
4F200000
4FFFFFF8
4FFFFFF8
4FFFFFF8
ENDCHAR
STARTCHAR uni2516
ENCODING 9494
SWIDTH 600 0
DWIDTH 11 0
BBX 8 13 4 5
BITMAP
DDB00000
FFC00000
FFC00000
FFC00000
FFC00000
FFC00000
FFC00000
FFC00000
FFC00000
FFC00000
FFC00000
FFC00000
FFFFFFF8
ENDCHAR
STARTCHAR uni2517
ENCODING 9495
SWIDTH 600 0
DWIDTH 11 0
BBX 8 15 4 4
BITMAP
33200000
FFC00000
FFC00000
FFC00000
FFC00000
FFC00000
FFC00000
FFC00000
FFC00000
FFC00000
FFC00000
FFC00000
FFFFFFF8
FFFFFFF8
FFFFFFF8
ENDCHAR
STARTCHAR uni2518
ENCODING 9496
SWIDTH 600 0
DWIDTH 11 0
BBX 8 13 -1 5
BITMAP
000004D1
000004F2
000004F2
000004F2
000004F2
000004F2
000004F2
000004F2
000004F2
000004F2
000004F2
000004F2
BFFFFFF2
ENDCHAR
STARTCHAR uni2519
ENCODING 9497
SWIDTH 600 0
DWIDTH 11 0
BBX 8 15 -1 4
BITMAP
00000130
000004F2
000004F2
000004F2
000004F2
000004F2
000004F2
000004F2
000004F2
000004F2
000004F2
000004F2
BFFFFFF2
BFFFFFF2
BFFFFFF2
ENDCHAR
STARTCHAR uni251A
ENCODING 9498
SWIDTH 600 0
DWIDTH 11 0
BBX 8 13 -1 5
BITMAP
00000DDB
00000FFC
00000FFC
00000FFC
00000FFC
00000FFC
00000FFC
00000FFC
00000FFC
00000FFC
00000FFC
00000FFC
BFFFFFFC
ENDCHAR
STARTCHAR uni251B
ENCODING 9499
SWIDTH 600 0
DWIDTH 11 0
BBX 8 15 -1 4
BITMAP
00000332
00000FFC
00000FFC
00000FFC
00000FFC
00000FFC
00000FFC
00000FFC
00000FFC
00000FFC
00000FFC
00000FFC
BFFFFFFC
BFFFFFFC
BFFFFFFC
ENDCHAR
STARTCHAR uni251C
ENCODING 9500
SWIDTH 600 0
DWIDTH 11 0
BBX 8 25 4 -7
BITMAP
4D100000
4F200000
4F200000
4F200000
4F200000
4F200000
4F200000
4F200000
4F200000
4F200000
4F200000
4F200000
4FFFFFF8
4F200000
4F200000
4F200000
4F200000
4F200000
4F200000
4F200000
4F200000
4F200000
4F200000
4F200000
4E100000
ENDCHAR
STARTCHAR uni251D
ENCODING 9501
SWIDTH 600 0
DWIDTH 11 0
BBX 8 27 4 -8
BITMAP
13000000
4F200000
4F200000
4F200000
4F200000
4F200000
4F200000
4F200000
4F200000
4F200000
4F200000
4F200000
4FFFFFF8
4FFFFFF8
4FFFFFF8
4F200000
4F200000
4F200000
4F200000
4F200000
4F200000
4F200000
4F200000
4F200000
4F200000
4F200000
13000000
ENDCHAR
STARTCHAR uni251E
ENCODING 9502
SWIDTH 600 0
DWIDTH 11 0
BBX 8 25 4 -7
BITMAP
DDB00000
FFC00000
FFC00000
FFC00000
FFC00000
FFC00000
FFC00000
FFC00000
FFC00000
FFC00000
FFC00000
FFC00000
FFFFFFF8
4F200000
4F200000
4F200000
4F200000
4F200000
4F200000
4F200000
4F200000
4F200000
4F200000
4F200000
4E100000
ENDCHAR
STARTCHAR uni251F
ENCODING 9503
SWIDTH 600 0
DWIDTH 11 0
BBX 8 25 4 -7
BITMAP
4D100000
4F200000
4F200000
4F200000
4F200000
4F200000
4F200000
4F200000
4F200000
4F200000
4F200000
4F200000
FFFFFFF8
FFC00000
FFC00000
FFC00000
FFC00000
FFC00000
FFC00000
FFC00000
FFC00000
FFC00000
FFC00000
FFC00000
EEB00000
ENDCHAR
STARTCHAR uni2520
ENCODING 9504
SWIDTH 600 0
DWIDTH 11 0
BBX 8 25 4 -7
BITMAP
DDB00000
FFC00000
FFC00000
FFC00000
FFC00000
FFC00000
FFC00000
FFC00000
FFC00000
FFC00000
FFC00000
FFC00000
FFFFFFF8
FFC00000
FFC00000
FFC00000
FFC00000
FFC00000
FFC00000
FFC00000
FFC00000
FFC00000
FFC00000
FFC00000
EEB00000
ENDCHAR
STARTCHAR uni2521
ENCODING 9505
SWIDTH 600 0
DWIDTH 11 0
BBX 8 27 4 -8
BITMAP
33200000
FFC00000
FFC00000
FFC00000
FFC00000
FFC00000
FFC00000
FFC00000
FFC00000
FFC00000
FFC00000
FFC00000
FFFFFFF8
FFFFFFF8
FFFFFFF8
4F200000
4F200000
4F200000
4F200000
4F200000
4F200000
4F200000
4F200000
4F200000
4F200000
4F200000
13000000
ENDCHAR
STARTCHAR uni2522
ENCODING 9506
SWIDTH 600 0
DWIDTH 11 0
BBX 8 27 4 -8
BITMAP
13000000
4F200000
4F200000
4F200000
4F200000
4F200000
4F200000
4F200000
4F200000
4F200000
4F200000
4F200000
FFFFFFF8
FFFFFFF8
FFFFFFF8
FFC00000
FFC00000
FFC00000
FFC00000
FFC00000
FFC00000
FFC00000
FFC00000
FFC00000
FFC00000
FFC00000
33200000
ENDCHAR
STARTCHAR uni2523
ENCODING 9507
SWIDTH 600 0
DWIDTH 11 0
BBX 8 27 4 -8
BITMAP
33200000
FFC00000
FFC00000
FFC00000
FFC00000
FFC00000
FFC00000
FFC00000
FFC00000
FFC00000
FFC00000
FFC00000
FFFFFFF8
FFFFFFF8
FFFFFFF8
FFC00000
FFC00000
FFC00000
FFC00000
FFC00000
FFC00000
FFC00000
FFC00000
FFC00000
FFC00000
FFC00000
33200000
ENDCHAR
STARTCHAR uni2524
ENCODING 9508
SWIDTH 600 0
DWIDTH 11 0
BBX 8 25 -1 -7
BITMAP
000004D1
000004F2
000004F2
000004F2
000004F2
000004F2
000004F2
000004F2
000004F2
000004F2
000004F2
000004F2
BFFFFFF2
000004F2
000004F2
000004F2
000004F2
000004F2
000004F2
000004F2
000004F2
000004F2
000004F2
000004F2
000004E1
ENDCHAR
STARTCHAR uni2525
ENCODING 9509
SWIDTH 600 0
DWIDTH 11 0
BBX 8 27 -1 -8
BITMAP
00000130
000004F2
000004F2
000004F2
000004F2
000004F2
000004F2
000004F2
000004F2
000004F2
000004F2
000004F2
BFFFFFF2
BFFFFFF2
BFFFFFF2
000004F2
000004F2
000004F2
000004F2
000004F2
000004F2
000004F2
000004F2
000004F2
000004F2
000004F2
00000130
ENDCHAR
STARTCHAR uni2526
ENCODING 9510
SWIDTH 600 0
DWIDTH 11 0
BBX 8 25 -1 -7
BITMAP
00000DDB
00000FFC
00000FFC
00000FFC
00000FFC
00000FFC
00000FFC
00000FFC
00000FFC
00000FFC
00000FFC
00000FFC
BFFFFFFC
000004F2
000004F2
000004F2
000004F2
000004F2
000004F2
000004F2
000004F2
000004F2
000004F2
000004F2
000004E1
ENDCHAR
STARTCHAR uni2527
ENCODING 9511
SWIDTH 600 0
DWIDTH 11 0
BBX 8 25 -1 -7
BITMAP
000004D1
000004F2
000004F2
000004F2
000004F2
000004F2
000004F2
000004F2
000004F2
000004F2
000004F2
000004F2
BFFFFFFC
00000FFC
00000FFC
00000FFC
00000FFC
00000FFC
00000FFC
00000FFC
00000FFC
00000FFC
00000FFC
00000FFC
00000EEB
ENDCHAR
STARTCHAR uni2528
ENCODING 9512
SWIDTH 600 0
DWIDTH 11 0
BBX 8 25 -1 -7
BITMAP
00000DDB
00000FFC
00000FFC
00000FFC
00000FFC
00000FFC
00000FFC
00000FFC
00000FFC
00000FFC
00000FFC
00000FFC
BFFFFFFC
00000FFC
00000FFC
00000FFC
00000FFC
00000FFC
00000FFC
00000FFC
00000FFC
00000FFC
00000FFC
00000FFC
00000EEB
ENDCHAR
STARTCHAR uni2529
ENCODING 9513
SWIDTH 600 0
DWIDTH 11 0
BBX 8 27 -1 -8
BITMAP
00000332
00000FFC
00000FFC
00000FFC
00000FFC
00000FFC
00000FFC
00000FFC
00000FFC
00000FFC
00000FFC
00000FFC
BFFFFFFC
BFFFFFFC
BFFFFFFC
000004F2
000004F2
000004F2
000004F2
000004F2
000004F2
000004F2
000004F2
000004F2
000004F2
000004F2
00000130
ENDCHAR
STARTCHAR uni252A
ENCODING 9514
SWIDTH 600 0
DWIDTH 11 0
BBX 8 27 -1 -8
BITMAP
00000130
000004F2
000004F2
000004F2
000004F2
000004F2
000004F2
000004F2
000004F2
000004F2
000004F2
000004F2
BFFFFFFC
BFFFFFFC
BFFFFFFC
00000FFC
00000FFC
00000FFC
00000FFC
00000FFC
00000FFC
00000FFC
00000FFC
00000FFC
00000FFC
00000FFC
00000332
ENDCHAR
STARTCHAR uni252B
ENCODING 9515
SWIDTH 600 0
DWIDTH 11 0
BBX 8 27 -1 -8
BITMAP
00000332
00000FFC
00000FFC
00000FFC
00000FFC
00000FFC
00000FFC
00000FFC
00000FFC
00000FFC
00000FFC
00000FFC
BFFFFFFC
BFFFFFFC
BFFFFFFC
00000FFC
00000FFC
00000FFC
00000FFC
00000FFC
00000FFC
00000FFC
00000FFC
00000FFC
00000FFC
00000FFC
00000332
ENDCHAR
STARTCHAR uni252C
ENCODING 9516
SWIDTH 600 0
DWIDTH 11 0
BBX 13 13 -1 -7
BITMAP
BFFFFFFFFFFF80
000004F2000000
000004F2000000
000004F2000000
000004F2000000
000004F2000000
000004F2000000
000004F2000000
000004F2000000
000004F2000000
000004F2000000
000004F2000000
000004E1000000
ENDCHAR
STARTCHAR uni252D
ENCODING 9517
SWIDTH 600 0
DWIDTH 11 0
BBX 13 15 -1 -8
BITMAP
BFFFFFF2000000
BFFFFFFFFFFF80
BFFFFFF2000000
000004F2000000
000004F2000000
000004F2000000
000004F2000000
000004F2000000
000004F2000000
000004F2000000
000004F2000000
000004F2000000
000004F2000000
000004F2000000
00000130000000
ENDCHAR
STARTCHAR uni252E
ENCODING 9518
SWIDTH 600 0
DWIDTH 11 0
BBX 13 15 -1 -8
BITMAP
000004FFFFFF80
BFFFFFFFFFFF80
000004FFFFFF80
000004F2000000
000004F2000000
000004F2000000
000004F2000000
000004F2000000
000004F2000000
000004F2000000
000004F2000000
000004F2000000
000004F2000000
000004F2000000
00000130000000
ENDCHAR
STARTCHAR uni252F
ENCODING 9519
SWIDTH 600 0
DWIDTH 11 0
BBX 13 15 -1 -8
BITMAP
BFFFFFFFFFFF80
BFFFFFFFFFFF80
BFFFFFFFFFFF80
000004F2000000
000004F2000000
000004F2000000
000004F2000000
000004F2000000
000004F2000000
000004F2000000
000004F2000000
000004F2000000
000004F2000000
000004F2000000
00000130000000
ENDCHAR
STARTCHAR uni2530
ENCODING 9520
SWIDTH 600 0
DWIDTH 11 0
BBX 13 13 -1 -7
BITMAP
BFFFFFFFFFFF80
00000FFC000000
00000FFC000000
00000FFC000000
00000FFC000000
00000FFC000000
00000FFC000000
00000FFC000000
00000FFC000000
00000FFC000000
00000FFC000000
00000FFC000000
00000EEB000000
ENDCHAR
STARTCHAR uni2531
ENCODING 9521
SWIDTH 600 0
DWIDTH 11 0
BBX 13 15 -1 -8
BITMAP
BFFFFFFC000000
BFFFFFFFFFFF80
BFFFFFFC000000
00000FFC000000
00000FFC000000
00000FFC000000
00000FFC000000
00000FFC000000
00000FFC000000
00000FFC000000
00000FFC000000
00000FFC000000
00000FFC000000
00000FFC000000
00000332000000
ENDCHAR
STARTCHAR uni2532
ENCODING 9522
SWIDTH 600 0
DWIDTH 11 0
BBX 13 15 -1 -8
BITMAP
00000FFFFFFF80
BFFFFFFFFFFF80
00000FFFFFFF80
00000FFC000000
00000FFC000000
00000FFC000000
00000FFC000000
00000FFC000000
00000FFC000000
00000FFC000000
00000FFC000000
00000FFC000000
00000FFC000000
00000FFC000000
00000332000000
ENDCHAR
STARTCHAR uni2533
ENCODING 9523
SWIDTH 600 0
DWIDTH 11 0
BBX 13 15 -1 -8
BITMAP
BFFFFFFFFFFF80
BFFFFFFFFFFF80
BFFFFFFFFFFF80
00000FFC000000
00000FFC000000
00000FFC000000
00000FFC000000
00000FFC000000
00000FFC000000
00000FFC000000
00000FFC000000
00000FFC000000
00000FFC000000
00000FFC000000
00000332000000
ENDCHAR
STARTCHAR uni2534
ENCODING 9524
SWIDTH 600 0
DWIDTH 11 0
BBX 13 13 -1 5
BITMAP
000004D1000000
000004F2000000
000004F2000000
000004F2000000
000004F2000000
000004F2000000
000004F2000000
000004F2000000
000004F2000000
000004F2000000
000004F2000000
000004F2000000
BFFFFFFFFFFF80
ENDCHAR
STARTCHAR uni2535
ENCODING 9525
SWIDTH 600 0
DWIDTH 11 0
BBX 13 15 -1 4
BITMAP
00000130000000
000004F2000000
000004F2000000
000004F2000000
000004F2000000
000004F2000000
000004F2000000
000004F2000000
000004F2000000
000004F2000000
000004F2000000
000004F2000000
BFFFFFF2000000
BFFFFFFFFFFF80
BFFFFFF2000000
ENDCHAR
ENDFONT
